<mxfile host="app.diagrams.net" modified="2022-04-29T10:21:02.545Z" agent="5.0 (Windows NT 10.0; Win64; x64) AppleWebKit/537.36 (KHTML, like Gecko) Chrome/99.0.4844.51 Safari/537.36" etag="emoc5TuMV3opP_WU0Ewa" version="17.4.6" type="github">
  <diagram id="ZGwhIYfQ783Hf1xDVDSE" name="Page-1">
    <mxGraphModel dx="4188" dy="1357" grid="1" gridSize="10" guides="1" tooltips="1" connect="1" arrows="1" fold="1" page="1" pageScale="1" pageWidth="2000" pageHeight="1500" math="0" shadow="0">
      <root>
        <mxCell id="0" />
        <mxCell id="1" parent="0" />
        <mxCell id="RIw_eJGzd-aFv94rjKLd-1" value="" style="shape=image;verticalLabelPosition=bottom;labelBackgroundColor=default;verticalAlign=top;aspect=fixed;imageAspect=0;image=data:image/png,iVBORw0KGgoAAAANSUhEUgAABJ4AAAI5CAYAAADg2vCGAAAAAXNSR0IArs4c6QAAAARnQU1BAACxjwv8YQUAAAAJcEhZcwAADsMAAA7DAcdvqGQAAMg9SURBVHhe7N0JvEzlH8fxR5ayi5KUdtIuJe0KbUqWQtGiRNJCG1r+CkmLKJJStEsbJSQtWlSUFqEkqUSWQshe5n+/j+cw995Z771n5sy9n/frNWbOMzPXzJkzc875Pb/n9xQLZTEAAAAAAABAAdvJXQMAAAAAAAAFisATAAAAAAAAfEHgCQAAAAAAAL4g8AQAAAAAAABfEHgCAAAAAACALwg8AQAAAAAAwBcEngAAAAAAAOALAk8AAAAAAADwBYEnAAAAAAAA+ILAEwAAAAAAAHxB4AkAAAAAAAC+IPAEAAAAAAAAXxB4AgAAAAAAgC8IPAEAAAAAAMAXBJ4AAAAAAADgCwJPAAAAAAAA8AWBJwAAAAAAAPiCwBMAAAAAAAB8QeAJAAAAAAAAviDwBAAAAAAAAF8QeAIAAAAAAIAvCDwBAAAAAADAFwSeAAAAAAAA4AsCTwAAAAAAAPAFgScAAAAAAAD4gsATAAAAAAAAfEHgCQAAAAAAAL4g8AQAAAAAAABfEHgCAAAAAACALwg8AQAAAAAAwBcEngAAAAAAAOALAk8AAAAAAADwBYEnAAAAAAAA+ILAEwAAAAAAAHxB4AkAAAAAAAC+IPAEAAAAAAAAXxB4AgAAAAAAgC8IPAEAAAAAAMAXBJ4AAAAAAADgCwJPAAAAAAAA8AWBJwAAAAAAAPiCwBMAAAAAAAB8QeAJAAAAAAAAviDwBAAAAAAAAF8QeAIAAAAAAIAvCDwBAAAAAADAFwSeAAAAAAAA4AsCTwAAAAAAAPAFgScAAAAAAAD4gsATAAAAAAAAfEHgCQAAAAAAAL4g8AQAAAAAAABfEHgCAAAAAACALwg8AQAAAAAAwBcEngAAAAAAAOALAk8AAAAAAADwBYEnAAAAAAAA+ILAEwAAAAAAAHxB4AkAAAAAAAC+IPAEAAAAAAAAXxB4AgAAAAAAgC8IPAEAAAAAAMAXBJ4AAAAAAADgi0IZeAqFQu4WAD/wHQMAAAAAJKJY1glkoTuD1FsqVqyYWwJQ0PiOoTC46KKLzF9//eWW/FG5cmXzxRdfmK+++spUqVLFtWa+n376yVxxxRVml112cS3+KFmypKlYsaIZPXq0aykcHnjgATNp0iSz007+9v9VqlTJfPfdd2bmzJmmdOnSrjXzffDBB+auu+4yO++8s2vxx+rVq82JJ55oHnnkEddSOHTv3t3+Jvm5Hy9RooSZNWuWefnll83JJ5/sWguHU045xfdtb9dddzVz5swx33//vWspHMaPH29//0qVKuVa/LFq1SrTpEkT07dvX9dSOOiYpXnz5r7ve/Xb8O+//5opU6a4FiD/CDwBSBrfMWS65cuXm1tuucU899xzrsU/Xbp0MTfddJM56KCDXEvmGzBggDn66KNNo0aNXIs/1q9fb9q2bWveeOMN11I4nH/++ea1117z/eRL2rRpYx5//HF7IltYdO3a1VxzzTWmdu3arsUff/zxh7n99tvNM88841oy33///WdPXMeNG+f7fnzo0KFmn332MU2bNnUtmW/atGlm8uTJplevXq7FP/qcRo0aZcqUKeNaMp++u9onHnzwwa7FH/PnzzcDBw40jz32mGspHF555RW7X2zfvr1r8ceWLVtMy5YtU/I7gaKDGk8AgCLnnnvuMbfddptb8tcdd9xh7r33XreU+dasWWM+//xz34NOohMu/T8TJ050LZlPJw7NmjVLSdBJevbsafr37++WMt/ChQvNP//843vQSapXr25233138+2337qWzPf000+byy67LCUnk506dTJPPvlkoRqer2ydG2+80S35q1u3bmbIkCFuKfP9+uuvNmjid9BJ1NGj7W7BggWuJfMpaKzOsksvvdS1+EfZxq1btzYvvviiawHyr0hkPGl5xowZ5qOPPrK9V7qvWrVqNvW3fv36UVPdlQa/adMmt5SdDhg1bOKQQw4x5cuXd63ZKT1WwxGqVq1qTjjhBNeaf3pNSn3Ue1KvfdmyZU2NGjVM48aNTa1atdyj4ps7d65NV1evwObNm80ee+xh14cO8osXL+4eld2KFSvM1KlT7W0dOCcqmedNnz7dLF261N4+5phjzN57721vx6PPWT2TWgcaAiKfffaZ+fPPP+1tvb/jjz/e3o5l9uzZ5ueff7a3a9asaQ499FB7u6AphXXChAn2tnq/U9WjoB2/0rc3bNhgDjvsMLsNR6MD1Hnz5tmT5pzfqVS9XqCg6cS1T58+5qmnnnIt/rv55pttD+URRxzhWjKXevo1hCGR39OCoP3TBRdcYN566y3Xkrm8bBNlcEXbz/pBgQadMOvYJ9NdffXVNpi2//77uxZ/6fjluuuuMy+99JJryVw6frzwwgtT+l1StpiGBWloc6Z77733zDfffGNuvfVW1+K/Vq1a2X2VhhxnOgUidZy+3377uRZ/LVq0yO6vRo4c6Voym96HzvmUxZoKW7dutedsY8eOtUNngXzLOoEsdLK+KO5WKPTll1+GjjrqKAXXIl5q1qwZytqRuEdnt8cee0R8Tvhlp512Cp199tmhuXPnumft0KNHD/uYs846y7Xk3wsvvBCqWrVqrtfhXRo3bhyaP3++e3RkP/zwQ+jUU0+N+HxdatSoERo/frx7dHYffvjh9sclI9Hn6f0VK1bMPq5169ahLVu2uHvie+ihh+xzv/76a9cSCjVq1Gj7/7v77ruH/v33X3dPdPXr19/+HH2Gfvn777+3/z+JvK78+vPPP0NZJ2/b/0/vcvLJJ4d+/fVX96jstC71mAEDBriWbcK/Y0Cmueqqq0K//PKLW0qN5cuXh9q2beuWMpfex8UXX+yWUmfEiBGhl19+2S1lLr2P0aNHu6XU0THKtdde65Yy17x580JdunRxS6nTu3fv0NSpU91S5nrkkUdCEyZMcEupoeOb8847LyXHOX7LOgkPrV+/3i2lxvTp00N33HGHW8pc33//fej66693S6nTrVu30OzZs91S5tq0aVOoadOmKT/+HjNmTGjYsGFuCcifQh14mjNnTqhChQr2xHnfffcN3XTTTaGhQ4eGBg4caH/8FIjQfSVKlIgYfPICT3Xq1Amde+652y9NmjSxAZ4jjjjC3q9L5cqVQ7/99pt75jYFHXhSUMb7/xQc6dWrl/0x6N+/f+jSSy8NlSpVyt631157hRYvXuyeld3rr78eKlu2rH3crrvuGrruuuvsOnnmmWdCt99+u32u7lMAZ+TIke5ZO/gZeAoPOun9JHOQosDJLrvsErrkkktcyzbhgSdd3n//fXdPZDoZDX98YQk8bdiwIXTcccfZ/0uB2MGDB9uLtm21HXDAAaFVq1a5R2endap1G36iTuAJmUon4PrdSwf9xk6bNs0tZaabb745NHPmTLeUOvqN1L43k09e03Xi4FHAdcGCBW4pM11++eWhRYsWuaXUWbNmTah58+ZuKTOtW7cudP7557ul1FLQ+Mknn3RLmenNN98MPfroo24ptS666CIb9M9kOq5fsmSJW0qdZcuWpaWzpKANGTIkNG7cOLeUWgoc6zwCyK9CHXhq0aKFPalu0KBBaOPGjbYtnHbCDRs2tI+pVatW6L///nP3bOMFnmL1TqoHzAtu5Qx6FGTgSQes1apVs38vWjBEgQHvMTrAzEmBuJ133tner573tWvXunt20P/jrbeSJUvmyuTyK/AUHnTSa8/5WcSj7Chln+XM9vICT9566dSpk7snsvvuu88+zgvOFZbAk3o59f8ce+yx2b4Lmzdv3r6ObrnlFteandap1u2FF17oWgg8IXPpd/qPP/5wS6m1evXqUMuWLd1S5vn999/tiX+6aF+sjKFMpd/ht956yy2lnjrHrrzySreUeb777rvQjTfe6JZST1nVkyZNckuZp1+/fqEpU6a4pdTTyWukY/FMoGMeBb51zJQOs2bNspk7mWrGjBmh7t27u6XUU6ePMscylc5X1WmRLpMnTw49+OCDbgnIu0IdeCpfvrw9oVbQIxodSHsn/xqWFy6RwJP07dvXPk7BinAFGXjyhjwpqynWjvv555+3jytXrlyu4MAxxxxj71OgIVZgR39/v/32s49t166da93Gj8BTeNBJQwGSDWoohVbP1UFBTl5QRRkOuq5SpUrMII+ygcqUKWPTqfX4whJ42meffez/8/bbb7uWHXRAo/sqVaoU9aBK61aP0YG/EHhCJvrmm29Ct956q1tKDwW342VeBtU111wT+umnn9xS6ul3Ryev6iDJNDpx0H4l3ZTtnanDTtKd9aEef2W9ZyJlNId3HqWDhvg9/PDDbimzjBo1KvT000+7pfRo3769PWfJROocXrlypVtKvSBs//kRhOMGZXyq8wzIj0I7q13We9teGFzFPKNR4WpNc63pPUuXLu1ak3PcccfZ66wDS/P333/b2wVNhaBF7yvr4NvejuTss8+2hbU7d+68/Tny6aefmq+++srezvoBi1pQXXbeeWdb/E9/S8W9/aTZEjQ7g96XPodHH3006aLVjzzyiL2ONbWoZrfQe1GR0A8//NC1Zvfjjz+amTNn2kLf5cqVc6076DVq+msVhtWMHPqbZ511lp2xRdOORqPPQe/rtNNOMwceeKAtaq9CkbE+R48K1GvK6Dp16thCqipS37dv36S2MxWRVzFlFfds2LCha93h8MMPt9Md6296BeBz8tatt66BTKQi+T169HBL6ZF14m+yTr7cUubQJBTal+p3L120b1Bx2scff9y1ZA595jrOSLc777zT9OvXzy1lji+++MIccMABdoa5dNE+VIV2X331VdeSOVRYPpUFsSNp0qSJndBGMxJmEv3uvfDCCymZSSwWzY6q479M8/HHH9vjzF133dW1pF6lSpXM0UcfbSdmyjSaRVaTLkU6fk8lHTvpdwTIl6yT6ULHy8bwCmirFtOPP/5o25KRaMaTekH0OA1HCs8YKciMJ9UX8IZ/qdcv2Z6D2267zT5Xta7yoyAznsIznfJaOFHFx5XZVrx48YiReC/jSb1sShPV7Y4dO7p7s7v77rvt/RrHr0wv3fYynlRMUp+j2nRRgXevHpYuWTu00NKlS+1jw6mgt4a3eY9T5pGy0XRbabNee6SMp8cee8xuU7pfdcj02Wn4o5b33HPP7dlH8ai2gp6j70E03nsbNGiQa8lO61brWNugsg3IeEKm+eSTT2yB4CBIZ62GvNIQu6D0tqtOjTKIMoV62zWxQ1D07Nkz44adaP1Fq0OYSjrmyLRaY6pxo+PGINCxoIb8ZZLhw4cHZmKDzp07pzXrNC+U6RmptEeqaZ+Rrhpn+aFhgp9//rlbSq82bdpkfK0xpFehzXgSRWaVvTNr1iyboaJskbvuusv2uKxfv949Kn+U6aJsFtHfL1mypL1d0MqXL29762X06NFmzz33NOedd57tRVUmU6ysLvnuu+/sdaqmv44nPNMp64TG3HPPPe6e5KgXIGuHZjOCKlSo4Foja926tb0eM2aMyTpotLfDab1qulpleuXUsWNH884779jMoKwTWJN1IGenadW2ddRRR9npdVu0aJEri+naa681M2bMMEceeaSZN2+e+e2338zKlStt1lms6Yzfffdd06VLF9vDr+1YPYS//vqr+fPPP22P/5IlS+znr/cez+LFi+21svuiqV69ur32HpuT1m3dunVtVp96noFMM2DAAHPjjTe6pfTysnb0+5cJtP9Qb3Ws35BU6tatW0Zljd1///2me/fubin91HOt15QpPvroI5utoKyFdNOU4pdccol59tlnXUvw9e/f32axB0GDBg3M119/bVatWuVagk0jJ958883tx4/plmlZTxMnTrSfeaRRBKlWpkwZ06hRo5jH3kGjY/4FCxYE5txNvyPeuSiQF4U68FS/fn07rKp27dp2edq0aaZPnz72h0cHMKeffroZOnRo3CDUzz//bIM73kWBBKWODh8+3Jx44onbh7D973//s9d+ueGGG8zTTz9tTwC0M5wwYYI9kTr22GNNlSpVzIUXXmjGjh0b8WRGP15SrVo1e51O4UEn0U4gWsAjHgUR5YgjjrDXsShopOCghtvlTLfViZWGpF1wwQWmVKlSrnUbDXfTa9bwRO1ENVTOo/RhBaS0PX3++ef2AMWjoXuvvPKKDUaOGzfO1KxZ07ZrWQf+Gg4ZTc+ePbdfKz1eAVRRYOyJJ54wp5xyih0+p9vxeMGpsmXL2utItEOWWCnw3jr21jmQKSZNmmS/MwrgB4F+Y/Rbo2B3JtCBZlBOXEX7bu13/RraXpCWL19uOw28IflBoP2Vhp5nyrCTgQMHBmKYoueiiy4yr7/+utm8ebNrCS51kKmzK5FjpFRREDZThuyogyDWsVqqKfhfuXLl7Z3JQadzLHWiBsXVV19tj5szpdNHQWPvfCAI1Imu3xP9rgB5UagDT6Io8Zw5c8z7779va2sceuihtl2ZSgpKXXfddTYwpUBSNOphUHDHu9SrV89G8PUDpiCUAhKDBg2y9X78plo7+sLrhEW9bl6myurVq+2BUMuWLW1gJGcgx6vpVLx4cXudTpdddpn90X/ooYfMvvvua3/ELr744rhZW5EoWCTKaEuEDhjl5Zdftteel156yV63bdvWXofzekfOOOMMc9hhh9nb4fbYY4/tz1Pgz6MglSjQqfeZU7Sd8e+//257BEUZU5GojpeEB7qi8bK71FMbjZepFykTzOMFcJW5BWQSZaVG+y6lizI9n3vuuTz97qWSOmxUmy6dtXUi0clrJmTtKJtXdZWCRlljOm4JurfffjswGRMeZSIrGJEJtca0/fndKZosBWEVjFXmeJApw1sdbcouDxJ1AmRCnTZ1vKomqtdxGgR6LXpNOc8Bgkjnceoo16iKINHvSSbWGkMwFPrAkyjooqJsgwcPtkEoZf/oB7Fdu3b2hFsn+ip6+MMPP7hnZKdMGX3xwy8nnXSSHVqlnboyonQQlyrKTmnTpo15/vnn7Q+Tir7qAMgrPPfZZ5+Zxo0bZ+uN8zKd9COWbgo6jRw50hYT13vQQZyGrykbLVleJleiRQtbtWpl/z8FiMKDLArkVa1a1RYAz0kZT6KgYzReb3b4NuQFxdRDEImCWDmzq8TryVKgSD/wV111Va6LipyL99pi8Q7YY/XOeoX4Yx0geOvYW+dAJlAhYJ04qDBwkKgTQAFk/RYGmYI76S5KHIkymnXyqoyioNLQahWGjdRhkW46jlBnSiKdF+mkoHGQMiY8TZs2tUPiFZwIKh0b6ngrnRMCRJMJRe41mUoqj+0TpU4AfabqFAgqdahohIbXSRokek2Z0Omj70eQMo092vZ0HkUnNPKiSASectptt91sAEKzVMyePdvUqFHDHjxE6z1VSvC3336b7aLZv1QrSNlQ++23n3tkeqg3WtlXyupSdo4CFgp6eFk84r1GDf9KhGoV5XX4Wzz6wfd2Rhr+omFnogi6stCSoWwpSbQ3VLWx9H/qed6QMdUs0gmMxvBHyghTNpnECm55tSd0kuHxXlu02lMKiEaqWeENH1FgbMSIEREvXjZVInUSNDxPwl9bTt571JDNaLx17L0vIOi8g18Fa4NI+yEFwb3Ab9C89957NsAT6XcqCG677bZAn7xqn9arVy+3FDw6blDJgKAOO1EWdxCDxh51ngV5pldtfzpGDSIFY3VMouBsEOk47Msvv7TDeoNInQFBzvhUDTSV1IiVaZ8uOs7Xa9OxQVApoUGdxYmO5ki1TJ0dFelXaANPykQ65JBDTO/evV1LZLVq1dq+Y9awuaBSaqgCTJMnT3YtkekgTbVDRDtNjzK6RG1ekCEWPU5jybV+/vjjD9daMDREMJwynVQ4VAe/GrL2119/uXvi8zJ0YgVVcso53C7WMDvxaiPFqn/k/f/hdZS8QFWs50U64fTqLSkgqmGVsS7K1otHn6HEOsDz/s7+++9vryPx3mOQ0qaBWJRRqe91EA9+Rb2GGgL42GOPuZZg0Um1agsGlbJJtT9TvbugUSePMqoPOOAA1xI8Xq0x1TAMGnV+KRswqEFjUVBCx0pBLJStzGkFjJWxH1QKygZ1yI4mgAlSbZ2c9NmqU0CdA0GjgImy8lVCI6h0HhDkTh99L4I2RDaczg91jqNEDCAZhTbwpCCGsn68IUmxeBkhkYY9BYVO+jWzgYpUxxPp/ahGgnZUygBIZDagYcOG2Ws93qsj5RcdnI8aNcr2amq2Nq8GVCK8uiPJDCFUEXZlG73xxhu21peGXaoGkwqPR+Klqccq5jhz5kx7reCgx3ueZr6LREPWIgUBvb+hYJCyjPbaa69cFwW4VBRf2Xvx6ORMJ7hKu49UjFeZVZqVT1S/LBovIKghiUDQ6eDXG1IdZOeee64t8hwrQJ0O+n1U3UIvEB5U6nnN66yofgr6iYNHtcYUeIpV3y8ddEygjECv/mBQKetOQYqg0YQAQc128igoq8830Uz8VPEmBFBgJ8jUKRDEjDuvILuOO4NKry2oddpUEkYToUSqDRsk+n1hhjskq9AGnlQDST8sGkoXa/YMHWx5QZbw2cqCxsvGeeqpp2IWQlfgxgu2aUiZR0EopYWL0nNjzWaj4JY3VbA3DM5vKlyt6c5FxUQTLXrqpaEmkvnjUbBKPZUaMqYDRmV0eVlQkZxzzjn2WrMIRhp+qGGaXtbUmWeeaa/l/PPPt9eqA6HspJx0YB2JZsrzgn3RDirUE6dMpkSKXmr43KmnnmqDeZH+T9X40EmvCu/HqkXirWMvgwoIMg0h6tSpU6APfj36bQ5SoWf9VnjrL+gU4FdHQpBOXhXI16QTfnfaFASv1piOLYJCx2Xe7LdBp/qOyiZeunSpa0m/6dOn2/IKmdBJpMBx0LKeglpbJyd1CuiYU50EQaEOUR3zese/QaY6bcoYC1qnjzpSgh40Fp1LabbuTz/91LUACcg6wCx0tm7daq+vvfZapc3Yy9lnnx0aN25c6M8//wz9999/ob/++is0duzY0PHHH2/vr1ixYijr4ME+z5N14GjvGz16tGtJTo8ePezzzzrrLNeSd5s2bQrVrVvX/r2sA8XQNddcE/rss89Ca9asCWUdpNnX/vjjj4f23ntv+xg9Vu8znP7Gsccea+8vUaJE6NZbbw39/PPP7t5QaNGiRaGePXva+/SYxo0b5/obH374ob1Pl6wf7JiXxYsXu2dlf14sWld6jF7DF1984Vqj02eqxx9xxBGuJbtGjRrZ+x9++GHXss2TTz5p20uVKmWvv/32W3fPNu3atbPt+gzF+zvHHHNMaOHChbZNVq5cGTr33HPtfbVr1w5l7XTdPdu0atXK3levXr1Q1oGpaw2FpkyZEipXrpy9Txd9huGGDh1q2/X6XnnlFde6zciRI0NZJ9P2/rffftu1xjZx4kT7+PLly4eydhKuNRSaNWtWKOvg1N73/PPPu9bIjjrqKPu4t956a/t3DAiidevWhZo0aeKWMkPLli3t70kQ6LdgxIgRbin4fv/999Cll17qltLvwgsvDC1fvtwtZYZzzjkn1/4rXZ544onQyy+/7JaCb/bs2aEuXbq4pfRr3rx5YH5LEnHjjTeGvvnmG7eUXjqWDtJvSTw6rtd3NyjHZP369Qu9++67bin43n//ffuag2L69On23CxTrF69OtS0aVO3BMRXqANPOpnv0KGDPVmOddGJ98cff2yfEy5IgSdR4MILlMW61KlTJ7RkyRL3rOwUcDvttNOyPb506dKhXXfdNVvbeeedF/rnn3/cs3YIDyDFuzz11FPuWYkHnvS6q1SpYh+3//772x+1WBR422WXXWwg5u+//3atO0QLPK1YsWJ7gE0Bo5xyBp607g8//HDbVrJkydApp5xi/3bZsmVt23777ReaM2eOfWw4BTr1eegxWs96jhf803WFChXs7ZyBJ+nYsaO9T5datWrZ7ejAAw/c3nbPPfe4RyZGwUrvudqO9B4UxNTylVde6R4VmdbzTjvtZNf12rVrCTwh0O69997Q5MmT3VJmCMoB55YtW+xvTaTfpCDr2rVrIE5edSxx5513uqXMoc6JBx980C2lz4YNGwJ1Ip2o9u3bh3755Re3lD4ffPBBqG/fvm4pMyhIq2BtEHTq1Cn0448/uqXMoE6CeB2HqbBq1apQs2bN3FLmCFKgVh1QOj/JJPfff39o0qRJbgmIrVAHnjzK8Lj66qtDBx10UKhMmTL2RFvXCghoB60fy0hatGgRatCggd2R58Xw4cPt8wvyZELvTYEw7aSrV69ugyB6P5UqVQo1bNjQ7oDinTDob7z66qs2Su0F17y/oSyBN954wz0yN2UG6T0lcpkwYYJ7VvbnxaMsJu+xQ4YMca3RXXTRRfb1R+ohvemmm+zfee2111zLDjfccIO9T72rOakHRPfpM/QoEKf2ww47zAatlI2koFWfPn2ibkOiQE3v3r1DBxxwgA3eVK5c2W6PCpSdf/759v/JmVnmUVaeMs+UqaT3qCwpBa+0jpKlz13bhzKX9Dr09xTQUlAu2v/v0frT47WuJdNOClB0ZOrBr7Rp0yZqp0GqDBs2LKOyTTzLli2zGabppv1qvA6ToArCax84cGCe9m/ppuzxK664wi2ljzoNdcyRaW6//fbQ1KlT3VJ6zJs3z3b4ZRod86uzQJ0G6aSO2s8//9wtZQ69Zq+TOZ3UQa9zhUyjTFl1FgCJKKZ/sk4oCxW9pVh1PVR0NrzwdqZTgez8FOD877//7AwyQS/iGc3XX39tjjnmGDvW/Z133nGt/ou3nUWi9ax6JHmhz0n1OAqCXocuJRKc7Ut1riZNmmTXtTcDYSbUzkHRo2K/qi8RbbKAIFNNQhU7ffTRR11Lam3cuNG0aNHC1tnLRKrLorp3J554omtJLa03fYaa6jwTffLJJ/Z3XjVu0kG1VjQT1ltvveVaMss111xjrrvuupi1Ev2k9fbTTz9tr+eZSTSBjmY8HpfABDp+UU0xbftBngkwGs3SrMljrr76ateSWsuWLbPFzr3ZojON6gIPHjzY1uZLF+27VC9WhcUzjWbm1WRHrVu3di1AZIW2uHgshSnoJPkNGCmYkalBJ6lbt64NjKigYSqn1c5L4CWvQScpqKCT6HUkGnRSUXEF9Jo0aWKDTkBQaTain3/+OSODTqKJBXTyrRmV0kEBr+uvv94tZZ7u3bvHnEzEb0OGDLGBh0ylCUnmzZtnZ1xNB534de3a1S1lHs1imK6gnTqDNFFOly5dXEtmqVChgjnppJNS2nkYTrMWa3r4TAw6iU74NVGMOg/SQdt9JhTEjkavPV3fXZk4caI57bTTMjLoJB07djRPP/207SAHYimSgad0UHbJpk2bkr78G7ApjoOqT58+NhCUzpOOwkqzIGrdah0DQabZkTJhNqJYNMtTOr5ryjjQbKcKMGeqSpUq2VnGJk+e7FpS55VXXjHnnnuuKV26tGvJTPr+pOMETNkamo2tcePGriXzaBbDvfbay3zxxReuJXW0/TVr1szssssuriXzKOj98MMPu6XUyvTAiY7RlHE3dOhQ15I66ihZtWqVOfLII11L5tFr13vQDJXpkOmdFkpe0Ozr3ozoQDQEnlJE6ZM6IEj2cvfdd7u/gFiOPfZYc/PNN5snnnjCzJ8/37Uiv5S2r3V6yy232OGMQFAp23H16tWmTp06riUzHXTQQTYr94cffnAtqTFgwADTo0cPt5S5unXrlvKTV/Xyqre3U6dOriVzKatVGU/KdE0ldRoVhu2vZ8+epn///m4pNbT9jRgxwnTo0MG1ZKYyZcrY4O3rr7/uWlJj2rRpZt99903rMKuC0LRpU9t5sHbtWteSGpr+/6677nJLmatXr1628yrVFDTWZ6dzvkzWrl07O9RS5WyAaApljacgUt2HN954wy0lTqnvDRo0cEuIRRlirVq1MieffLIdcoH808nA1KlTzauvvmp23nln15oc1SBbv369qVixomsJFh2kadhhUDMV1AunYQgFOdSyIKm2QxAO2K+66ipbW+fggw92LZlr0aJF9iT8xRdfdC3+UqBBtUHGjBnjWjKbhmzVqFHD1qtKhZEjR9rv5+WXX+5aMtuPP/5oHnroITN8+HDX4i9tf507d055wMEvyljUsdvpp5/uWvyl7U/BatVIynQ6aVWNPg09yk9pgmTod0LrUEPtMp0CT6rVpiBKKqiDZNCgQSn7rfCbOg/UiZ2q4wgFjVXbSbXNMrnkiWfs2LG200L1vtJJx83lypUL7DrVPm/33Xd3S8Hj63G9Ak8A4JdZs2aF7rvvPrcUPJrFK3wGxqDRbCsLFy50S8GjmTDTbe7cuRk5G1EsXbt2Dc2YMcMt+Uuzf3755ZduKfNt3LgxdOaZZ8adrbMgbNq0yc4olYr/K5U6dOhgv1ep0K1bt9BXX33lljLfmjVrUva7WBi3P82++8wzz7glf73//vt2ZuLCRLO6/vXXX27JX23btg39/vvvbinz/fbbb/Y9pcrTTz+dsm09VTTDXbpn1tRxs849guriiy92t4LJz/0XGU8AfPXNN9/Y4XrKSElVD2ZOqh+SdSBmhzHlpIKcylZQr1O6/PHHH/ZaNUJy0hCK+vXr28LT6aK6BxoGEamHRin2qi1RrVo115J6qs2h7LwjjjjCtWQ+9Tgp7f/KK690Lf7Q/6MMoUydyS4a1TqpXLmy7z3XGkav35V0zSbll19++cUMHDjQXHHFFa7FH/pd1vY3fvx411I43HvvvaZWrVrmgAMOcC3+GD16tKlZs6Yt7ltYKAtEw3b8zlzX8YjqSinTM8jZB8lS1pPqjJ1xxhmuxR/KdlIx+Oeee861FA4arq2sO9UM9JO2c2UG6fPK9GF24TS7prJmGzZs6Fr8oawhjabQMNmcdNx86KGHpnWiGR03a6RIpGNj1c5VhnQ6j5tVSkVZTRpRkZNqjd54442mSpUqriU3ZZRpH5csAk8AfKUdkE6etQNI13AxDff79ttvTb169VzLDjrxXrBgQVp3UEuWLLHFnSOdJGvntW7dOrsTTQcVLdVnqB1opB38rFmzTNmyZX0/wYpG29T3339vT/TStY78oCEnGrKjbddP+vs6AH7kkUdcS+GggLdOyv22ePFic/HFF9vaNIWJtr/evXv7PsGJtj0Nc05HbRU/ff7553kqr5AsDctVbSe/T/JSTcO3li5d6pb8oX2a9m0KUmsq+MJCv0maoVSTGvlJw5kUdC9spS3UCfPhhx+6Jf9oeKwKsz/22GMZO5tdJNr+VCzd7/CCanrq+DhSUXvV/FyxYkVaZ+LWDMs6fo50bKzZY1XiI53HzV9++aU9po8UXJoxY4bZc8897WQZkVStWtUOTc5LxyiBJwAAAAAAAPiCWe0AAAAAAADgCwJPAAAAAAAA8AWBJwAAAAAAAPiCwBMAAAAAAAB8QeAJAAAAAAAAviDwBAAAAAAAAF8QeAIAAAAAAIAvCDwBAAAAAADAFwSeAAAAAAAA4AsCTwAAAAAAAPAFgScAAAAAAAD4gsATAAAAAAAAfEHgCQAAAAAAAL4g8AQAAAAAAABfEHgCAAAAAACALwg8AQAAAAAAwBcEngAAAAAAAOALAk8AAAAAAADwBYEnAAAAAAAA+ILAEwAAAAAAAHxB4AkAAAAAAAC+IPAEAAAAAAAAXxB4AgAAAAAAgC8IPAEAAAAAAMAXBJ4AAAAAAADgCwJPAAAAAAAA8AWBJwAAAAAAAPiCwBMAAAAAAAB8USyUxd0uNArhWwICp1ixYu4WAAAAAACRFdrAEyfFgH+S+Y5Nnz7dXHjhhaZevXqmePHirjW1tmzZYmbNmmXq1q3rWnZYtmyZWbhwoX196aLXsHbtWnPQQQe5lh1+//13s379enPwwQe7ltT78ccfTZkyZUyNGjVcyw5z5syx9+2///6uJfX0+oYNG2ZOOukk15L5NmzYYC677DK35J+tW7fa/2vixImupXB45513zFNPPeWW/LN06VL7OXXs2NG1FA6p2v522mknU6JECfPiiy+6lsJh7NixZtSoUW7JP0uWLDHXXHONadeunWspHDp37mxWrFjhlvyxyy67mO+//9688cYbEfdtmUr7wzvvvNMt+eeff/4xe++9t3nyySddS+Gg/Yb2H34rXbq0+emnn8z48eNNlSpVXGvmS9X2t3r1arNo0SJz2GGHuZYddNy8atUqc+SRR7qW1Pv555/t/i3SsfH8+fPt+VA6j5u//vprs++++0bc9nRftWrVTPXq1V1LdnvssYfZddddTd++fV1L4gg8AUhaMt+x2bNnm5deesnceuutriX1ypYta/766y+7o89p5MiRpmrVqua8885zLalXsmRJs27dOlOqVCnXssPdd99tLr/88rTtoPQ566LgXaTAYatWreznq5PHdND/e9ttt9kTlUgHIJlKB29Dhw41ffr0cS3++O+//0yHDh3syVdhctddd5nTTz/d1KlTx7X4QycoOsDV9leYzJgxw7zyyivm9ttvdy3+0L7kiiuuKHTb30033WRat25tateu7Vr8oe3v77//NldffbVryXwKaCjoqX2zn7S/1W/fI488Yo8BCosxY8bYzqyLL77YtfhDgcF77rnHPP30066lcNB669evn6lcubJr8YeORy+44ALz2muv2SBoYfHMM8/Y6+bNm9trv2idKfi08847u5YddNys/9/v/X8sCjpt3rw54rGxfneeeOKJtB0361hex/R6jZHouP7ll1+Oer86m7XvjrTu48p6YqGzdetWdwuAH5L5jn3//fehhx9+2C0FT9bBbWjy5MluKXj69OkTWrRokVsKnqyTK3crfZYvXx5q27atWyoc2rVrF/rtt9/ckr8GDBgQ6O9AsrJOiELNmjVzS/5r2rRpaOPGjW6pcGjRooX9XqXCgw8+GHrvvffcUub7/fffQxdddJFb8l9h2/769u0bevfdd92Sv2bPnh3q1q2bW8p8OjY788wzU7Y93HDDDfYYr7D46quvQl27dnVL/ps0aVJo4MCBbinzbdq0yW5///77r2tJDx03B3m7vOqqq9ytYPLzuL7IZDxlfQnMt99+a9OSdZ/SxI466qiIGQaeNWvW2L8ViZ4XKXsiXNYPv8n6EtqIpjIuCpKG5cycOdP8+eef9m8r3fXQQw919yZG7+2HH36w6YCKyqrH5+ijjzblypVzj8hNvePqjZKKFSva60Qk8zyl+Ov1iCLayURU1funz+XUU0+1y8oi0WcvyipRlDYe73MT/d9+9kQoWi/JrMv80ueunipFu3fbbTe7XqL5+OOP7frI2pG4lm0ifceAdFJq9/nnn2+OO+4415K5tK8aMWKEGTJkiGvxl77jbdq0MW+++aZryWzKrlRP8vHHH+9a/KX9jobs3Hjjja4ls+l3f/LkyTabIRW0z1eWQWHJelL2W9YJedLHZHn19ttv2yE7+j8znbIHleE7btw41+I/ZR/07t3bHkdnuhdeeMF+n1I19Hf58uU2u0//b2Gg/YaG7acyA07/57PPPhvz3CtTKEtb604ZM0BEWSeQhU54NsbKlSttRL5ChQqKIGW7ZH3JQ1deeWVo6dKl7tHZ7bHHHrmeE37ZZZddQscee2zo/vvvD61bt849a4cePXrYx5111lmuJf/mzp0byjq5CpUoUSLX69lzzz1D/fr1i9vTsX79+lCvXr1C1apVy/U3SpYsaTMHFi5c6B6d3Ycffrj9sclI9HnfffddqEqVKvZxhxxySGjJkiXunvjUc6Dnvfbaa64lFGrUqNH2/7dWrVquNTb1HnrP0Wfol7///nv7/5OK3oHFixfb7X3XXXfd/v/uvPPOoSZNmoS+/vpr96jsXn31Vfs4rdtwZBUiaPR9yjrYcUuZLetANLRs2TK3lBqPP/54aOzYsW4pc2mfkY7toGXLlqG1a9e6pcymfcLq1avdUmo8+uijobfeesstZa6ffvop1L59e7eUOs2bN494HJppunfvHvrss8/cUmr8/PPPoc6dO7ulzLVly5bQGWeckfJsk9tuuy00Y8YMt5S5PvnkE/teUk3/7z333OOWMpd+fwryfBeFU6EOPCnodOihh24/ya5bt27owgsvtIGFI444Ynu7AjC//PKLfU44L/BUqlSpUNmyZbdfypQpkyvwU69evVw7/YIOPOmHXcEy/U0FvU499VSbDqe0xn322Wf7a2nQoEHU4NOPP/4YOvzww7c/Vre1Ti6//PLQiSeeuL29cuXKoS+//NI9awc/A0/hQSd9Psmk+f/zzz+hvfbay76HcOGBJ130f8SyatUqG3zzHl9YAk86GN59993t/1WpUqXQOeecY0+UtM7Upm08Z3DJo3Wqx4WfVBF4QhDdd999oSlTprilzPTpp5/6+rsTjU5azjvvvIz/bl977bWhmTNnuqXUmTp1qh0ilOnGjx8feuCBB9xS6miIho7NMt2ll14a8XjSbx999FHo3nvvdUuZSZ3AOh5Nh2uuuSY0f/58t5SZ1HkwatQot5Q6Om4OwpD7/NLvj95LOmj9pev/Lij9+/cPvf32224JiKxQB56U6aST6r333jviWE8FVvbdd1/7mIYNG7rWHbzA0+jRo11LdqojoQwjPUaX22+/3d2zTUEHno466ij79xo3bmyDauH0nl966aXtQZNIB8B6jhdoOOywwyL2Ks2aNSt08MEH28coIJfz//Er8BQedFKAUOs2Geql0HN18BXOCzwpWKjrO++8090Tmer96HE77bSTvS4sgafTTz/d/j+6/uuvv1xryAYolQWl+xSYUgAvJ++zC18XBJ4QRAr+p7K2jx908JvzdzdVnn/+eXvJVDrhv+SSS9xS6unkIV2fXUHQ77qOV5QVnQ4jRowIvfzyy24p8yjg2aVLF7eUesr0y+ST1+uuuy70zTffuKXUUl2uK664wi1lng0bNthO6HQdm+lcKOfxdyZRx6veQ7oosaBnz55uKfPod0cdV0A8hTrw5AWOXn/9dbsciYIveowu8+bNc63bxAs8eTp16mQfp6Fu4Qoy8KQhdvpbxYoVC/3555+uNTf1eEV6LaJil7rvoIMOivk3VNDWG5qotOdwfgSewoNO9evXtwGZZCgzSoGlo48+2rXs4AWedEKg65o1a7p7IlOastaxF6gpDIGnBQsW2P9DwbRIQygVfKpatap9TLTvitZt6dKltw//IfCEoBoyZIjN2shEKvCdzpR7fa918Kjsp0ykIHrO/Xgqaciyn/sMv+lY57HHHnNLqaf9oLa/VA8VKigK/CRTHqCgffHFF6E77rjDLWUWHXdqQoV0uvHGG22x8Uz00EMPhd588023lHrq9NFwz0x19tlnp32oqjpNUj3EvqCo819DBoF4Is+TVwhkvTdbeFtq1KhhryM54YQTzDHHHGMLjWv60bxo2rSpvVbhchX99oP32lQcu0qVKvZ2JK1bt7bTru+11162sLZHhSezDirt7fvvv98WlY5mn332MZ06dbJFyxctWuRa/TFr1iw75bWKXZ9yyinmvffeS7rQdtaBslm/fr0tEBmNPud9993XrofvvvvOtWan7eX99983p512mqlevbprze6PP/6wU+9q6uKrrrrK3HfffXba83j0PlW8Uq9RRZBV1D0RKnKuKa27detmp5zWtPFZP+7u3sTMnz/fVKtWzdSsWTPid0EF1A8//HB7O+vgz17npNetgpWpKnYM5JV+uzRNrfYBmebhhx82Xbt2dUuppwkD9F1/6qmnXEvmmDt3rp0iWL9z6aLJObSPWLp0qWvJHJoARAXttV9LF31+7dq1My+++KJryRzTpk2zxxja16ZLvXr1zC+//LL92DeT9O3b1/zvf/9zS+mh46t7773XLWUOTdyjY1dNrpEuOjfRsfzEiRNdS+YYM2aMOeeccxKafMhPmbr9qcC8zoNOPvlk1wLEYMNPhYyXjVG7dm2bxaFeqLz04Caa8fTKK6/Yx+kSHjEvyIynrINZm4mjvzd48GDXmjgVQNdzVVg6kWwVpe1G6nUsyIyn8EwnZSbltbehRo0a9m8oVTonL+NJ0/nfeuut9nbOIZEe9fTq/ieffNL2vOl2eO+1xi+H13/yLvpclCIeaRvLOpi3qfc5n6MaYd5nokukda3eS28oaM6LajQlmxkW63P31uELL7zgWrLTutX91atXt38nkW0ISBcNmc20ITsq7B2UaZU1XFH7gEyiSTGUNZFuP/zwgx3mn2m03wvCMEvtW5T1tHnzZteSGTTpSxCGWSpjR5k7mUQZ/R06dHBL6aWMMR17ZRJNHf/uu++6pfTJxDptOkbXEMV4kzKlir4H0SZ3Cqrrr78+bUNkkXkKbcaT3H777fb61VdfNQcddJCNJn/44Yd26uiC9Prrr9vrWrVq+RYx33PPPU379u3tbU2ZW79+ffPQQw/ZabezDtRseywzZsyw1yeddFJC0+DvsssutvfRL+GZTo0bNzbjx4/P07rTFNa///67XffxpsK96KKL7LUyiCJ56aWXTIkSJezUpjk9+OCDdvvRulPPnDKWlEn06KOPmgoVKtjrLl26uEfvcPfdd9uMLGVxZR3Y297Izz//3GTt6EyPHj3co3LT327YsKHNQFJPzAcffGB+/fVXO22yetV13bx584Q+e0+0zz3rBN2uw5IlS5ozzjjDtWandXvwwQfb3nytcyDILrvsMpN1Em2zODJB1r7YTuEc6TckHa677jr7m5YptB9UJrCyddOtdu3aNjtUv9eZQpm1Ok5q27ata0kf7aeUdaXsq0yhTO1jjz3W7Lrrrq4lfQ477DDz999/m8WLF7uW4LvnnnvSnu3kueWWW8yAAQPcUvCtWrXKHt/rODrdSpUqZY9Lox1jB9GoUaPs1P/K/A8CnbdmUtbTwoUL7XlcnTp1XAsQx7b4U+ESno2hTBfN2KW36l2UtaKZunr37h1zPHesjCf9H5ohrmvXrtv/bs5MpILMeBJF5LNOqLb/f95F9ZjOPfdcOx1xtPoCJ5xwgn1sfgtfFkTGU3imky5HHnlknnvXtc71N6JNnx2e8SSqb6XlrBMVu+xZtGiRzVzyiuOFZzxpphXNIqjl1157zd4fbvr06aHixYvb+8N7yjRWO2tnZttzzrSlDCcVtNd9uuTMeFLvqdpbtGjhWnZQAfD999/f3h8vGy8eZQh49Z1uvvlm1xpZmzZt7OO0zsO/Y0AQKeNJxYozgTINhw8f7paCQbNerlmzxi0F2wUXXBCo2hgqct6xY0e3FHyDBg2yGXdBkklZd02aNMk262u6aRZbzdKWCXQspozxIMmkQtnK5P/888/dUvrpWDZT6rRplILqugbtteq7q+9wJrjqqqtsxiKQqEKd8SSql6Gxp6qrc8QRR9i2rB8b89lnn5m77rrL1rZRhovqM0Wj3vNy5cptv6j2kbKBlAGiej/SokULc+2119rbflFE/tlnn7UZM6ox5GX4ZJ0cmAkTJtheavX4KmK+efNme59H71n02tPNy3TSeHRlOanm0s033+zuTc7XX39tr9XLlwjVwBJl+YRTb2/W98FcfPHFrmWHN99802bJ1a1bN2I21HHHHWeyTtLs7eeee85ei7KS1JOs+1U3Kpy2n2g9fOqtfOutt+ztSD0f+gyvv/56e1tZHXmlHtFGjRrZ8dnKoIvXy+LVgfLWORBk+q6/8cYbuX4LgybroNf+rquGW5Co53/QoEFuKbg+/fRTm9FctWpV15J+++23n80aTqT+X7qpPszkyZNtpkKQKPtP2cJBp98YZZvo2DAo9H3Q8cyCBQtcS3Ap2+mOO+5wS8GgmpqZ8NunWnLKoj/++ONdS/rp2PaSSy7J17FpqqiWofa7fo7uyAudr/br188tBZf2b/qd0bkwkKhCH3gSHQRqeJQCHDrJfu2118w111yzPS1fheUaNGhgVq5caZdz0omLCnV7FxWy1pdNadU6cVewQcPtdtopNatTO5nHH3/cDo9SsWz9eLZp08YO+VKAqX///rlS5r2DcqXlppuCTho2OHbsWDNw4EDbpgNMfQ7J0ucpu+++u72OJ9pwOw2zK126tGnWrJlr2eHLL7+01zmDR+E0LE6++uorey3e8MZoBwUqeB5pm9Hf0PalYX/6v1VoNefFKzaf1yCQCvGeeOKJdkifUmRVEFJp0rF46zgTC5eiaOrcubP9rQyyp59+2lx++eX2+x4k+n3SkGL9XgeZJsvo2bOnWwoOdQBlwsmDCtrfdNNNbik4NBxdQUUFxoJK++kgDZENp2BO0Lc/FWTXZDjpLMgeiTpEdbw3adIk1xJM+nwVpAgadfroeD7InT7qTFbQ2DsnCBJNblS5cmUze/Zs1xJMOq/u1auXWwISUyQCT+F08qysFQU61FPwzDPP2J5JBXBUxycS1RpQFkr4RQEeBao0tv/SSy9NqG6SH9SzpVmINGOdMli8A0gFwtSL6dEsd6LxuOnWsWNHM3LkSBt0UebWeeedZ9uvvPLKqLOqRfPXX3/Z6/Lly9vreJT1phocP//8s/nmm29sm7aDL774ws5OGCkjzDvxUp2taLwDp/DgZbygmDLYItWE8J6nTAhl26n3KOdFJ1uSlyCQZj9RMEzbwqmnnmrrnmknF48Cm0LgCZmiSZMmZsqUKbazIIh08KuOkCDU1olEAR3vtyaI3nnnHftbVqlSJdcSHNonaJ+h+lNBpY4o7fuCUB8mEmWeDB482C0FjzqBLrzwwsDUhwmnjHjts+fMmeNagkdZ1qqdGUTqtAhyxp1qyOlcRDNyB43OhzS7rOqaBpVqGGqUSrrO3eLRvldJBEGl/ZrOX4JQVxGZpdAGnpTRoqymnEOqwinwoZ5mrwi5gkiRKBih4tDhl1T3TusHSAEmZW1Fo1RvFRzXUDZ599137bV4bepB9IbdxaJMGAW1tPMo6ECDpjoP/7FXYE/BmdWrV9veBwVcEuX9HQ1pS1TOrCdvG4l28ud91rHWm/f/q0C3RxlUkmyvj5f2qxOXF154IeZFgdNkaEjP2Wefbde13q+2EW3PifCK8qcqsw8oCDfeeKPN6ggiL1siqAe/OqlRIFyTCgSRhrprOH1QBf3kQa/NO/4JolNOOcXMnDnTnmAHjY5TlO2uDrOgUlAnqNufjrdVhiAIBdkjUTBRnZHe5EFBE6SC7JGoQ1nHl0Hs9Fm7dq3tkNLnG1Q6J1I2oDoGgijo2x+Cq9CeQWq4koZYJBJx9+oDBTmlWymhyhLyav/EEun9aGY0BVA0VDDnMLNIND5bWUGqfVTQvck5T7I0DFDvTZR6ncyPmXfQ4mU+JULDEkXvTTTMTj2DCshE4tXSUlZcNArUSfjMet5trcdItEOONLzTy07Te9JsG+3atYt5SdTQoUPtEEcdMPfp08f21sYbXhfOW8dBPVAEIlFWXxBPXvX7rJOvSMN7g0SBiSCevGqo9llnnRWIuoXR6LdSWbbq8AmaINaHiSSos4wFtT5MOB1bKSMhvARAUKiGkjLagkxBRXXuJTN7cCqoto6OozWbc5Dp8x0yZIhbCg5te3mtK5tKt956ayB/+4JYVxGZo9AGnrwggoYVaSr6WFTfRo488kh7HUQ6wBb9iMfqfVZQwcvcCk/BVfDIC1JoGv9YxdQVYFHmlCjdODyLxy/qHVF2ldx3333ZsrVi0Y+feDWPEqGhdjoZUEBIw1yURabi4NHS5b3aTirg7mX9hFOdB/0dUQ+tx9sGVSdA02vnpGEiem5OxxxzjK0xoM8yWm/bAw88YMeBJ9rbqvH2Kj6vgxXVlMlLT4VOVOTAAw+010Cm0AFctKHU6aIsLGVjBZ1ObpS1qaEdQaHfTXUsaf8UdDr58moZBkmm9FjXq1fPBsiCNMQ7yPVhcurevbs9XggSTdgStILskSioqAln1EkXJKqtkwnfXR07q9apJkAKCnX2qjaqV5c1yDQaQZMaffTRR64lGIJaVxGZodAGnjS0TAXDRemU2vHmLKyt2j3qTdNQLwnyScANN9xgqlSpYgMsKgqtbJ2cQ7jUC6IAjgpH77bbbrYWUDj9WKhdtaA0i5lmXcsZ+FBdKO0slBmlouyxxt//999/MS+RgiqxqBfCCyTptScSTFKqtniFvBPlHTAqGCOxaqyoTswBBxxgh5xo+KbeWzgdwGu8s3YS4TNT6XM6+uij7Y5O/0/4+tDf0slwJKo5pjpYoppdOugOp5oNqo2g4KH3/mPRdq5hmqKCo6pJlvOz8i6xPjNvHWvbATLJsccea+vHefXT0i3otXVy0u+GfueCIsi1dXLSyfXJJ59sOxqCQkFEDbcOcmdbOB2HqEMqKIJeHyacOh3VCfnJJ5+4lvTSMYZqJ+lYKhMo8KRRAsmUgPBTptXW0XFukAKfyt7NpKCJzv2CVCogyHUVkSGydgKFztatW+31n3/+GTr00EN1Jm0vxYsXt8unnHJK6LDDDgvttNNO2+/L+mLb54TbY4897H2jR492Lcnp0aOHff5ZZ53lWvJn2rRpoQoVKmx/zVkHtKGjjz46lHVQG9pvv/22t5ctWzb06aefumdlN2PGjFDVqlW3P7ZGjRqhs88+O9SiRYvQgQceuL197733Ds2dO9c9a4cPP/xw+2PiXZ566in3rOzPi2X69On2c9LjGjVqFPrvv//cPZEtXrzYPjbrBCS0adMm17qD/obuz/n5zp8/f/vr2X333UNZBxXunm3atWtn79NnKHpdWt9q07bzv//9L5R1IhY66aSTbFvJkiVDY8aMsY8Nl3WQEKpYsaJ9TNbJr33OLbfcYj8D/b+lS5e29+X8///55x/72eo+fZ6dOnUKZR14h6688srQLrvsYtubNm0a2rJli3tGdH379rWPT+Si1xfJ5s2b7f+bdaAd+uOPP7Z/x4BMMWfOnFDXrl3dUnp179499Nlnn7mlzJB1ABz6/vvv3VL66DfvjDPOyPWbGWQbN260v9dB0b59+9BPP/3kljKDXrP29+m2evXqUJMmTdxSZli7dq09xguCF198MfTEE0+4pcwwduzY0LBhw9xSel1wwQWhZcuWuaXM0LZt29Dy5cvdUvosWbIk1KpVK7eUOR555JHQhAkT3FJ66Xx23bp1bglIXqEOPIkO+Pr37x86+OCDc51kK/DUsGHD0NSpU92jswta4EmWLl0auvrqq7MFj7yLAhSXXHJJaOHChe7RkelvdOnSJVSpUqVcf0OBLZ2crVq1yj06O78DT9K7d+/tj9VnF0+DBg3sY6dMmeJadogWeJK6deva+6699lrXskPOwJPMnj071LhxY9sefjn99NNDX3zxhXtUbnreaaedlu05tWvXDn3zzTehKlWq2OVIJ1E6WNTJXpkyZbI9V5/zjTfeGNqwYYN7ZGx6feHPj3WJFnj6+OOP7f16H0LgCZmoQ4cOod9++80tpYd+fy+88EK3lDl0sqPfxXR7/PHHQ6NGjXJLmWP48OGh1157zS2lj4KH6sjINPPmzYu4r041dTpFOtYIukGDBoUmTZrkltJDxzkKGifSYRY0zZo1S/iYyy/qUA4/Js0UOgbu1q2bW0of/X7MnDnTLWUOdaoHoeNC+6/Bgwe7JSBviumfrBPKQkVvKVIKtIaYaXiShjkoVVXDpxKZRj6I9B5Vo0h1D1Skdo899rC1ODRMK1EaWqWi2KoZlXVAYP+GCpMHuVhmJKq10KJFCztDYbKzvOWF1rlXaFz1jrTeErFo0SKzYMECu80dfvjhrjU+DanU8Dptt0pv1WeU6iEmqiWl2lBa1yqGHO07BgSZhq1qyLHqA6XL9ddfb4e+1qlTx7VkDhUav+CCC2wdunRQbR39/qhuXqb9/mh/27x5c1vfJp0zg2rokOqdhU+EkSmuvvpqO+xOZQDSQft+vQbVTMw0mnlXk5WMGzfOtaSeJvvRbL85y0BkApWhmD17ti1/kC7nn3++nZk4Eyd40T6vd+/eafvd0fBi1cXSxEmZSJMZ6PhfQ8zTQfsvlR3RBFfJTEoE5FSkAk8onPR5q1i4gjqqC1W+fHl3DwqCpp6tVq2aDdSqELu+W3zHkKlUb01T8NesWdO1pM7ChQtt8OaFF15wLZlFMwPqxPvll192LamlIt2qA6gTsEw0atQoewCvOnvpoNnNtO2pnmIm0vdHM7LqJCwdNBOW6kOq4HkmUuBHtUI1mUqqKfCl720mBo09Cror8JOOouiacEd1AVVvLxPp+FwB72HDhrmW1FLgS7Wd0rHfLwjp7rjQdq/ZHcPr2AJ5UWiLi6Po0EHMXXfdZWeO04EVCpYO8tevX2969epFsAkZT4Gffv36uaXUypTZiKLxChV//PHHriV1lNmrWWozNegkXqHiLVu2uJbU0nav7T9TqaBy2bJl7QQqqaaMZWWHZ2rQSXTSqMzldPQ3K+CgguKZfAyhbKd0FXrW/6sOk0yljkt99hplkWr6vdBIjkwNOolevyZBSkenlUZdqNPksssucy1A3pHxlCKaCUDBkWTpQEE9zIhPM/p99tlndjiNZphD/mnmIx0wnHDCCWb8+PGulaxCZDbNtKOsk1TO6qVZR9Xjm65sjYKiIHS7du3M2LFjXUtqKGin36FMmQkwGg110rD/VM/qpWChhgsFaXbCvFi6dKnp0aOH7YFPpc6dO9sZpg499FDXkpm8E9dUDndT0Lh169Zm4sSJriVztWnTxg7VTuVwN5U40HFtkGfeToQCt8rYUvAzlbS/0mx2mTITYDQ67lbHi4b6lixZ0rX6b+jQoaZq1ap2qC6QX4U240lf0CBdFK1Wem6yF42ljfT3uOS+KNtJ1/fee2+u+7jk7aJ1qfRab916FyCTKeVeB6KppBP+TM528pQpU8acfvrpKT2JVH27GTNmZHzQSXTioI4oZeimkmqbde/e3S1lLg37Vl3FmTNnuhb/KUtDQ8UyPegkOgnXUFnV9UyVwYMHm27durmlzKZ9h75LqaLjLWWLdenSxbVkrurVq9uhnirZkCrffvut/T8zPegk6uzt2LFjSjuv1NGkuk4EnVBQCmXGE4ouLzCSzuKthYmCTtrZkd2EwkYZqOecc445/vjjXYt/dJKsg8UhQ4a4lsym1HsVOU1VoWIFTFSXJhWfVSpoyOA333xjbrnlFtfirwkTJpjvv//eZvoVBitWrLBF+jX8IxU0xES1pdJV1LygKVtRhdI7derkWvyjunBaf+ksal7QlC370EMP2SwQv7344ov25F8Bh8Lgr7/+skMG9b5SQfupxx57LCWfVaqo1tPo0aOTmkwqr+677z47EcrZZ5/tWoD84ewchYoCJASdCo7WJUEnFEY66dfJQyoo2ylTi8JGokxczS6nekV+09AqDTMpLEEnadSokfn888/NmjVrXIt/1BGjgKeK6hcWymDQjLLTpk1zLf5RdoYmLCksQSfRLMAaOp+KWmM6cdXQyMJEddJSkTGrrDQNKS1MBZ132203W77hyy+/dC3++fTTT+1kFIUp6CTXXnttSoq0K2isdUjQCQWJjCcAQJF05ZVX2pmy/FS5cmUza9YsM3XqVHvCXFhoemqdEGkYuZ9UTFr1VJ555hnXUjioFz4V0/KrIPy8efPM9OnT7VT2hYXqOSqY6/f2t3HjRltbTPXZChNlcPk9SUCJEiXMTz/9ZIMnJ598smstHFIx7Ff7C313lR1ZmLz33nu2jIPfncQazqygSWEY4h5OGZ8a+ub3+vPqSL399tv2GigIBJ4AAAAAAADgC8YkAQAAAAAAwBcEngAAAAAAAOALAk8AAAAAAADwBYEnAAAAAAAA+ILAEwAAAAAAAHxB4AkAAAAAAAC+IPAEAAAAAAAAXxB4AgAAAAAAgC8IPAEAAAAAAMAXBJ4AAAAAAADgCwJPAAAAAAAA8AWBJwAAAAAAAPiCwBMAAAAAAAB8QeAJAAAAAAAAviDwBAAAAAAAAF8QeAIAAAAAAIAvCDwBAAAAAADAFwSeAAAAAAAA4AsCTwAAAAAAAPAFgScAAAAAAAD4gsATAAAAAAAAfEHgCQAAAAAAAL4g8AQAAAAAAABfEHgCAAAAAACALwg8AQAAAAAAwBcEngAAAAAAAOALAk8AAAAAAADwBYEnAAAAAAAA+ILAE9IuFAq5W8gUfGYAAAAAgEQUyzqB5AwSaaVNsFixYm4JmaCgPrMVK1aYtm3bmv/++8+1oDBas2aN2bBhg9ljjz1cS9H177//moYNG5pevXq5lsS8++67pmfPnmbXXXd1LUVX+fLlzdixY91SYjZu3GhOO+00U65cOddSNK1du9Z06dLFXH755a4lMWx/22if9c4775iqVau6lsScd955dhss6qpVq2ZeeOEFt5SY5cuXmzPPPNPsttturqVoWr16tbnttttMy5YtXUtinnnmGfP4448X+d8+HbfWqVPHPPTQQ64lMb/++qtp1qyZ2X333V0LMsl3331nDjjggCK//SfrwAMPtL/XvXv3di0Fg8AT0o7AU+bhM0MyvvrqK/Piiy+agQMHupaiTScOOhFI5uT1nHPOMa+99popW7asaym67rnnHnPssceas88+27XE9+CDD5patWrZE4iibOvWrXZbevPNN80uu+ziWuM766yzzJgxY4r89vf111+bp59+2gwZMsS1xDd58mR7GTBggGspum655RZzwQUXmBNOOMG1xHf99debK664wtStW9e1FE2bN2+2Acy3337bFC9e3LXGpmCnfvP0nJ12YpDLJZdcYvcf++23n2uJT9ve7bffbmrWrOlakCk2bdpkmjZtajsLOGcJBn6FAAC+OuaYY8zixYvNH3/84VqKNh3E3nvvvW4pPp3wq8efoNM23bp1M4MHD3ZL8SnjbsqUKUU+6CQ6+ezcubMZNmyYa4nv5ZdftgfvbH/GBj9WrVplFi5c6Frie+CBB2ymCoxdD/fff79bik/rWeu7qAedpFSpUjZDXBlMiRo6dKj9vhN02uauu+5KKoPjhx9+sOudoFNmevLJJ03Hjh0JOgUIGU9Iu5zZM4pQ6yRhxowZNsVaB7s1atQwjRs3tj3Wkfzzzz/m/fffd0vZ6W+rZ1cpg4cccogpWbKkuye7jz/+2B7gHHroofneyaxcudJ88sknbsmYBg0amEqVKrmlyDQEZ8KECW7J2AP9SAcL8+fPt9F7pf9q2ESVKlXsQZl6/xM5McjL+pXw9XPQQQfxQ46kKN35iSeesAfCMObiiy+2WTh77723a4lMv4/KNhk3blxSGSqF3aBBg2yvdYsWLVxLdHfccYcN3Ol3GNu2KWVOKKAUb/iBhkE3adLEvPXWW/YEDMbMnTvXDtfRSU08+t4qS+ruu+92LdC6OOWUU0yjRo1cS3Q6abz55ptN7dq1XUvRpu+jMhbHjx8f9/uo4+LWrVvb40qO13ZQIO6GG26wx7LxKNCnQKmOkZFZVN5BxwfK9mP7DxAFnoB02rp1q7sVCr3wwguhqlWrKhga8dK4cePQ/Pnz3aN3yDoQjPj4nJcyZcqErr766tCaNWvcM3eoX7++fcx9993nWvJu6tSp2f7fIUOGuHuimzRpUrbnbNy40d2zzZw5c0JZJ0/ZHhN+yTqBCPXt2zeUdWDinpFbXtevhK+f8M8MSFS7du1Cv/32m1sq2vR97tSpk1uKTt/ZYcOGuSV4sg4qQ2eccUbc36Lly5eHmjdv7pbgeeedd0K9e/d2S9E99dRToaefftotwXPllVeGfvzxR7cUmbbN008/PbR69WrXAtH6aNKkiVuKTuu3Q4cObgmeV155JTR48GC3FF2fPn3s9xzZLVy4MNSmTRu3FN2MGTNCXbt2dUvINAMHDgyNHTvWLSEoyL1EYKgGjMZfKwunfv36tviuhgP079/fXHrppbZ357333rO91rGG7KgX7dxzz91+Ue+Qivnus88+Zv369TbrIuuEJaUFrdWzHM9LL73kbuWmDCetE9WJKF26tC0Mqxoxzz//vOnbt6/NeFLv1v/+9z/7flWEMqeCWr9AXiU7xKwwU2+rsg+VwRiNfqOeffZZk3Xy5VrgUfaXasXEK1Tcr18/u90hO2WAKetVWazRaPvMOsm1+wdkd+edd5qsE3u3FJnWnfbHFSpUcC0QrQ8dZygbLBatX2UrIrsLL7zQZjHpeDYafa+//PJL+z1Hdspeql69upk+fbpriUz7DobIZqZ169bZ86bmzZu7FgSGC0ABaaNewawD3FC1atVsRk2PHj3cPdn98ssv2x9z1VVXudZtwjOeli5d6lqz0//z6KOPbn/ciBEj3D3b+JHxVLp06VD58uXt7UWLFrl7c1N2U9bBWKhs2bLbX5+X8fTDDz9sb1fGU7T3p14w/X96XNYJmWvdJr/rV8h4QkG45JJLQgsWLHBLRZvWg9ZHNMo2eeaZZ9wSctqyZYvNetJ1JMqua9u2rVtCTtpPde/e3S3lph7jMWPGuCXk1KVLl9DMmTPdUnb//vtvqEGDBqH169e7FoTTetHxTLRjCa3Xa6+91i0hp4kTJ4b69evnlnLT91rfb0T2559/hpo1a+aWcvv4449DPXv2dEvINPfff39o/PjxbglBQsYTAmHOnDlm6dKlNusmWuE/1fNQTRQZPXq0rVORDI3xzTqQsdlP8vrrr9trP+n9eAVtY/1/kyZNsgVwI0Xnr7nmGhu9P+mkk+y4/mhT0rdq1coWIRb9X+H/XyrWL5AIZeWpJxHG7L///qZ8+fJm1qxZrmUHzWCkjAllKSKyEiVKmPbt25sRI0a4luw0e5EyUxCZ9ik///yzWbZsmWvZQRm07777Lj3GMWjbUsZxJMpGbtOmjc1QRm5aLzo20rFGJPruku0UnTLpPvvss4jZ7fo+L1iwwH6/Edluu+1mjjrqKPPBBx+4lux0LNy9e3e3hEyi2rcfffSRHfGC4CHwhEBQEThRsGPr1q32diQqoK2pTVUc0HtOso477jh7vWjRInvtt4suushe6yQyGm+YnQoOh/vmm2/Mhx9+aG9r+uZohdE9Wj8KQMmjjz5qryWV6xeIRQXstQ3+9NNPrqVo08mVTrJyUuFiDbFLdNrsokq/rwq4a9rwcD/++KPdzjShBKLTMMRI29/AgQPt7IEUZY1uzz33tB02n3/+uWvZZsuWLQyRTcBVV11lnn766VxlD7Q+VRpB6xfR3XrrrXbGxJwUDGWIWHwqWq9JAnJSR7DOE3bddVfXgkyiGW9VPB7BROAJgXDEEUfY2dV0wHbllVdGrTuhXoqRI0fa3ogyZcq41uR49YsqVqxor/2mMfaa0e7TTz+NGOzSOH3NGFSnTp1cM7doNgbRydPRRx9tb8ej+k+iiP+SJUvs7VSuXyAesp522GuvvezMduH1JhT0Vf0TL4iM6DTzZ5cuXcxjjz3mWrZRfRhtZ4hN9QG1P9C09Z4VK1bYmdioDxOfTvBVJzGcMvDUgaMMY0Sn9aOMTgWfwt13333UZUuA6mRpuv8///zTtRj7Pf7777/t9xqxqdaYRkCMHTvWtWzzyCOPmBtvvNEtIZMoA3DatGl2JmAEE4EnBIKGm3hFh5V6rZ4uTff88MMPm6+++qrACoH/9ttv5o033rC3Tz31VHvtN2UpeVN+Rxpup6CTgk+atjUn/YCKl6WViNNPP91eK7tp9uzZ9naq1i+QCA0x00mHDpqx7eRVJ1seZSted911ZJsk6Pzzzzfvv/++HR4myhRVEH3fffe1y4gt55Ax7St69uzplhBL5cqVzbHHHmu3P1Hmnfbz7dq1s8uITetJ2eAaWixajwqaaL0iPu07wifsUMCd4cWJU/kNTdTjlZbQd1eZ/+qoReZRBpsy2RBcBJ4QGEqNVM+X0ls1m45m7VCvgw7qqlSpYmfyUM9EvNpD3377rQ2meBfN7KFaFTqxO/HEE20tJWUg6cQuVbwhdJFmt/NqHKgeRE6agU6SSTlXppICTRI+O11BrV+gIGiIGTPcbaMgyeGHH26mTJli6xNoeG3Tpk3dvYhHAbquXbtuHzahIAoZE4lTpq2GJWp4ovYZysw9/vjj3b2IR0MSNTRRlHnXqVMnhsgmSOupY8eOdoZd0Xok2yRx9erVs/U79Z3V91dyZs4jOm92VM36rN/A4cOHm6uvvtrdi0yycuVKM3PmTHPaaae5FgQRgScEigrFageqYIxSsDXlqSh9Uj0RLVu2NCeffLJZvHixbY9EvRUKpngXZQtpyIB6hnRQrZ40ZT1Vq1bNPcN/SufVyaVqF4QPt1MQbOLEibYIpGoa5KSi4pJs74v3+JyFJwti/QIFQdkoSnX/7rvvXEvRpnodAwYMMIMGDbInskiOfuPV0aAJGDQ0OdokDIhMwxJV60mTT5AxkRz9julkR5k7kydPtp04SJzWl8oKvPrqq3Y9an0icV6dQAXc+e4mT+UnnnvuOXvRtqhgFDKPSoToOArBRuAJgaOMHWX/aFYYBUDmz59vU2G92eg0k0fjxo23p2bndOihh9rZKryLaiNpLLxSutWr9ssvv9jlVFKvnnpV5LXXXrPXogCY3kfOouIeLzgWaeaSWDTGXyLVscrv+gUKCllPO+hkS0HyqVOnmjPOOMO1IhnqXLjrrruYjSgPVCRbmWPq7FBNQCRHGdTKqqYge/K0vq6//npz//33pzQTvbBQtqyynrQP0fcYyfFmR9X5gWqzIfOoztm8efNsxzmCjcATAu/AAw+0qa8a+696SNpJzJ07d/tMcDlpelQNt/MuKpKqoSsvvPCCna0tXb1p3ux24cPt9B5UHDdaEWHVwpFkauEokOTN8HTwwQfb61iSXb9AQVHGXdWqVW2mCrZNNKB6awx3zRsF6HfeeWc7lBjJ03rLOTsgEqOJO1S3LtlOImyjbHStP61HJE/rTfsP5I1GH6iD+N9//3UtyCQKWtPhlBkIPCEQmjdvbgMgSlOPRQWxvcwh1W7KJCpmrgwmFQzXzCOaOUi1pxo1amRPviNR0VxR4CzRA1oFj0QBNg01lKKwfpGZlPWkg4aiTvUJVKNDQ4VVfw3JU1F2ZdCxPSXvp59+MuXKlbMzLBIITt6QIUPscEXNaKdaMUicTvafffZZu/60HpEcTaZQs2ZNGzjR9xjJUXa/6puqttiTTz7pWpEplO2nc6r69eu7FgQZgScEgnobFixYYKcQj8cbPpZpUxUrs8mr/aCdnGoqKbsh0mx2Hk0Juvvuu9vhD4mcTCk45RU5veyyy2z2khSF9YvMpFo8NWrUMNOnT3ctRZPqO9100012lp2hQ4e6ViRq0qRJdvII1YjR7KXLli1z9yARCtipIHvOGRYRn/avGqJ+7rnn2s4i1SpC4hR00nHQOeecY9ej1icSp+9rjx497PeXoevJ06Q7Gmqn43N1+pD1mVm0zWu/hcxA4AmB4AVfnnrqKfPxxx/b25EsWbJke42kU045xV5nEm+4nd6DCpEquNOiRQvbFknJkiVtL77o4GLUqFH2diQbNmywtaJUPFyZVXfffbe7p+isX2QmTd1elLNUlP04Z84cmxWpGmyqQUfWU3L0O6mZO0Xb0wMPPGBvIz5lSahjRFmxCgRrogsyXhOnLB1vQoCrrrqKrKckeNlOWm+i2SnJekqcsp0067Eu+v6qXpbKLSAxynYaM2aMPTbXuuvQoYP9/iIzqE6tZv9WLV9kBgJPCARl59StW9fWmFCR6y5dutgZ4DS1uLKClEb5xBNP2OK7GpKixzZr1sw9O3OoR15DGT799FM7fE49fJEKgIdr3bq1nW5YdV9UIF3FDzVlqEcBJ+04NaxOM8MomKXC4VWqVHGPKDrrF5lJWX21atWyhbWLIgVJbr75ZrdkbKFdTcuOxHjZThoqJvot/P33320KPuLzsp08yp4gcJcYL9vJmxBAM2I1adKErKcEqfamTvq9DGvNTknWU+K8bCePhq7369fPLSEedcbqmNqbEEBZTypXQdZTZtC+S9s8MgeBJwSCDjomTpxojj/+eBsI0ewSOpFQnSINF9PU6yoMrmyeOnXq2GwA9dBmGu3cVEhcQaR4w+zCDR8+3J4I6D0/88wzdh3oAHe33XYzZcuWtXWZvv/+ezujiTcrXbiisn6RuXTwrOlwixrNxqLvrrKdPPpOK+NQgWTEpwwJL9vJo6yn/v37uyVEo+wI7ZeULeFRzUHtE4r68NdEaNtTlk447Ut1QkvWU2zKdtIwJy/byUPWU2I0eY6y25Xt5CHrKXHqiH3zzTftLM8esp4yh4bUawZvZmHNLJxZIjCU4q+gyejRo22vg2a80lAzqVSpks3U0c5gxowZdmcbzhueoovXc5YsZfno+RpmkF/KYtLfijS1p7KPdJ/ej4p5hytduvT295Ez8HPrrbfa2e2UDaFCkkoR1hAdnaTq8cqQ0AnsMccc456RXX7WrxTk+gFy2nXXXc1RRx1lpkyZ4lqKBgWU9d3OSdOKU+spPmU7nXTSSduznTz6vVKdJ82WheiUHRGpx7ioBoKT4WU7KUsnnDqFNEmA6jgiOpUO0El/zmM2L+tJGdmIToF1Bdhz0veZoHt8Cg4ryORlO3m8rCdmRw02ZTtpQgJklmIh5m1GmmkTzPnDH07TxHoBEuyg9abgk6YPz4+8rN94nxmQFzqR03BSHfQVBapNoDT/aPWc7rnnHjv8NeeJLXZQQeeXX345V+BJNCRZJxdkT0SmrAgdvI8cOdK1ZKeAaMuWLc0JJ5zgWhBOQbt69epF/H5qCLw6ljRzLdnDuSnzWpnZ77zzTsTOQrWrE4xhNJEp20nZYo888ohrye7KK6+0w2cPOugg14JwGkqn2Z6VVRzpWFY1WJWNrMk+EDyaLKlPnz52BAgyC3tDBB5Bp8i0s8xv0ElYvwgKDf3UlLg66SgKlO0UXp8jJ4acxKbtJFK2k0cZdDp5UAFS5KasiFgn9to2NdsiclM2TqRsJ4+yl8l6ik6Z1yo7EC1DXTP6kvUUnSbjiJTt5CHrKbYnn3zSDvGM1oGqbZOsp+BSp9ydd97plpBJCDwBEag2g3Y4yV5UswBA3ml2qMGDB7ulwkvDwHLWdsqpfPnyNuPpvffecy0Ip6Cchh7HwglYZMp2UuZqeG2nnFRDUBkTmgwD2ek3KmddsZyULaF6itR6yk7rQ1l2GuYUi9ZvUdgXJEvZTvpuhtd2yknfa32/qfWUm7IRx48fb4fURaOAlLLGlDGLYJk3b579fMjmy0wEnoAIXnrpJVunIdnL3Xff7f4CgLxQ9oqCMdGGnxUW8XqsPcp6evjhh90SPMp20gQJCs7FosKjmqlTEydgh3jZTh5lPT300ENuCeJlOykrJxbVnlRGFFlP2SnbSROixMvY1vr1Zt/FDtp3hM9CGY0eo1nvkJ1mcNYEAPEo62ncuHG2UxnBoSHO1HbKXNR4AiKYPXu2eeONN9xS4jQTlQpwA8i79evX29oy0eovZDpN89++fXtbGDsRvXr1ssX/TzvtNNcC1c9RB0G8wJPo91yTL+iC+LWdctIJ7DnnnGP3b9h24nPsscfGDTzJunXrbB2yDz74gFpPWZTtpCGIGsaUSKkAaj1lp2wnTQKT6BBsaj1lp2ynFi1aJLzvpdZTsMyZM8dmQSp4iMxE4AkAEDjK8tGU7jpILGyUxaTAWqJB6tWrV5tLL73U9r7CmMmTJ5svvvgiqRoPl1xyiQ22MCunsbVNlG2X6MnoqlWrbBH8vHTGFDbKvrn44ovtUJ1EKbtM61oZFEWdJgLQibxm7UxUMkHmwu6iiy4ygwYNijnMLpyCzMp6YsjYNsre1KzQ559/vmuJTafICpRq31sQNVWRP9qP6/e0Ro0argWZhsATACBwNOtMs2bN7MxahYl6XIcOHZpwj6tHqeUKmuy///6upejSyYN6opM5EVU9LRUkVQZAUaYgpoaxJprt5FGQT4Hgor796QRUGUyJZDt5/vnnH9OkSRObuVjUaUKFRLOdPMp60jabaLCgsFJdwGnTpiWc7eTRb5622YoVK7qWokmnuwMHDrSZ1MnQvubrr7+2szAifTQLsIY4P/roo64FmYjAEwAgkKZOnVooCxtrGueDDz7YLSVmzZo1Zvjw4XYa8qJOw5waNWrklhKn2jK//fabWyq6Lr/8clOtWjW3lBi2v20qV65sOnbs6JYSpwkCvvrqK7dUdJ188sl2JspkaWjN33//7ZaKJg3VVEF2bYPJWLJkiXnuuefcUtGmIcNHHnmkW0qMTpM1TFsBZKRPXrd/BAuBJwAAAAAAAPiCSocAAAAAAADwBYEnAAAAAAAA+ILAEwAAAAAAAHxB4AkAAAAAAAC+IPAEAAAAAAAAXxB4AgAAAAAAgC8IPAEAAAAAAMAXBJ4AAAAAAADgCwJPAAAAAAAA8AWBJwAAAAAAAPiCwBMAAAAAAAB8QeAJAAAAAAAAviDwBAAAAAAAAF8QeAIAAAAAAIAvCDwBAAAAAADAFwSeAAAAAAAA4AsCTwAAAAAAAPAFgScAAAAAAAD4gsATAAAAAAAAfEHgCQAAAAAAAL4g8AQAAAAAAABfEHgCAAAAAACALwg8AQAAAAAAwBcEngAAAAAAAOALAk8AAAAAAADwBYEnAAAAAAAA+ILAEwAAAAAAAHxB4AkAAAAAAAC+IPCEtAuFQu4WMgWfGQAAAAAgEcWyTiA5g0RaaRMsVqyYW0Im4DODH95++20zYsQIt1R4XXnllaZJkyZuKTHz5883d9xxh/nvv/9cS9F1wgknmJtvvtktJe6GG24wf/zxh1sqmvS7feutt5rjjjvOtSSG7W+b8uXLmyeeeMKUKlXKtSTmoYceMp9//rlbKrrOOOMMc/XVV7ulxGzevNl06tTJ/PPPP64Fnjp16pg777zTLSWuZ8+e9jtd1F133XXmtNNOc0uJWbRokf0N3bJli2spmkqXLm2GDRtmypUr51oS8+yzz5q33nrLLeVdyZIl7e9q9erVXQsyAYEnpB1BjMzDZ4aCpm3q7LPPNqNGjTI77VR4k3G3bt1qLr74YjN+/PikTl4vueQSc/vtt5s999zTtRRdCjr16NHDHHzwwa4lvrFjx5off/wx6ZPewmb9+vWmY8eOZuLEia4lMe3atbOBp6K+/U2YMMGsWLHCdO3a1bXE99NPP9kT/aeeesq1FF2dO3e2J4t77723a4nvkUceMVWqVDHnnnuua4GnV69epn379uaYY45xLfFNmTLFvPvuuzZ4UpQpcHTppZfaDq9kjjkUBNVv6EEHHeRaiqaPP/7YfPfdd+Z///ufa4lPv53qeHvmmWdcS97NmTPHvP7662bQoEGuBZmAwBPSjiBG5uEzQ0F75ZVXzMqVK+2JSWH38ssvmz///NP2tiZi5syZ9qR1yJAhrqVo+/XXX20v/wsvvOBaYlOw75xzzjFvvvmm2WWXXVxr0TVgwAAbtGvatKlrie2rr74yzz33nA0AFHXa9ylbUSc8ZcqUca2xtW3b1gbtDjvsMNdSdM2ePds8+uij5vHHH3ctsSlQesEFF9hAKcccuS1fvtzuM8eMGeNa4tNvofZBFSpUcC1FlzKsS5QoYS6//HLXEpuyxO69914zcuRI11K0aR/y/PPPm0qVKrmW2NRp1KpVK3P88ce7lvzRb8Pw4cNtYBqZgRpPCKS1a9eaqVOn2l7qyZMnm++//97dE5lOLFavXh3xsmbNGpuqHY/SuPX4TZs2uZa803CE8Neg15eI8Od4EnldGj7ywQcf2IMP9WYpFThZ6v354osv7MnZq6++aj799FN70Aekgg7k1HNbFLRu3dpmPG3YsMG1xNavXz+b7YRt9ttvP7PrrrvagFwiFKDSOifotM21115rhg4daoMoidD2p8AJtg1V1JDNhx9+2LXEpkCLhoQQdNrm8MMPt8cyP//8s2uJTetZ65ugU2RVq1a129aHH37oWmJ74403zOmnn07QyVHA6cUXX0x42FyfPn2SyvAp7Lp3727uv/9+txTb4sWL7blKQQWdRL8NZDxlmKwDDyCttm7d6m6FQnPnzg2df/75oRIlSuiIONtlzz33DGUdAIc2btzoHr2Dnpfz8TkvlSpVCp1xxhmh0aNHu2dlV79+ffu4++67z7Xk3dSpU7P939H+z3Bff/11tud47zPW65o0aVLomGOOyfY875J1gBd69dVX3SOjy9oZhDp27BgqV65crr+RdaIWuuSSS0ILFixwj94m/DMD8mv8+PGhBx980C0VDW+99Vbo3nvvdUvRTZs2LXTLLbe4JXiyDmBDF154oVuKbvPmzfZ3P+vEwrVAhg4dGso64XJL0WWd0IZuv/12twTPeeedF1q1apVbiq5ly5ah+fPnuyWI1sdll13mlqLT+tV6Rmx///136JxzznFL0em4rVGjRqF169a5FoiOz4cMGeKWops5c2bommuucUvwtGjRIrR8+XK3FF2nTp1C3333nVsqOGeffXbon3/+cUsIOjKeEBhK5z/22GPNuHHjbOrrqaeeanupzzzzTLPPPvuYJUuW2F7Xs846K2b2jwrelS1bdvtFyxq/nbVztuPaL7roItvjm0pKa47npZdecrcSo/RS1cTRetttt93sba0vrTdlA6inVSmtt912m3tGbsqSOvTQQ82TTz5pM6uOPvpok3VAaOvJqPjsxo0bbbaA2jUOHvCDhl0UhSF24bJOqGxWpzIyY+nfv7+tZ4TsVGto//33j1uwWYWgO3ToYPcp2EE1Sp5++um4xcLVm61ebWSn+jgPPvigW4psxowZZvfddzcHHniga4FofWiYomq0xKL1W9TrECWiYsWKtkB2vILNOpZr3rx5wkNEiwovAzlehr8yP/NSyL2wU/06DT+MRUMUNfLkiCOOcC0FR3UbH3vsMbeEwHMBKCBtvOyZo446ymbZNG7cOLRy5Urb5tFjXnrppVDJkiXtY/r27evu2SY842np0qWuNTtl7WTtYLY/7t1333X3bONHxpNeb/HixW3m0Nq1a929uen97bPPPqGddtpp++uLlfG0ZMmS0M4772zbs05Kc/Xmq0cr64Bt+9/6+OOP3T07fPXVV6FSpUrZ+0888cSIPRFZB4ahU0891T6mWLFioQ8++MC2k/GEgjJlypTQ3Xff7ZaKFr33WNkkuv+OO+5wS8hpxYoVNkM2Gv0OnnXWWfxeRfHss8+GnnzySbeU27hx40L333+/W0JOymaK1dPfrFmz0KJFi9wSwmm9tGnTxi3lpvWq9YvErF+/PnTmmWdG/a1T5ufpp58e2rRpk2tBuIkTJ+Y6rwhH5nFs+i5r9EQ0kUZOFBRt8w0bNow4GgbBQ8YTAkGzDaleh8bxK/NHGTvh1K5Mpd69e9vlvES31Tuuv33IIYfY5VQUB1TPUqNGjWzmkHpUosnaqZmFCxfaxyZCdZiU9aXeg/vuuy9Xb77+3wceeMBmi4mmPA2nXm6tT/VA6DGqDxCpJ0LZUMoSUzHKrN8Lc8UVV9j6W0BBUcFijdMvitRLrfp1KjQeiYpA0+MfXeXKlU3dunXNe++951qyoz5MbJqpTvX8ImUQ6/dedaCuv/5614Kc1NN/zz33uKXsPvnkE3PAAQeYvfbay7UgnNaLLqorGYnWq9YvEqPM/pYtW9pZYSPR5BTKZk9mJtWiRMe406dPtyMjIlFGD5nH0akGZbTfQs18p5piOgfzg/bv2rYLYqY8+I/AEwJh2bJl9loBk1izEyglVj9eOmBZt26da02chtxpByNz5861137T1OkSa7idN8zOe2w83vqKNyWxpoqtVauWKV68uGvZ5rXXXrNTPOsgRLMVqfhpNHqMDlrKlStnfvvtN1uIESgIGoqiKYlzBpqLEp1cKXick4a2nnTSSXYYBaK76aabIhYX1QmEhuFpBjJEpv2CpgaPNMOY9knnn3++PaFFZPXq1bNB40iTeeg7HWuYO7b99mkocU5an1qvWr9InKapf/bZZ82///7rWrbRJBaaNVbHg4hOgaVI26Mm7KlTp44taYHIjjzySFuuQzPO5tS3b1/fhyhq5tDRo0fHHTqO9CPwhECoWbOmjVormKSpdqNRbYAFCxaYL7/80tZvygtvJqlU1fzQmHoFdnQiGSlbaOvWrbbXWcG0k08+2bXGVrt2bXutGk3RegxFtZqUTabpTsPp/5MWLVqYPfbYw96OpXr16nbaUvGCZEB+DRw40AYOirL69etvn+0l3ODBg4tsJlgyypcvb2dpUm3AcNTGSoyyJLRvCq9vohNX9R6rDhRiU91JnViFU5aw6iKqvhOi0/qJNCOb1iezKCZPx5mapU0dheGU+XnNNdfk6oBEdjr+1myLS5cudS3bKPP45ptvdkuIRsGlnL+FqmOpzE/VZPSTtn2dzyRSTxfpReAJgaAfJW8qdZ1s6WTsoYceMt9++60NzBQUHVxPmjTJ3taBYSpUqlRpe0H0SMUfP/roI7uj09A3ZWQlQsGsgw8+2P7NE044wfZMq1DsL7/84h4R26effmqvTznlFHudCC9zQDuSgvxMUDRpiJkynfw+IMkEOsnyhhHLmDFj7G9GXoPrRY0mi9CwMA0PE2WE6gQi0UB+UaYOn65du9ogsGfEiBH2BDZWJiy2UeBEQ9ZVPNejYxeGyCZG60llATxeEWKtVyRPWfNjx4615R1k9erVNhCqiWYQn4In4UPGdMzeoEEDO1QMsWl0hfYn6uz26LudqiGzV111lZ0oCcFG4AmBoTpEGqcryuK55ZZbbHBIJ6eaAUonFjl7IhKlAxnVUVLARsEZ/TiqByhVFFQSpTvnpPRQUapoojT87Z133rGp6AoCaeeoNGv1LGj4nVKqFfn3srvCKRXVW4/JjLned9997bX+v+XLl9vbQF5ptixOzrZRfTWdKCibU8GTojjLX35oOJh+271sTPW6quYEEqPh59rnaniitkMFPhMd9g1j/ve//23v6de+WBl4DJFNjNaTZuKdMGGCXdZ61PpE3qjzskuXLmbIkCF2WSf+ytbRMS/i05A6Bes0ZIw6d8kLz3pSJ7+SCFJVSkGlWlQ3M1Y9XaQfgScExs4772zHp6suh6bH9OoXabpxHZRcd911Zp999rEnFAokRaNgiuoReRf9GOlvKzNIPT+iHkntYFJFGUl6DRrSED59uoY0qN6S6tyoSG4yFAjSutLzNQzO65HRsB1Nm6tglx6j2+G0U/Uk04ujQr4eAk/IDwV/lfa/3377uRb06tXLZj2pOKy+z7vssou7B4lQb6eGhynTSb9xyf6eFnUKAisYrBNWnbgmmn0LYzt8lJ04a9Ysu/44UU2Ostw1tHj27Nl2PWp9Iu+aNWtm6xLpt1BlKc4991x3DxLh7YvVedu0aVPq3CVBx3Qa5aGC4hri2a1bN3dPaui3V78lCK5iIS83HUgTbYLRemOUdq2haAoYhQdtdGKmgItHqZ1e3aNoVENJxXoVwIo0xOz444+3s1qoKGh+a4NoKJuGeag3z5slQ7U0lAKtQJBmExL1CKi3WT18ffr0sQcKCkKJep4VrEr0dSmT6ZtvvrHrS9lQOvDwikzqYFjvW9Smv6vMJa3Xxo0b2/Z49Le9kzmtb6XV5kWiwwFReN111102gBzvO1vUqNCzvluapY1hTsnTRAm6KHtWdQORHHWQqFPHG46OxKnDR509mgCFwFPydIyi4yPVo9SxGvJHdbO8YWPKAkFyvH2xjpGZCTA5qlfZpk2btP0WKpB94okn2mwr+Eedo3kplUHgCWkXK/AUTjMm6ITVq0Wh4MqZZ55pb4cHnnQ7vGC2em7VixavB9fvwJOG2enHWD0oXiFc1dHQidIPP/xgX39+Ak85LVy40HTo0MGexCrr6/fff9+etaQDO+0chg8fnnABWe/1az2qCHxeMzIUAIuVsYbCTZlOGtajWmH0JGanTEwFjnMWykZi9DuqIcv6veRkIXnaF2jSDQXukBx15KhjRutO2dVIjo7nNNGEssbItss/zQzYsGFDmxUfa6ZoRMa+OO/S/Vuoc0R9bnntHEd8CjjpfFL1IZNF4Alpp01QQRVlN2kj1rScsWhnqmwe1YB68MEHbVt44En1ixKZqS0nvwNPKmyuWVyUcaSpghVU0rLSylVEXRIJPK1YscLO2KS/odlLYmVGKFinIJM3XNErEK4aUMq8uvDCC7fPcBePhj8qUKVeBB3MUDMAeaVtbtWqVbZXEdvod0HZj/r+q1j24Ycf7u5BolQj8LjjjrMnrhouhsRpeKJmQVUwWEMVqlWr5u5BIlRf7LfffjNfffVVwvtU7HD22Wfb7+4hhxxCfbECoBqm2pfoOFHHjkhc+L5Y+xHVYETiVLdWNbLS9VuoDD+d7zA5SzDRrYBAeOONN8zIkSMjzvqWkzfbiYIqmURZRyqSrmwfvU8NHVy7dm1SRcVFJwbqjVGmlDJHYlGNK9XFkvD15Q31U2q7gl3xaJYor1ZUsq8XyEnDTl9//XXbM4ZtVN9O363bbrst2yxPSMy8efNslpOCdm+++SZZlUlSsEn1ODQDESeqydHvmOqLqYhz9erVzYwZM9w9SIQyS9RxqG1PEyuwX8gfDftUxpO2R3Varly50t2DROjYWp0YGqrIb2FyvN9CZS+qxmy8c5SCpqSEY445hqBTgBF4QiBo6nDROH8NAYtGPREaOiZHHXWUvc4k3ux2qk+lwoWi4WvJUADLq1GlIohaJ9GontLcuXPt7fBMMq1vzSSjulD6/8MLnue0adMm2xOujK0DDzzQDt8D8kPD7RSEJY19G32HVVRcB7sKFCu47H1vkRhlgd5xxx02E/OKK64wI0aMcPcgHv3+6wShUaNGdoiETlzzOoNsUaRe/RYtWtjsYwVPCBwnR5nrCrjr2EaFsCPN/ovE6bdQ61M0acCAAQPsbcSnfbEydtQJpNECKpStovdIjDqzVU5EnUDdu3dP+W/hY489ZkfDILgIPCEQVAxO49CVWaOicDqQy9ljreF0OlnVCdluu+1mgyGZRum75cuXt/UMlAqq8c/qFUjW3XffbU+wPvjgg+3j+MNHzer2+++/b2tgaUeqNPbwQs56rnolNBRQ6bBa56q5k9PMmTNt2qqCfQoWvPjii/QkoEBceeWVBAccfRd1oKvvmOikQScPSIyynTS8TjOaioLpyqJV0BzxPfLII3Yf7FHhf3r6E6MefmVr6/dMVPtCQ+g1GQfi03GHOrS88giqAfnEE0+Q9ZRHChqrnqeO6UTlFXR8qKHtiE/7Yp1bePtiMkATp/OOJ598cnvndNWqVe0sd8q6SwUdB+j8JC8Fr5E6BJ4QCAokKRCj6f1VJ0GzISgQpd5XZffohEKBEwVs9MOioRQaRpZpVJBbMwdt2LAhT8PsPAo2KTtMJ1uffPKJPchQTQ7Vg9JFP/iarU51s1RgT6nDOWmdaoegcexz5syx61kHgHp9zZs3N4ceeqipU6eOmTZtmv3bCmQxSwQKir7HysLTQXFR5mU7tW/f3rVsm5JYPYY6kEJ8OjFQtpNHgfWrrrqKwGYCvGynM844w7UYc/TRR9uMpyVLlrgWRKNOMu0vw4vZK3B37733uiXE4mU7ebysJ+pk5Y1+C8PXp2jIHVlP8WlfrO3OK0UhNWrUsOcaOkZGbDovU+d6+MRDqkvr1eL1m/4fDRdHsBF4QmAoqKETLRWxVuBENYnUa6geMRWq04mqeiI0c5HXm5OJvOF2Chq1atXK3s4L1TJRLQkFijQ0Z/ny5TaQpMtff/1lo/46ANY6VA9sJAcffLDNeNJYdj1+wYIFtv6UdiBazwoI6odcmU8NGjRwzwIKhrIsVFumKFMPqw50vR5Wj04e6GmNT8F1BZo0SUM4TZyg3zGynmJTB0akKa91wsD2F5uycp5++ulcw881REf7Tm/SEESmTi1lfOcsZK+CzprIhKyn5KhMhbKd1PkYTiMFPvvsM7Ke4oi2L9Zx9P333++WEImynfSd1flbOJ176Dvud9aTznlUSF+d5Qg2ZrVD2mkT1IlDOLWp6LV+SBSAUhq2MnfyOoV/YacZ8BQ00vrSwZoKnGp95VyvsWid6yROBy76Gzp4VmAq0tTGkT4zIC90oKI6FN5sjkXJli1b7HDYd999105jn5OG7yiTR5mIiEyZTRoOEWn7Ua0YBeQ1fAe5KetWHSHKNo5EQxYHDRpk9yfITdkR2r7UCZSTMrf1u0a9ouhUF0s1WSINjdEEKqp3l5/OuaJGHTnKos8ZeBJ1KCqzsW/fvq4F4bQvVoBu4sSJuQJP0rlzZzvrtmZdRG7avlQOJVJ9JZ2XaJZF1bb1yz333GPq1au3vV4wgouMJwSSgho6kVANJA0B0JAcgk7Rad1oaJyykk4//XQbMEo2MKTH16xZ0w7j0zA97WAjBZ2AgqRhAKlKxQ4ar7ZTpKCTkPUUm4LtGh4RLWipk9bx48eT9RTFo48+GjHbyUOtp+jU+aKhnAp8RqJefpUO+O6771wLwn355Zc2oBmtHouX9aT1jPg0NFYz2UUKOokKPmv0wN9//+1aEE77Yk3uESnoJOyLYxs2bJj9zkairCdlJCvD0Q+qB/zhhx8SdMoQnFUCANJGmXk6GFaqdFGiHlYV6w+v7ZSTAsE6qNLslMjNm8kuGgXTlTX21FNPuRZ4lEms+oCaeCIazRyrjJ5YM80WVa+//rqtRbTzzju7lty0bfbr188tIZxmu4r13VX5AG2bY8aMcS2IRb+FmkUsFpVN0EQCyE77YmXjeGUwIlEgWXXclNWD7JQlplmyVZ8tGmV/+tXB+MILL9igITIDgScgAhUx9wp1J3PRbCwAkqOsi6J2QKzaMMp20hTssVBfIjJlOykop+BcLMp6GjdunB2OjB2i1XbKiZ7+3JSFo2Bmx44dXUtkmsBDtSnJesru66+/tnU84w3hVAaFMinIeopN2U6Rajvl1KxZMzNlyhSynnLQvvjSSy+Nmu3kIZAcmYbLxtuXKOtJJQMKejIZ/TaoA+/iiy92LQg6Ak8IBP14BOmiHZBmskj2ot7PSH+vsF2AgnTyySfbIvia7bEoUA+reumuuOIK1xKdhs2uW7fOLFy40LVA4mU7eZT1pACBpnnGNl62k2Ygioesp9zGjh2ba/amaJjhLjdlO2m9xKOsJ2WVaX0jOq3PnDPZRaOsp6I+oUc47YuVvZjIDNOabVbH+GQ97TB58mQb8FSAPR5l5Kl2W0FSkkCjRo3iduAhOCguDgBIOx38qec2UqHewsabsUkFSxOhqZyHDh1qexZh7NDDu+66yzz33HOuJTYd5mjYjma5o1agsRl0hx9+uD2pT4RmNVU9I05Yt21LCjq98cYbCW9Ll19+uS26e8QRR7iWokvb0uOPP24zmRKhzghl6ugEM9m6lUXBsmXLbOHmZIYkqhaoskArVqzoWoou7YsVNNFsdonQvqd37962JhS21Q4bNWqUKV++vGuJTcEnTSqg+r0F4YILLjAjR45kW84gZDwBANKuZcuWdmaUwj6FtoaHKWCScwr2WA477DA7FfbixYtdS9GWaLaTx8t60klGUafsuY8++ijhoJMo60kzE7H9GRu8VBAzmQAmQ3R2iFfbKSdlPSnQp/WO3JLJdvJodjaCyNv2xerwSmaYlobPKrtm3rx5rqXo+uCDD8wxxxyTcNBJFHgqqFpP33//vR2uS9Aps5DxBAAIBBX4VG94YaceavXUJUMHWTphYJdtzEknnWR7nZOlAqQMGTOmV69ethhsMtj+ttGQ+tGjRyedOad1/tlnn7mlokszT6nQcDJUn61NmzY2aIrs6tSpYwYMGOCWEsdv4TbKRIw1wUIkynrSPlwzqhZlCgqrZECygR9lbxfE8FnNBqzjRQ2BROYg8AQAAAAAAABfMNQOAAAAAAAAviDwBAAAAAAAAF8QeAIAAAAAAIAvCDwBAAAAAADAFwSeAAAAAAAA4AsCTwAAAAAAAPAFgScAAAAAAAD4gsATAAAAAAAAfEHgCQAAAAAAAL4g8AQAAAAAAABfEHgCAAAAAACALwg8AQAAAAAAwBcEngAAAAAAAOALAk8AAAAAAADwBYEnAAAAAAAA+ILAEwAAAAAAAHxB4AkAAAAAAAC+IPAEAAAAAAAAXxB4AgAAAAAAgC8IPAEAAAAAAMAXBJ4AAAAAAADgCwJPAAAAAAAA8AWBJwAAAAAAAPiCwBMAAAAAAAB8QeAJAAAAAAAAviDwBAAAAAAAAF8QeAIAAAAAAIAvCDwBAAAAAADAF8VCWdxtoFBjUy9YxYoVc7cAAAAAAIiMwBOApOlnoyACT+vWrTOjRo1ySygM/v33X/PXX3+Znj17mpIlS7pWAAAAIH1mzpxpvvjiC7eEvChVqpSpXLmyadq0qWtJHIEnAEkrqMDTpk2bzMSJE81///3nWpDpihcvbvr162emT59ubwMAAADp9vjjj5vNmzeb6tWruxYkq1y5cqZ8+fLmpJNOci2JI/AEIGkFFXhC4fTQQw+ZWrVq5ak3BAAAAChICjjpuFQd3nSMpgeBJxR5Ghq0Zs0aU7FixULxQ5Tf95PI8wk8IZaNGzea5s2bm7fffpvtBAAAAGk1dOhQU7VqVdOqVSvXglRjVjsUScuXLze33HKLqVmzpq1DU6VKFVOiRAlz4IEHmuuvv94sXLjQPTK71157zdSpUyfi5ZhjjjGnnHKKadeunXniiSfMP//84561g6Lt3uNnzZrlWvMvr+/Hk9/nA+F22WUX06xZM/PKK6+4FgAAACD1NmzYYN566y2CTmlGxhOKHNWeOfPMM21Wj5QuXdqOVVVB5K1bt9o2nTiPHj3anjyHU0Cpc+fObim2atWqmXfeeccceeSRrmVbTSP9bZk2bZqpX7++vZ0f+Xk/kpfnk/GEeLZs2WLOO+88UpoBAACQNvfff7854ogjTJMmTVwL0oGMJxQpGgKk4ImCLA0bNjTffvutnVlt2bJlNiikYFCDBg3s49q0aWMWLFjgnpndPvvsY2bMmJHtogDOBx98YH/cNExt6dKlpmXLlvbv+iW/76eg1geQkzLn2rZta5577jnXAgAAAKSOznE++eQTgk4BQOAJRcrYsWNtUGWvvfYy48aNM0cdddT2zB0NLVMGkurSHHLIITbw8vDDD9v7clJWkIbWhV+OO+44c/rpp5vu3bubN9980z7u559/NhMmTLC3/ZDf91NQ6wOI5JJLLrGZcsp+AgAAAFLpgQcesOdmSD8CTyhSfvrpJ3tdt25dU7ZsWXs7JwWVrrjiCntbGT95oSyh2rVr29tffvmlvfZDft9PqtYHiiYNsevQoYMZPny4awEAAAD89+eff5rvv//enHrqqa4F6UTgCUWK6i6JAigrVqywtyPp0qWLWbJkiZk6daprSZ4XyNEwNb/k9/2kcn2gaGrdurUt6KjCjgAAAEAq3Hfffea2225zS0g3Ak8oUi644AJbOFsRcA2PGzRokPnll1/cvTsoaKSgTKlSpVxLclauXGkj7FKrVi177Yf8vp9UrQ8UbZoZ8dFHH3VLAAAAgH/++OMPs3jxYlOvXj3XgnQj8IQipUqVKmbMmDGmQoUK5rfffjM33XSTOeCAA8y+++5r69GMHDnSZvbkhzKH2rVrZzM8NBtcixYt3D0FL7/vJxXrAzj33HPNhx9+aNauXetaAAAAAH/06dPH/O9//3NLCIJiIc2LDhQxioD379/fvPLKKzbbJyedKA8cODBXttITTzxhOnfubMqUKWMLiYf7999/zfLly83s2bO3F1NWlse1115rb4sKdCsYJRrepuLdBSGv78eT7PP1s+EVIQcSMWXKFBt86t27t2sBAAAACpZm4Vbg6ZlnnnEtCAICTyjStm7dar755pvtJ8W6rFu3zt6nANHkyZPNKaecYpfFCzzFc9hhh5m7777bXHjhha5lG78CT55k309OiT6fwBPyonnz5jaLrnLlyq4FAAAAKDjt27c3vXr1sqM4EBwEnoAwmzdvNq+//rq59dZbbRbQ3nvvbaPmJUuWtPd7gafq1aubxx57zLZ5SpQoYSpWrGizgqpWrepas/M78JRTvPcTT7Tn670SeEKytM1re3rwwQddCwAAAFAw5syZY4YMGWIef/xx14KgIPCEImP9+vU2k0dDyRQJj+Xnn382hxxyiB0y98EHH2wfVucFng4++GAzd+5c25aMggw85ff95Of5p512GoEn5IlmuRs8ePD2GRUBAACAgnDRRRfZ8iBKEkCwUFwcRcbGjRvNeeedZ6644grz448/utbIDjzwQBtckqAW187v+yls6wOZ4Y477jD9+vVzSwAAAED+ffnll2avvfYi6BRQBJ5QZKiuzEEHHWRvP/LII/Y6mn/++cfO8iZBHR+c3/dT2NYHMsNRRx1lVq1aZRYuXOhaAAAAgPzRREk9e/Z0SwgaAk8oUlSrSIYNG2Zuu+02s2HDBrscTifFl156qZ36XcPL/K7DlB/5fT+FbX0gM2h62759+7olAAAAIO8+/vhjc+ihh5rdd9/dtSBoqPGEIkWbe7t27cxLL71kl1UM/Mwzz9yexfPTTz+Zd9991wZZypQpY2d1q1evnr1PglTjSfL7fvL6fD2PGk/Ij6uuusp0797dFuMHAAAA8krlQ0aNGmUqVKjgWhA0BJ5Q5Pz3339m6NChpnfv3mblypWuNbsTTzzRZgEdeeSRrmWboAWeJD/vR/LyfAJPyK9ff/3VZj49//zzrgUAAABIzsSJE82sWbNMjx49XAuCiMATiiwFXD777DP7Q6WZ3bSsgnSasc0rpJ2TCmvPmzfPZv+EZw4lSl83pYJK3bp1Tfny5e3tgpCX9xMumecTeEJBuO6660ynTp0iBkQBAACAeM4++2wzduxYU7p0adeCICLwBCBpBJ5QEBTI7datm3n55ZddCwAAAJCYV1991Sxfvtxce+21rgVBRXFxAEBa7LnnnqZGjRrmiy++cC0AAABAfBqd8dRTT5mOHTu6FgQZGU9AGg0YMMD89ddfbilx9957r9lpp/TFjcl4QkFZsWKFLTSuFGkAAAAgEc8++6zZunWrueKKK1wLgozAE4qMIG7qtWvXNj///LNbStzGjRtN8eLF3VJ6EHhCQVGR8caNG5sGDRq4FgAAACCyLVu22JnsVFg83edESAyBJwBAWq1Zs8a0bdvWjB8/3rUAAAAAkWlG7t133920bt3atSDoqPEEAEirChUqmFNOOcW8/fbbrgUAAADIbcOGDeatt94i6JRhyHgCAKTd77//btq3b28qV67sWgAAAIDsNItd9erVzUsvveRakAkIPAEAAmHt2rV2hhIAAAAgEtV0KlWqlNl5551dCzIBgScAAAAAAAD4ghpPAAAAAAAA8AWBJwAAAAAAAPiCwBMAAAAAAAB8QeAJAAAAAAAAviDwBAAAAAAAAF8QeAIAAAAAAIAvCDwBAAAAAADAFwSeAAAAAAAA4AsCTwAAAAAAAPAFgScAAAAAAAD4gsATAAAAAAAAfEHgCQAAAAAAAL4g8AQAAAAAAABfEHgCAAAAAACALwg8AQAAAAAAwBcEngAAAAAAAOALAk8AAAAAAADwBYEnAAAAAAAA+ILAEwAAAAAAAHxB4AkAAAAAAAC+IPAEAAAAAAAAXxB4AgAAAAAAgC8IPAEAAAAAAMAXBJ4AAAAAAADgCwJPAAAAAAAA8AWBJwAAAAAAAPiCwBMAAAAAAAB8QeAJQNJCoZC7BQAAAABAdMWyTiA5gwSQFP1sFCtWzC0BwfToo4+aN954wy3lVqpUKbN8+XLzzjvvmCpVqrhWeNq1a2eWLVvmlnIrXry4+e2338wjjzxizjrrLNcKT//+/c3777/vlnKrUKGCWbx4sZk+fbprQbgzzzzTbN261S3ltm7dOnPhhReam2++2bXAM2HCBDNw4MCo++kSJUqY+fPnm1dffdUcffTRrhWeO++800ybNs0tRbZ06VJz3XXXmc6dO7sWeOJtf+XKlTPz5s0zY8eONQcffLBrhefGG280s2bNcku5lS5d2q7bcePGuRYgMxB4ApA0Ak/IBNdcc425/fbbTY0aNVxLdp9++qk9uOPEIbK2bduaUaNGuaXIzj33XHuSgdzirb+JEyea1atXm4svvti1IFy89ZfI9llUPf7442afffYxTZo0cS258d2Njt++/NH2d8QRR5iTTjrJtWT3+++/m3vvvdcMGzbMtSBcvO0v3voFgoqhdgAAAAAAAPBFvgNPf/zxh/nggw/MmDFjzJQpU8yiRYvcPYWbUrzVU7llyxbX4g/9H95l8+bNrjW2f/75Z/tz/v33X9eamz6r9957z7z88stm/PjxZsGCBe6exOhvz5gxw7z11lv2+V9++WXc17hx40b7urT+otHQDb0mDUGIxnt/uuRnvSTyeqQgtnNtK1988YV58803bXq7si3Wr1/v7k2NNWvW2Pcba/gCAAAAAAAFJc+BJ9XEOPbYY81ee+1lGjVqZC644ALTsGFDO6RB6X+vvfaae2Th1KxZM1OpUiXzyiuvuBZ/qO6I/h9dbrjhBtcanYIb++677/bn5KwvoSFSCnrUqVPHflZnnHGGueiii0zTpk3NgQceaA455BAzYsSImMWjV61aZbp27WpfW7169cz5559vn3/cccfZtg4dOkStC3L33Xfb16XtJZrBgwfb1xQraFZQ6yXe6ymI7VxBq06dOpnKlSub+vXrm+bNm5vWrVubk08+2b6PSy+91Pzyyy/u0f464IAD7Pv94YcfXAsAAAAAAP7JU+Bp+PDh5uyzzzZfffWV2W233extnUifeuqpZtdddzWzZ882rVq1Mrfddpt7BgrC66+/bv777z+3FJkymFauXOmWslN2T5s2bexnNXPmTBuAUNDoqquuMuedd57Zfffdzdy5c+2yAizKEMpJQScFTBQcUvZM3bp1bXFPBZ4UiNFzRo4caQNbv/76q3tWciZNmmSLDSpQlIj8rpdoCmI7V5bUoYceap588km7blTE87LLLjOXXHKJDdTpM3nhhRds+9tvv+2eBQAAAABA4ZB04EmzOHgZJj169DBLliyxJ8waGvXRRx/ZIUi33nqrvf++++4zn3zyib2N/ClTpoz566+/7DqO5aWXXrLXO+2U+6NVsEPZTprJSbNN6LPUsC8FRTRcTsX+NAuU7tdMEwpK5cx8UobQ999/b/bee297raCM/qZmVvjuu+/scDsFjPS3lfmULG0/+ruJzpBUEOslkoLYzr/++mtzzjnn2KFtJ554ol0/anv22WfN888/b2cymjNnjg1k6TEqVKlhfH5SQUIFuvT5AQAAAADgt6QDTwpUbNq0yWa36IRbU7KGUyDggQcesNPgCjMWFAxlJIkCH9Eoe0ZTh9euXdtUq1bNtW6jQIcygzT9tQIomqpz5513dvduo+Vrr73WTJ482QZoFAQZOnSou3cb7//X9NkalpeThqV5QR5l+/z000/2dqI0tE0UsElEftdLNPndzpWBpeGCqj+lx3z44Yf2b+WkbKh3333Xvl8F+a644gqzdu1ad2/BU3aapkivWLGiawEAAAAAwD9JB5682j3xMiZUt6ZWrVo20BGJ6t4o00a1gtq3b28DHo899phtj0RZJi+++KId6qVC0KpDpKmy9TwFVcILTCtgctNNN5krr7zS9O/fP+rfFO/vKmtmxYoVZtCgQaZjx47m5ptvtvV74g3hiubPP/+0wYguXbrYoWsKXsybN8/dmzwFMUTBo2i1jxRQUtBC03CGT3WvgIamLZXrrrvO1iiKpUGDBqZbt272dr9+/bYXotbf0fuSaNOTywknnGCOOeYYc9RRR0Wt9RSN3oMCYHoNicjPeoklv9u5th0F3ZQ99txzz5mSJUu6e3LTY5566ilTrlw5W1hd22M8qi3mBfh+/PFH06tXL5thduedd5rPP//ctkei16W/rwwrj75TalNwTJRxdtddd9nvj74HXjAQAAAAAICkhZL08ssva+xVaOeddw5Nnz7dtSanT58+oawTcft3cl6yTsJDWSfB7pE7NGvWzN6v/3///ffP9bxTTz01tHHjxtCll16a676KFSuGvv32W/eXsvP+7vDhw0PVqlXL9dzDDz889Pvvv7tH79CoUSN7/wsvvOBadhgxYkSobNmyuf7WTjvtFOrZs2do69at7pHxFS9e3D5Xr79evXr29rvvvuvuza5Vq1b2/nnz5oX22msve3vSpEmh2bNn29u6zJ071z06tl9++WX7c6ZMmeJaQ6HatWvbNv1fW7Zsca2J69Gjh33+WWed5Vp2+Pfff+1ndcYZZ7iW6ApivUi015Pf7fyCCy6wz2/Tpo1rie/yyy+3z9G2HI/Wk16bviuRvkutW7cObdq0yT16hypVqtj7tU14tA7Vdu6554buvffeULFixbL9LV3OPvts+/3yJLMNA+nSuXPn0MKFC91SblOnTg0NGzbMLSGniy++2N2KrkmTJu4Wcoq3/iZMmBAaNWqUW0JO8dZfIttnUaXfNW1fsfDdjY7fvvzR9qf9azTaL2v/jMjibX/x1i8QVElnPGlGLhV+1jAkZbaoDtDTTz+d8KxczzzzjM3OUAaI6gmpxs3PP/9sJk6caOvgKHNJGUfRhhspe0iURaKp6R9++GGbMfLxxx+b448/3mZ03HPPPXaqeg2vOuigg2x2R8+ePe3zolEm0C677GKHmWlolgpHn3baafZaQ6VizbAWTkO+lHmyYcMGO5xNr3HBggU2Q0szmCnzSdkkeeFl90QaVqYssPHjx9tMo5o1a7rWbbQuRP+/PrtE7LfffnZommjdem6//XZ7rbpOWrcqrK1MGa2z/FLNI31WKuKdjLyul1jyu5176/yUU06x14nIOoix11k7k+1ZZrHotV1++eX2/9B2qs9A2Un77LOPzYjSNp0MvWZ9vlqf+j7q87jjjjvssEsVfH/iiSfcIwEAAAAASEzSgScFeXRyq2n0dXKsotQakqNp2jUsSUOPFABQ4CWShx56yF4PGDDADpNTjRs9VzVudHKr4Ubr1683M2bMsI+LRCfI+n/0GryhevLtt9/awJNOlhXEatasmQ34SLzi0wqEqSbRGWecYYd6HXbYYXaIloIPmnpeM7XFo0CAV5BaATEV8NZr3H///e060hT+OonXsDcVp06WZlSTMWPG5AqE6XPQOtdwspxUNFz0OpLhzSq3ePFiey1a716wT8PCFEg7/fTTTYUKFcxJJ51k+vTpY4OJeaH1LYkWFvfkdb3Ekp/tXMMzVZxcklnn3vrW/7d8+XJ7O57DDz/crjdtr9puFSRV8FSvX8P3NEthov7++28bSBw1apT9PmrWPQVxr7/+enu/6l4BAAAAAJCMpANPohNk1ZFRkEfT7ivoIApQaMYsZUzoMbqdk4pVK4ijKeVzKl++vDnwwAPtbWWqRKJMlD333NMtbaOC1qJ2L2vE4xV0VoAgWjBM9HpyBgmUAeXVOlKGTzwKVChgsMcee0TMNtFr0cxlCkxEys6JRwEPBdRWrlyZa/Yzr96PF4QJp4CCeJ9ToipXrmyvcwZBFOxTXSHVE/LW75YtW8xnn31ms7kUDNF2oZngkqH1t9dee9kgSjLyul7iyet2Hl4/KZl17q1vSTTwpAwlBZnCKViq70koFLLBuGRE2m4bNWpkr5P9PAEAAAAAyFPgSVRMWSfjOinXCb+m0VcWkzKGNAOYilArK0TD6cJp6njN3FW2bFkbgNHQpffee88MGTLEZqUooCHRinorQyon7+Q+UnZJ6dKl3a1tmSTRaFhdJBq+J7EysDwaVie77767zRpRweacF6+49VdffWWvkxVpWJkCHcp60ZCrSMWwd911V3ud7HC4f/75x16Hr0OPhuL17dvXfPfddzZIou1Axd41zEsU8FCBcG0biVBxd63jZLOdPHlZL4nIy3au7VGZbZLMOvfWt0Ra55FEK8Ku4YGi15soZRtWr17dLe1QqVIlex1ewB8AAAAAgETkOfAUTifnyjrSDFga5qOaTY0bN7b39ejRI1fwQUN2NDxLU9Jr6JJO4jVETSf3ytKIJVYGSaSZwxKdxSxnFpVnt912s9fKGlJWTyxelorq7VxyySURL+PGjbOP8WaHS1arVq3sewofVjZ27Fj72qINJ/OCQYnWJ/JoVjaJN1xMgTYFZzQrof4P1fFStpie/+CDD7pHxfbuu+/az15DvPIiL+slWYlu5wpIVatWzd5OZp1761tBK+8zi0WPq1q1qlvKzttuE82cEn0fI/GCaAAAAAAAJCupM8oVK1aYW265xRY0jhWE0UmzTvoVJFK9pmnTprl7jLn11lvtMCAVpFbWjIICqnmkzBT9/UgZTeF08u+HaNlQqtskGs4UKbAVznttCqpp+FWsiwIVeaGAhrLGNAW+alKJhpPp/77wwgvtck56PaKhUpoqPxF//PHH9vpA+v9EBauV1RRrmKCCFNo+vCLkymZLhOp76bnesK5k5WW9RFMQ23nDhg3ttQJUiVINMFFdKdVrikfbbLRArbfdKospUYkGaQEAAAAASFRSgScN/1FxcG9GuVh0wutlbXhDiJTRoWFKosLHGlan4WcqaKyZzFTjSYEDiZf5VNBUKDsSZbVIIhko3nAuDRNs165dzIuXKZMX3rAyBYI0RE0BC2WNeVkuOalulgpFS6IZSCqMLsqo8QJXGh74+OOPmyeffNIux+LVaQofPhaNPmvVd6pfv/72YYF5kex6iSa/27noMxYFprxtKJZly5bZgKQkk6HlFY7Paf78+fY6ke0WAAAAAAC/JBV40lAcb3r4Xr165ZpBLJyGGHkZM0ceeaS99k7iVUC6Q4cO9nY4BX9+/fVXezvW3/bDhAkT3K3svOLMKgoej1dvR9PQRxti1bRpUzu8cNiwYa4leRrWpkyeN954wxY9V6Dr4osvdvdG1r9/f3utYXCqPxWLhr0NGjTI3lYdJ694tYKDooCOl1UUjabjF++zj2XmzJk28OL9/bzKy3qJJL/buahWlTKw9BratGlj1qxZ4+7JTdlJGoaprCkFCSN9N6Lx1nM4BfK8GejOO+88ew0AAAAAQDokXbzl7rvvtkNyFHjQcCLN+hWenaTbCkxoWnedsCuYULt2bXufV6RYQYZFixbZ2x6dmLdv394tbZuFLpWUJZMz+KRhYsrM0hA7DTGL5+STTzZ16tSxgQRNva9AQjhld40fP94GK6IVM0+EaiopC0lDwnr37m2HZWn4Yiz6rLxp8RXk0FC4tWvX2mWPXrcy0hRk0zAuBck6derk7t02ZM8Lrum+Bx54YHuGmscbpjZixAi7fOONN9rrWJTtJHktLO7Jy3qJJj/buei5CvJVrFjRZopp1r2pU6e6e3dQ0E3bgrY1Bc20jajwfqI0i2DOIGefPn3MDz/8YA466KB8B/MAAAAAAMiPpANPOgnXDHSqx/PJJ5/YE2rV19Hsb7poaJaGkWmoT61atexwJY/q92j6eZ2o63n9+vWzgR3VOzrkkENsppCXNRJtCJFfNLzq/PPPt8Oc7r//fjtTmQIhylhRgEVT1CdCw6U0XEw1rPSeVNNKNaz0txXwEf193Zcf3rAyBfEUKIpVdN3zyCOPmP/97382aKIMKAVqFEhSYW59NlWqVLGvV3WNNPNgpFpOKgCvOlwKqulz09/QsDpl9xx++OH289cwNXn44Ye3zwoYi+p7aZ2ptlF+5WW9RJKf7dyjouzaphUAmjNnjs2iUkaTtgUFxLQeFahUbSj9bQWyNNwwGQoeHn300bY4/3333WcDbwqaKXilwFcitaIAAAAAAPBL0oEnufbaa+3U9zqBVsBGM2fpBFsX1dbRDHHKqPnmm29sYMKjmc6U2aETdgWW7rzzTtOxY0ebZaPZwr7++uvtRakV4EglZYloWNbo0aNNz549bQBJxc+VCdWtWzf3qPgUhNEU9lo3yurSe7vjjjvMW2+9ZaeqHz58uOnevbt7dN61bNnSzp4midYEUhaO3qeCYvoMFGD6+OOP7bpWZs+6dets1paGaY0cOTLilP6ql6TPSYErBeMUmFPBcgVnFFwRBW2U3dO1a1e7HIvqIn366ae2FlNBzJ6Wl/USTV6383BaR8p40rauxy9YsMBuC1rHykrS+tT2pcwnL5ssGQoOKoipIJlqpemzVRBQ6/+kk05yjwIAAAAAID2KhcLHD+XBxo0b7cn0n3/+aYdnKbiiDJB4M2QtXbrUFl3W8CINUfKG4aWaMk8UBFDR7KuvvtrO/DZv3jyzxx572PeRn2DI33//bQuoK6CjoIOCEAURXCkoGt6ooNHq1attYXcFMJIt7r148WK7zjTkTs9V/arKlSu7e+PT/60gidaNMoOCKq/beTh91ZQhpaCr/oZqneV1m9D3RetO9aX0N7SdKctLWVY1atRwj/KP3ksy7x1IBw2RVnA42ndCQe9Zs2aZzp07uxaEU/A+Xk1AZZZGq5FY1MVbf6rRp9/xvNQiLArirb9Ets+iSse0mlykSZMmriU3vrvR8duXP9r+jjjiiKgdoDoO1miQ/NS7LczibX/x1i8QVPmOgiiLSUOGlK2hYT46CU7khFRDi/SF0bCldAWdIlGASO9FwbD8Bon0vjR0ShlACuoEKegkGoam9a8hhRpKlpcZ5RQ8UbaaMpZ0nUzQSVQDSTvvIAedJK/beTg9vmbNmnZ7UMZZQW4Tej3KdEpF0AkAAAAAgEQFKxICAAAAAACAQoPAEwAAAAAAAHxR5ANPmkVPM7qpZg+QKTTkT9ttpALwqUB9JwAAAABAIop84EmzvGmmvaZNm7oWIPhUEF/brYqHAgAAAAAQVAy1AwAAAAAAgC+KhTQvOgD4RNPmdujQwWzdutW1AKmh3ZtmKB06dKhrye7HH380119/PdtmBMWLFzd//fWXeeSRR8zJJ5/sWnNr1aqVWbVqlVtCuPXr15uWLVuaW265xbVk980335ju3bvb7RTZlShRwvz222/mxRdfNHXr1nWt2Q0cONBMnDjRLSGchsNru1JmdDRNmjQxmzdvdksIt3HjRtOuXTtzzTXXuJbc9N39+uuv3RLClStXzpaCeOmll1xLditWrLDr999//3Ut8Oi7u27dOnPzzTebCy64wLVm984775gHH3zQLQGpdeCBB9qZ8fOyDRJ4AgAAAAAAgC8YagcAAAAAAABfEHgCAAAAAACALwg8AQAAAAAAwBcEngAAAAAAAOALAk8AAAAAAADwBYEnAAAAAAAA+ILAEwAAAAAAAHxB4AkAAAAAAAC+IPAEAAAAAAAAXxB4AgAAAAAAgC8IPAEAAAAAAMAXBJ4AAAAAAADgCwJPAAAAAAAA8AWBJwAAAAAAAPiCwBMAAAAAAAB8QeAJAAAAAAAAviDwBAAAAAAAAF8QeAIAAAAAAIAvCDwBAAAAAADAFwSeAAAAAAAA4AsCTwAAAAAAAPAFgScAAAAAAAD4gsATAAAAAAAAfEHgCQAAAAAAAL4g8AQAAAAAAABfEHgCAAAAAACALwg8AQAAAAAAwBcEngAAAAAAAOALAk8AAAAAAADwBYEnAAAAAAAA+ILAEwAAAAAAAHxB4AkAAAAAAAC+IPAEAAAAAAAAXxB4AgAAAAAAgC8IPAEAAAAAAMAXBJ4AAAAAAADgCwJPAAAAAAAA8AWBJwAAAAAAAPiCwBMAAAAAAAB8QeAJAAAAAAAAviDwBAAAAAAAAF8QeAIAAAAAAIAvCDwBAAAAAADAFwSeAAAAAAAA4AsCTwAAAAAAAPAFgScAAAAAAAD4gsATAAAAAAAAfEHgCQAAAAAAAL4g8AQAAAAAAABfEHgCAAAAAACALwg8AQAAAAAAwBcEngAAAAAAAOALAk8AAAAAAADwBYEnAAAAAAAA+ILAEwAAAAAAAHxB4AkAAAAAAAC+IPAEAAAAAAAAXxB4AgAAAAAAgC8IPAEAACCXUCjkbiFRrDMAAHIj8AQAAAAAAABfEHgCAAAAAACALwg8AQAAAAAAwBfFQgxGBwAAQA46RPz333/N999/71qyK1mypKlSpYrZY489XIsxf//9t/ntt99sW7Vq1Vxr4bJ582Yzf/58s379elOrVi1ToUIFd8+2dVasWDG3BAAAhIwnAAAARLR8+XJTp06diJfDDjvMBpf22msv07dvX/Pff/+Zd955x9736KOPur9QuOh9Kaim916vXj2z++67m65du9pgFAAAiIyMJwAAAOSiQ8Q//vjD7L333qZ06dKmbdu27p4d2VCLFy82H3zwgV3u2LGjadSokbnooovMHXfcYe655x736MJBQafrr7/eBp1uuukmU6pUKTN06FAzbdo0+96HDx9OxhMAABEQeAIAAEAuOkT0Ak/Kalq0aJG7J7sPP/zQNGzY0D5+0KBB5sYbbyx0gScNIdxnn31sAG7u3Llm1113te3KdDrppJPMjBkzzLfffmuOPPJIAk8AAOTAUDsAAADk2WmnnWYaN25sb8+ZM8dee1avXm2mT59uZs2aZTOkYlm2bJn54osvbAbR77//7lojW7dunfnuu+/s4//880/XGtumTZvMN998Y//+X3/95VoTM2rUKLN27Vpz1VVXbQ86ibKeevToYW8/99xz9hoAAGRH4AkAAAD5sttuu9nrDRs22GtlAt1www22BtLxxx9vM4GUOfX666/b+8N5daFUL6p+/frmhBNOsNlFhx9+uPnss8/co7bR37388stNxYoVzVFHHWUfX7VqVXPqqadGLYK+ZcsWGxyqXLmyqVu3rv37ek6zZs1sRlciPv30U3vdoEEDex3ulFNOsdfeYwAAQHYMtQMAAEAuiQ61UyZR7dq1za+//mpuueUWM2DAALPLLruYnXfe2Vx99dXmoIMOMp9//rl55plnTPHixW32kx4vn3zyic2YUiBJQ/QOOeQQs2bNGvPqq6+aSZMmmRo1apgFCxaYEiVK2Mcr42jEiBGmTZs2pkWLFrZdgasnn3zSVK9e3fz888/2//boPTRv3tyMGzfOBqquueYaG3TS39Zz9t13X/P1119ny2KKRMEzZW799NNP9v3kpCF4+n9XrlzJUDsAAHIg8AQAAIBc4gWeNIudhtb16tXLvPnmm/Yx9913n7n00ktt0Omrr76yhbg9Xbp0McOGDTP333+/6d69u21r0qSJefvtt82ECRPs7XBesOejjz6yGU16PQruKFg0b94896htWrVqZYNJuqjmkkcBrNatW9u/9fHHH5uSJUu6e4wNkN166622YPjgwYNda2S1atWyQScN6/Oyu8JppjsN39NwQgJPAABkx1A7AAAAxKTZ6xT08S4KLCnbSFlECjopY2n06NHbAzvnnHNOtqCTnHHGGfY6PIClIJSG3+nxOWlYnKhOlCigo//7l19+scGq8L5TrwZTeNBJnn32WXvdu3fvbEEn0VBA/T09Nx4N1xO970hU62nr1q3bHwcAAHYg8AQAAICYNEROQ8y8S82aNc1xxx1nzj//fNO/f3/z448/mpNPPtk92pgDDjjA3drBG862fv16ey1HHHGEadmypVm1apX54IMP7PA3Dddr1KiRGTlypH2MAjqebt262awiZUepJpSyqxQ4Cv+b4VRMXF5++WX73PCLsq4UeFqxYoVZsmSJfVw0ZcqUsdeqMRWJ1+4NCQQAADsw1A4AAAC5xBtqF4kCPBdddJG54447zD333ONat9GQOdVz6tChg3nqqadsm4anKQik53mz3il76Nhjj7Uz182cOdO88cYbthC45/nnnzePPvqondHOo2wm1ZMaNGhQtuBPuXLl7N+Jlqnk0f9z8MEHu6XclEmlQueqIRUpqEaNJwAAoiPjCQAAAGmhwt8vvviiOfHEE81LL71ka0b9888/doa4evXquUdlpywn1X5SlpKCUG3btrUZWQpGKfsqnAJPsmzZMrNx48aol1hBJ/HuVwH1nLy/feCBB7oWAAAQjsATAAAAUk4FwhVgUrHw999/32ZKHXroodtrMamWk3hD7RTgGTp0qBk7dqxd1lC7Sy65xAauXnvtNdv23nvv2WvP4Ycfbq/1/+SkjC4VQ9cseSqUHotXO2rq1Kn2Opxm5hMFzwAAQG4EngAAAJByXrUHDY1TxlI4BYqmTJlib4fXVdIMdDfffLMdPhdJ1apV3a1t2rVrZ6979uyZqw6UAk633XabLUCe8//PqUWLFnY4nWblU00oj16bCqRLp06d7DUAAMiOwBMAAABSTgXKa9WqZesmabjcO++8Yy+33nqrLS6ujCbxAj177LGHufLKK20mlAqZDx8+3NZ/0vC6yy67zAawbrzxRvtYj9obNmxoZs2aZerUqWMGDx5sZ9Hr2rWr6dy5sy0aPmDAAPfo6CpXrmz69Oljli5dajObVPhcQwNPP/10M2PGDPu3vOwqAACQHcXFAQAAkEsqiov/8MMPpn379tkKhe+zzz7mf//7ny0wfvTRR5szzzzTBqREGUbXXXedzVIKz4Q65JBDzMMPP2wfm5PqLymz6YknnjAbNmxwrcaccMIJZuDAgeb44493LfE98MADNgDlZVypEPoNN9xgh+wpa0rrjOLiAABkR+AJAAAAuaQyiKIA18KFC02VKlVsJlQ8GjanGlEKJFWvXt3WiYpn06ZNZu7cuTZgtf/++5vddtvN3ZMcBbKUQbXTTjvZjK3y5cu7e1K7zgAAyBQEngAAAJALQZTksc4AAMiNGk8AAAAAAADwBRlPAAAAyIVDxLwh4wkAgOwIPAEAAAAAAMAXDLUDAAAAAACALwg8AQAAAAAAwBcEngAAAAAAAOALAk8AAAAAAADwBYEnAAAAAAAA+ILAEwAAAAAAAHxB4AkAAAAAAAC+IPAEAAAAAAAAXxB4AgAAAAAAgC8IPAEAAAAAAMAXBJ4AAAAAAADgCwJPAAAAAAAA8AWBJwAAAAAAAPiCwBMAAAAAAAB8QeAJAAAAAAAAviDwBAAAAAAAAF8QeAIAAAAAAIAvCDwBAAAAAADAFwSeAAAAAAAA4AsCTwAAAAAAAPAFgScAAAAAAAD4gsATAAAAAAAAfEHgCQAAAAAAAL4g8AQAAAAAAABfEHgCAAAAAACALwg8AQAAAAAAwBcEngAAAAAAAOALAk8AAAAAAADwBYEnAAAAAAAA+ILAEwAAAAAAAHxB4AkAAAAAAAC+IPAEAAAAAAAAXxB4AgAAAAAAgC8IPAEAAAAAAMAXBJ4AAAAAAADgCwJPAAAAAAAA8AWBJwAAAAAAAPiCwBMAAAAAAAB8QeAJAAAAAAAAviDwBAAAAAAAAF8QeAIAAAAAAIAvCDwBAAAAAADAFwSeAAAAAAAA4AsCTwAAAAAAAPAFgScAAAAAAAD4gsATAAAAAAAAfEHgCQAAAAAAAL4g8AQAAAAAAABfEHgCAAAAAACALwg8AQAAAAAAwBcEngAAAAAAAOALAk8AAAAAAADwBYEnAAAAAAAA+ILAEwAAAAAAAHxB4AkAAAAAAAC+IPAEAAAAAAAAXxB4AgAAAAAAgC8IPAEAAAAAAMAXBJ4AAAAAAADgCwJPAAAAAAAA/2/vTuBuqP4/gB/KT6GQFFKWEIXikbIlKo+IQlrQjiS7Nq0otJAoKi1SIdrIHlmTJfueypIWJcqSpTD/+zlzzn3OzHNn7tz73Pv3eJ7P+/WaVzNzZu4zd+65k3Pu93wPJQU7noiIiIiIiIiIKCnY8UREREREREREREnBjiciIiIiIiIiIkoKdjwREREREREREVFSsOOJiIiIiIiIiIiSgh1PRERERERERESUFDmsELVOREREyk8//SRy5Mghzj//fLWHKPMaP368mDp1qsiZM6do0aKFaNy4sSqh/w8n4nlx4MABsXPnTlG0aFGRN29etTdryk7vlYgoK2LHExERZVn//fefmDt3rvyvn/r164vTTjtNbQnRqFEjMW3aNLl+6623io8++kiuZ1ebN28W06dPF1u3bhWHDx8WxYoVE/Xq1RO1a9dWR8Rny5YtYtasWfJ1//rrL5E/f36RkpIimjRpIk4//XR1VOLg2tE5s2zZMrFnzx6RL18+UbFiRdGwYUNRpEgRdVSaHTt2iLVr16otGzoXzjjjDFGmTJmI52gLFiwQ27dvF7lz5xZXX321KFy4sCrxhn+SzZs3Txw8eFDtsf3vf/+Tf6tcuXJyPRJ8FgsXLpTr6HSaPHmyXM8O/v77bzFx4kSxYcMGsX//fnmvatSoIb/Xp5xyijrKG54PqIex/JMYr5uamirXT8TzAvXr2muvFf/++698di1atEhcdtllqjTz8HoGox4XLFhQnHfeeb7fIzhZ3isREflAxxMREVFW1K9fP7Qkoy5jxoxRZ1jW8ePHrRw5coTLChUqpEqyn71791otW7Z03CtzqVOnjhVq9Kujg1u1apV11VVXRXxNLLjnU6dOVUcnxgcffGCFGroR/17OnDmtHj16qCNtx44dswoUKBDxeL2UKlXKGjp0qDojzb59+xzHde/eXZX4e/nllx3nuZdQY9266aabrO+//16dkaZWrVrh4xo3bqz2Zn3Dhw+3TjvtNMd90kv58uWttWvXqiO9zZgxI+L50ZalS5eesOdFnz59HNcybNgwVZK5BHkGX3DBBVa3bt2sHTt2qLOcTpb3SkRE3pjjiYiIsqw//vhDrfn7559/1Jod0YJf4bXSpUurtewFEQqIMvj444/VnvQQidCsWbOYIkWgefPmYv78+Worvd27d4ubbrpJfP/992pPxiAC5Y477pBRVZEcP35cvPPOO2rLhqE9iKTxg0itLl26iBtuuEFGY2ju+4HXDwIRUn7wNyZMmCCqVq0qI9Cyu+HDh4uOHTvKSLZINm3aJK677jrx+++/qz2ReZ0fDZ4bJ+p54R7Sl1mfU0GewRim+Morr4iyZcuKUaNGqb1pTpb3SkRE3jjUjoiIsqxu3bqJIUOGqC0hh3BFGqr0/PPPy6FTGjoUvvzyS3HqqafKToVzzz1XlWQfaAh2795dbdmdRZ06dRJHjhwRL7/8spg5c6YqEWLSpEnyPgV11llnib1798rOJQxTOuecc8TSpUvFwIEDHZ0APXr0EIMGDVJb8Tl27JjMC7Nr1y65nSdPHtG7d29x+eWXy2tA5xkau/jn0J9//imPgX379smhfxqGbmFIHobBYUgXhlYdPXpUlQrx9NNPiz59+sh197ldu3aV9zMad33t1auXrIMYFjhlyhSxbds2VSLEmWeeKRvs+u9kt6F26NAoUaJEuL6ULFlS9O3bVw7fGjFihKyTGu7r4MGD1VZ6v/76qzzG7CDEMEvUSa1WrVqOIWH4XN588015/0/E8wLXiveI68QQzAYNGqiSzMVdpzt37ixy5colO+1w7eiARiev6f3335cdxdrJ8l6JiMgHOp6IiIiyolCDPzw8AwuGjlEwlStXDt+3iy++WO21hRqNjmFrTZs2VSXBvPDCC9bGjRvVVhr3ULPU1FRVEr8lS5Y4XvPZZ59VJWnwfmbOnKm2bKgr5nk9e/ZUJbavvvrKUV60aFFVkv5c1MMg3PUV16X9999/Vv369R3lb731lirNfkPtnnvuufD7xVC39evXqxL7XpUrVy5cjroaq3HjxoXPx4LheBQ7vzoN+/fvtzp27Og4Jnfu3Navv/6qjiAioqyAQ+2IiIhcENGDCJKrrrpKhBr3am+a3377TUbjIDE1IiwQsYOIGEQ76KVp06bhYSbr1q2TQ35q1qwpo3zcyaMxhAoRRSjH8LbVq1erEjv6Cuci4mLYsGEyygYRNJjZCYt7iBjORbRA8eLFZQJkRPhceumlItRQTxdZ4AV/Y82aNWrLjqAx4TXNqAMk647FI488IsqXL6+20lSvXl2t2cyooXi5h1kVKlRIraXB+8F9jwUSV5vXizqByKRkQTQN7ptp1apVai09RF09/PDDcpgSZrpDtE779u0dUV0mDEMcOnSo/FxRn1F3EJlSqlQpcffdd8sor0gQ+YUk2/geYNgZIrHq1Kkj3n33XXWEUyLqJ5gRTYheu/jii9WWfa9atmyptuz3tnHjRrWVeF7PC/d3FzBUEs8KJJ1H/cb9NiOrkPwer4Uk2rg3SEz/9ddfq9I0iHbD9xLPjBtvvNHxufbv31/+TUToIdIPQ0YRvYi6gHserS7E+nzLCCT4x71p27at2iNkVOVLL72ktvzfK8Rbd+HTTz+V9wkTJhQoUEBceOGFctt8r6+++qo8NpZncTzX5P7cMOT4wQcflJ8X6jTORWSlTtSOzxURZYjoxOvj83300UfjHjpKRJRUqgOKiIgoy3H/2h404in0j//wOe7oESTGNqN9/BZExYA7euKXX36R+7VQA8NRPnr0aFXijKxBZFGLFi0cx7Zr104daVmhBpIj0bF7KVOmjGcCX5P7epAg2C3UAHIck4hosoEDBzpeE9sZtXDhQsdrIjJpzZo1qtRbtIgnaNKkieOY33//Xe5PRsQTrFy50lF+//33qxJnna1UqZJMfG4eqxdEAh04cECdZduyZUvUROpIbD5//nx1hi1a4uht27apI22Jqp+AqBh9nnkftPHjxztee+LEiaokmFginryeF+Z3F3XFHdmjF9xbROZ16dIlYvmpp56a7t67I+6WL1+uSpzXg6T6qPPmsXqJVBfieb75iVanNTxzcB/0cWXLllUl/u813roL99xzT8Tj3QvuJwR9Fsd7Tebn9v7771vnnnuu4xy9YIIBJM33+lwbNGigXpGIKPNgxBMREVEM2rRpE05SjSgL5JV54IEHZASDhqgP/AqNX6gTKdT4lb/Qm/ArOiDnEvKnhP7fLrcRNYFrCzXKw9f2ww8/iLvuukuu+8Gv96Yff/xRraU5++yz1ZotWiJuP4cOHZLRAk8++aTaI2TCZkRlZBSiYczcPIjmQHLuDh06yAiGjFi/fr1as6eHd9+TREPknMmddFkLNUo939vmzZvFa6+9prZsK1euDH9+yL+FqI7WrVvLe6chKs/M+YV8U0899ZTaEjJK44UXXhAPPfSQqFKlitxnRl4ksn4iJxOiYjRET7m5783PP/+s1k4MRDIhGXokuLeIbEKETCSIrMF9jQeia1DnI0Fd0NE82ol6vqHe1apVS20JObGAvg4/8dRd+Oyzz8TIkSPlOiIC7733Xhl1l5KSIvcB9iNf12WXXab2pPF7Fsd7TaZ77rnHMyk+ouYQben1uSLfGK6PiChTkd1PREREWZD71/YHH3xQRq6Yy4ABA9TRabwiGPArs96PqABMm6+9/vrr4bI77rhD7bUlKuJJLzVr1rSmTJkifxX/5ptv5HGhxlG4vFmzZnKfhmPN84NMMW9GzOTNm9cRZYB8Ou58Q2aOnSAwRTp+0Q81zByvg+Xaa69NFy2TEZ988km6v4EF0TetWrWytm7dqo5MEy3iacSIEY7yUONSlSQn4inUCLcqVKjgKF+0aJEqddZZLOeff741a9YsGdGCqBcz0gj1xxRq5Fv16tWTUULIj2Tq3Lmz43VxHTBq1KjwPkReuC1dutQ6evSo2kps/URdM48fPHiwKkmzYcMGxzEvvviiKgkm0RFPeunRo4e1Z88e+R5LlCiRrrxTp07yebBu3bp0UWtmdJJfFFAsdaFGjRrqrPifb36CRjyBOyLsu+++k/v93ms8dRdQB/V+5AvTjhw5Iu8X9ufMmdPavHmzKgn+LI73mtyfW8mSJa2vv/5afg5PPfWUowxL8eLFrblz58ryvn37OspQz4iIMhN2PBERUZblbvR4LQcPHlRn2LwaklOnTg3vR8PCtGLFinDZhRdeqPbaEtnxlJKSYh0+fFiV2tBAM49ZvHixKkljDtt47bXX1F5vvXr1crwmFjR0vIaQmA20IFq2bBnxdc4++2w55CjIcLhYjB071sqTJ0/Ev4mOtQkTJqgjbe7Oo9q1a8uk6GjgoU6YZVjQANQS1fGEv4WO0W7duqUbVlO3bl11ls2ss4ULF7a2b9+uSmwNGzYMlxcpUkTtjQ5J1/V5WHRS+Pfeey+8L1euXNbs2bPl/kgSXT+//fZbx+tFOh6Nf/OYSEnl/SSj4+nRRx9VJTYMPTTLu3fvrkps7s7NTZs2qZLgHU/R6gLuuxbv881PLB1PjzzyiONY/E3we69+vOouVKtWLbx/wYIFaq/thhtuCJfF+iyOxu+a3J/bTz/9pEos69ixY/LZqMsLFSrk6DA/fvy4VaxYsXD5LbfcokqIiDIHDrUjIqJsDcMpkLg1CAyb0JCs2BxK9M0336i1yAmsE2XgwIGOYS8QaoirNRuGWiDhsbmYggw7wrA3PWRKw3leQ+rOOOMM+V8k3cXQFPeCISyhBrA8Bq6//npRt25dmYi6UqVK4WEqSByMIUc4/r333pP7EuG2224TW7ZsEZ06dRKnn3662msLNYbFzTff7JuEGAmekbgXyX2nTJmi9tpwf/FeEg1/q1evXuKVV15xDKvBlPLjxo1TW+lhGM4FF1ygtmxI4K0d8EnivX//flmfJk+eLD7++GOxZMkSVWLDECHA0DD9mSHZMZKtI0E7rgtDw0yJrp/u76v774F7n/szPxFuueUWtWarUKGCWrOhjprMhOmwe/dutRZctLqAuq+d6Oebu14i2XcsgtZdMN/rihUr1Jqd2Nzc9nuvkZ7FbrFckwmfmzlcFP+fwvdeq1atmihZsqTaEjKxvzlhQzx1hYgomdjxRERE2QZm2kLD2FyQC0M3oKPBP/b1P/537twpO03Q+OjSpYucBUpr0aKFWks85Fdxc+cCQYdFz549HYt5jFdjx4QZtdDYRKcHOlXQeMXMT1deeaXM+4J8KBryGxUuXFiuz549W85c5l7QmDNzIiGHydy5c8X8+fPlDHq//PKLzEejoTMDuWXMzqqMQr4W5LRBxwY6kczPHR0V2BcUGoLXXHONmDdvnm+ulkTC7FiPP/64zCGD9xILs4FsqTxLpkWLFsn3g8Y+Gr1NmjSRHSVm3i1TiRIlxODBg2WDV/vqq69k5wlmBkM90BJdP1E3TWbniWZ2mgBmT8tsonWGJauzzKsunOjnG/I6mYLmTIu17gJmVtQwWyTeI2bSQ+4x5BADdE5hpkIvkZ7FWjzXFM2Jqi9ERInAjiciIso20GDCP/7NJZZp9DFldbt27dSWEMuWLZNT1qMzQzeW0XDp2rWrXPcSqeGfEe7XQwPyiiuuiLjg+m699VZ1pD9M6Y73gg4idAChcwgNKiSVxnT92iWXXCLvDaBDIhJ01LgjL0zouELHoPmrPjoPxo8fr7YSBw3K559/XiZ8NjtOFi5cqNbSw7TqSCaMyAXcA7z/WbNm+TZMM+rDDz+USZDRoYNE0Oic6devX7qOlyD05xMJIpDQyYDOouPHj8t9SMiOCAq/BNKY6h0dh+57gOnvkVB5+fLlcjvR9ROJrU2RkizrzgMt0Yn+T2ZedSFRz7d4oPPQjKpCNJiOovQTb91t2bJlOOoJUU54j+iAwnsGRNXheRRPZ06810RElJWx44mIiCggzO7Wu3dvuV62bFlRo0YN2TDBLHBoTCM6aM6cOemGX6DTxXTw4EG1ZstoR5R7OAg6SBYvXhxxWbBggfwFPqMwS5mGxqiGYVPHjh1LtyCiqGLFiuqoyNAJhE4sE4beJQs6HStXrqy27CgrLxdddJFo3ry5aNy4sYz6cs/8lwzNmjWTC4axob4lCyK98BkBhnch8gSdORhu9dFHH8n9XvDZI+oLx955551qr5AN7meeeUauJ7p+okPCPSzMzT0DoHvYGqUX7/MtERA9Z0aupaamqjV/8dZddJ7t2bNHriMaCZ2ZiIDEbJqtWrWSnaY33nijLI9VRr5PRERZFTueiIiIAho1alS4cYRp3/ELPTqRkJsEeTzQmImULyp//vxqzYZ8QSbk8ckI5FAyIRInmcaOHSuHe2mYEt+Ejjb3oiOL0CHhHnqlIcJJRxxo7ggBDI3E/cLU/bt27VJ7vaFTZPr06WrLCflXkPdJK126tFrLPtDpiaGOGqKYypQpo7bszysIRHPg+2EOl9T3Nhn1s2bNmmrN/j7t3btXbdnMSDlcW/HixdUWeYn3+ZZRI0eODHd4Af6GObTPS7x1F9Fb77zzjlxHZ9OECRNkhBz2Yxju6NGjHR3SsUjU94mIKKthxxMREVFAGJKhoePjvvvuk8MzkPMIuVCQPDZS9IU7iTCGr6Bxg+gBRNC89dZbqiQ+SBZsdtA89thj6Rr3SAqOxnjQTi7kZULEChr16KABNM4w1AuNUg15TNxRSn7QCYROgNtvv10OI8P92rFjh7zehg0bynUNjcKmTZuqLXsIF5KSY5gc3mOQ3EpoTOMcdFTgPqMBvW3bNtmBhagK/d4A15TdoEMQObo0s9GMaLOHHnpIbTl9/vnnomPHjo6OOzSq8RlpGF4EyaifZiJufC/btGkjvvvuO7F161bRuXPn8DA/6NChg1ojP/E+32KBiB88+/BdRL4ydEree++94QghGDBggCOxtpd46y6iL/XfQ5QjovbwLHniiSdE//79xRtvvCGHyfkl4fcS7zUREWV5FhERURbV1TWVN6a5D8JrevTNmzdb+fPnd7xmpOXqq6+2du3apc6yXXnllRGP1UuhQoXC635TeHtNJf7JJ584jsOCa73kkkscU/HnypVLneHPPdV7qEHl2MZyzjnnOKb0DuKLL75I9zpeS79+/dRZtjlz5jjKa9asqUq8hRrPjnO8lgoVKliHDh1SZ1myrpjlPXv2VCXRuc9FPQzCXV//8Zl63s2rzmp9+vQJl+fNm1fttTVv3jxchgX3FfvOPPNMx34sq1evluc8++yz4X3lypWz6tevbxUvXtxx7MiRI+WxkOj6efToUatixYqO14u04JjDMU55D+PGjXO8zowZM1RJel73Ptp3d+HChY7yJUuWqBIbjjfLcbzm99rx1oWMPN+8uOu034JnzBNPPKHOTOP3XuOpu9ChQ4d05e4lX7581rvvvqvOCP4sjveaon1u11xzTbg8NTVV7U2Dc3Q5jiUiykwY8URERBQQInWqVq2qtuzk21jwK7cJybgRgWEaMWJEuiF3gKge5DfBdP4ZgcTp+KXe/LUdw48wk5yZfBkzjgXhnjUt9G8GtWZLSUmR0VDmlN5BID+SX5JxwD1FhAUiIkyYVc8UJCqiffv2cjY4P8ihhOgz/N3sCPXGHIqGIVaIRkMCdXxekRKom0ORkPgcESIYpqQhGsocdpfo+olE2F988YUcRucFkVZTpkxJSk6irCgjzzcvQb5TeP3GjRvL/F7mbJlBxFN3AXmddJJ1DAVGHiv3MEJEPCEaa8mSJWpPMPFeExFRVpYDvU9qnYiIKEtZu3atGDNmjDh06JDM34Mps4OYNGmSnEkMDRI0iDCcDDD0BDMdAWbtwnG6UYshRm3btnUk3UZDw5yZCbPCoZMJw70w3KNKlSqiU6dOsvGMxgmGsqBhjqFCuuHy119/yXMwFAkdKMh94jerGfInYTY0zNCGKdEx/AnJnfE3MNMShrMF7WDBDG54jxjChEYYOs6QLBeNtgYNGqijYof3jhnlMNwKr40kv7gmdCRh2AtmG/SaSh25WdDwxTTlGLbiNYueCUOIkMcFnymGYuFe4r2g8wQdfhiGF8mQIUPk8UiwjITDlSpVUiXRYZYsJGvG+8IQPnSCRLNq1So5FAm5rtABg3oQlFed1dDBg2GHuBdI8m7OXgb4DF5//XU5RA31FMmW0VmEDgYMj5w2bZqsy+gM1InVkecL14thmbt375b7cU9bt24tZ6iLJJH1E3Cvxo0bJzuYcN14/6hHGKKJ60fHbjxwncOHD5d1BTMu4nuKOheJ172P9t3F82HQoEHyOPwNDPfKly+fKrU7PpCsH0O0ChYsKHr27Bmewt/vteOtCxl9vkWC+4jXdCfuR13BdxD5j9CJ7fc60e5jrHX3hx9+kN9l1B3cIwy71bOb4p7guYdnkM7HhL+nP6egz+J4vk/RPjech2uFRo0ayc/IhNn08LqA5zOGGBMRZRbseCIiIgoAnVdoKOjcIGggIFLGhKgmM9E2GozuGb2IiDKb7PR8Qx4x5ImDWrVqpZvsAZCfTE+CgOi9YcOGyXUiIooPh9oREREFgNmezAS4iKTCjE8aku4iOkHD9PvsdCKik0F2er5hiKeGqNilS5eqLTvZOJKb604nqFu3rlojIqJ4MeKJiIgoIAwfMhspGMaDvEMYOobhFBpyhWDIgx6+QUSU2WWX5xuGq2FIpwmdaBj6h+GfZodbvXr1ZPSXO88VERHFhhFPREREAU2cOFHm1tDw6/j27dsdjTIk50UOInY6EdHJJLs831JTU8Xbb78t82ppyFG2ZcuWcKcT8i4hpxZy0bHTiYgo4xjxREREFCM0xBYtWiS2bdsm9u/fLxspSB5bvXp1OQSFiOhklV2ebxhaiPeJZOvoeMI2op4qVKggcz/5TeJARESxYccTERERERERERElBYfaERERERERERFRUrDjiYiIiIiIiIiIkoIdT0RERERERERElBTseCIiIiIiIiIioiQQ4v8Aa361f5llWUoAAAAASUVORK5CYII=;" parent="1" vertex="1">
          <mxGeometry x="-800" y="40" width="1182" height="569" as="geometry" />
        </mxCell>
        <mxCell id="RIw_eJGzd-aFv94rjKLd-2" value="" style="shape=image;verticalLabelPosition=bottom;labelBackgroundColor=default;verticalAlign=top;aspect=fixed;imageAspect=0;image=data:image/png,iVBORw0KGgoAAAANSUhEUgAABKoAAAI3CAYAAAC7yLO0AAAAAXNSR0IArs4c6QAAAARnQU1BAACxjwv8YQUAAAAJcEhZcwAADsMAAA7DAcdvqGQAAMZ1SURBVHhe7N0JvMzV/8fxg1KhaNdGRUnaKRXaS2SLKIUoKZU2pOVX/SuK9kXRnpKSNiIhpdK+Z0lFQkQI2Snf/30f58vca+bemXtnOXPv6/l4jJnvmZnrzvd+57t8zud8TqkghwEAAAAAAAAyrLS7BwAAAAAAADKKQBUAAAAAAAC8QKAKAAAAAAAAXiBQBQAAAAAAAC8QqAIAAAAAAIAXCFQBAAAAAADACwSqAAAAAAAA4AUCVQAAAAAAAPACgSoAAAAAAAB4gUAVAAAAAAAAvECgCgAAAAAAAF4gUAUAAAAAAAAvEKgCAAAAAACAFwhUAQAAAAAAwAsEqgAAAAAAAOAFAlUAAAAAAADwAoEqAAAAAAAAeIFAFQAAAAAAALxAoAoAAAAAAABeIFAFAAAAAAAALxCoAgAAAAAAgBcIVAEAAAAAAMALBKoAAAAAAADgBQJVAAAAAAAA8AKBKgAAAAAAAHiBQBUAAAAAAAC8QKAKAAAAAAAAXiBQBQAAAAAAAC8QqAIAAAAAAIAXCFQBAAAAAADACwSqAAAAAAAA4AUCVQAAAAAAAPACgSoAAAAAAAB4gUAVAAAAAAAAvECgCgAAAAAAAF4gUAUAAAAAAAAvEKgCAAAAAACAFwhUAQAAAAAAwAsEqgAAAAAAAOAFAlUAAAAAAADwAoEqAAAAAAAAeIFAFQAAAAAAALxAoAoAAAAAAABeIFAFAAAAAAAALxCoAgAAAAAAgBcIVAEAAAAAAMALBKoAAAAAAADgBQJVAAAAAAAA8AKBKgAAAAAAAHiBQBUAAAAAAAC8QKAKAAAAAAAAXiBQBQAAAAAAAC8QqAIAAAAAAIAXCFQBAAAAAADACwSqAAAAAAAA4AUCVQAAAAAAAPACgSoAAAAAAAB4gUAVAAAAAAAAvECgCgAAAAAAAF4oMYGqIAjcIwCpwHcMAAAAAFBUpXIuLkvE1aU+ZqlSpdwSgGTjO4bioFOnTmbOnDluKTV22mkn8/XXX5uvvvrK7Lzzzq41+/3222/m4osvNmXKlHEtqbHNNtuYHXbYwbz88suupXjo37+/eeutt9xS6lSqVMlMnjzZfPfdd2a77bZzrdlv4sSJ5pZbbkn59rdixQpTt25d8/DDD7uW4uH22283H3/8sVtKja222spMmTLFfnfr16/vWouH0047zT1KHR07tP50K07Gjh1r+vbta0qXTm3+xLJly8yZZ55p7rzzTtdSPCxevNi0bt065etPP//ff/8177//vmsBUotAFYCk4DuGbLdkyRJz0UUXmTfffNO1pI4CYjfffLOpXr26a8l+jz32mNl1111NmzZtXEtq/PPPP6Zt27Zm1KhRrqV4OOuss+wFvIJwqdasWTMzaNAgs+OOO7qW7NezZ0/TqlUrc+yxx7qW1Pj9999tQOzFF190LdlPx29dwI8cOdJsvfXWrjU17rvvPlOjRg3TtGlT15L9vv/+e/P888+bhx56yLWkjv5Ob7zxhilXrpxryX767uq4cfTRR7uW1FCA79FHHzUDBw50LcXD22+/baZPn26uvfZa15Iaa9asMc2bNzfvvvsu5/tIC2pUAQCQ46677jK9evVyS6l12223md69e7ul7Ldq1Sp7spzqIJUokHPyySebd955x7VkP607faZ0BKnkpptustt7cTF//nwze/bslAepZN9997VZaQpOFBcvvfSSOeecc1IepJIrr7zSDBgwwAbHigtl6Og7lQ4KRijYUlzMmzfPfndTHaSSWrVqmXXr1tns3+JC3yNl43bt2tW1pM62225r9xPaXwDpUKIzqrSj+uijj8yff/5pn6tcubJp0KCBqVatmnvFlr744gub9hiNhiNoGEeVKlVipp7PmjXL/PHHH/YkRzvMZNHn01AS3RYtWmTKly9v9tlnH3PKKackNLRE6+LDDz+062b9+vVm9913tyd+RxxxhHvFlpRKq2EEUq9ePXsfj0TeN23aNJvaKgceeKDttY+XsiPU06AeG9H/qf9blEZds2ZN+zg/M2bMsCfCor+v1m2qaDiGLvoOPfTQtF20hNauXWvee+89c+SRR5o999zTteY2dOhQM3fuXHPddde5lo2ifceAbKF93zXXXGO373S54oorzGWXXWa/69nu7rvvNkcddZRp2LCha0mt1atXm7PPPtv27GY77TsbNWpkh/3pQiBdzjvvPJsBonOfbKfgR5cuXcxhhx3mWlLrr7/+sv/nq6++6lqyl85plc2nwG+qh02GlNGi82Btg9nuk08+sdmd6Qz8Khtt8ODBpmLFiq4leynAou9SMq+J8qPrmzvuuMNmwBUHysJdvny53f+lw3///Wf3F8q+1FBeIKVyTpBKhA0bNrhHQTBlypTgxBNPVIAu6u34448Pvv32W/fq3Hbeeeeo74m87bDDDkHHjh2DefPmuXdt1qtXL/uanJN511J0b7/9drD//vtv8XvoVrp06aB9+/bBggUL3KujmzlzZtCkSZOoP0O3nAuQ4IsvvnCvzu29996zr8k5wXEt8Yn3fa+//nqQszO0r805OAdr1qxxzxTshx9+CMqWLRv069fPtQTBqaeeuulz7bHHHrm2jVj0+cP39O7d27WmRs7B2v4/EyZMcC3pc/3119v/+5VXXnEtW5o4caJ9zZNPPulaNopnPQK+uvzyy4PJkye7pfT4888/g3PPPdctZa8lS5YEzZs3d0vpM2DAgGDo0KFuKXsNGTJki/1pOkyaNMlu99lO5y86z0m3G2+80R4Ps93AgQPtNphO69evt+fB//77r2vJXjov1T4wnbTd3XTTTW4pe82YMSPo1KmTW0qfTBzvU0Hfn9NPP91+n9JJ1wg6/gKpVuICVb/88kuw00472QvtXXfd1QaUbr/9dnvCcd555wXlypWzz5UvXz746quv7HsihYGq6tWrB3Xr1t10O+aYY4Ijjzwy2HPPPe3zulWtWjVYtGiRe+dGyQ5Uvfbaa0GpUqXszzzooIOCK6+8MrjzzjuD6667LjjzzDNzPff333+7d+X27rvvBpUqVbKv23bbbYPzzz8/uOOOO4J777036Ny5c7D99tvb5xTwGTlypHvXZqkMVOnz6Xm97pxzzgnWrVvnninYf//9F9SpUyfYZ599cgW3IgNVuhV0oqltJvL1xTVQpYNO+BnzC1TJ2WefbbcLXWiHCFQhW+lk+cILL3RL6dWjR4/g888/d0vZSce1Tz75xC2lj44HZ5xxRlZf7OoCQxcamfoMHTp0CH777Te3lJ0uvvji4Ndff3VL6aPghIIU2Wz16tX2XDETx+8XX3wxeOqpp9xSdtL589133+2W0qtly5bBX3/95ZayU6b2P3Pnzi0WnUTq4HjppZfcUvpof6HrWO0/gFQqcYGqNm3a2AtxBZeWL19u2yItXLhwU/ZM7dq1XetmYaBKAZRY3nrrrWCbbbaxr7viiitc60bJDFTpJH2vvfayP08BqmgnGt99911QsWJF+5ru3bu71s2mT59ug3J6Xidc0Q56CnDp99VrFJzQDj5SqgJVw4YN2xSkateuXcIn8k8//bR97xNPPOFaNgoDVbvssou9v+qqq9wz0Snwp9cpiKf74hao0nrVxbL+z/BWUKBKWYl6XeTFPYEqZCt1WChYlQnav7Zo0cItZR9l66oTIVN0sfvMM8+4peyj41O6s1kiZSqjIVmmTZsWdOnSxS2lX9++fW2wIlvdd999wYgRI9xSeumcQUGyRLLkfaPff+XKlW4pvXR+f/XVV7ul7JPpjM6ePXvGHCmSDfS9UUdNps69R40aZRMagFQqcYEqDcvTBfb48ePtcjThRbhuP/30k2vdKJ5AlYQX/rvttptr2SiZgSodpPSztt5662DVqlWudUuPPfZY1N9F6tWrZ59r0KBBvtlKy5YtCypXrmxfq6BYpFQEqiKDVMrqUnZUIvRZqlSpYoN0eddNGKi69NJL7X1Bw/9q1qwZVKhQwR4Q9PriFKjS9+Dwww+3/5++G2Hgs6BAlZx22ml2aKkyzoRAFbKR0v8zPfxJwfD8jkk+69atmx1inSna7+h4unbtWteSPdQb3ahRo4zvO7N5GMwFF1wQzJkzxy2ln84v9DfMRv/8848t+ZBJ6th96KGH3FJ20XVA//793VJmZHr7LwplNEVm5afb4sWL7eiAbPXAAw9kLMgcUoKDrg+BVClRs/7lfF5bgFXyKwB38MEHmw4dOpiOHTvaonGFUb9+fXuvgpuazjMVVq5cae9Lly6dbwHMnB2JadmypZ2Oet26da7VmC+//NIWgZR7770339leVNRbxcj1uapWrepaU2PYsGG2wKbWvQosPvnkk/YzJkJT92oWEf2c7bbbzrXmpiLqKryqIsqffvqpa81Nhdd/+uknW7Q31s8ZO3asufDCC03dunXtrCU5B1+TcwJjt7f8fPDBB6Zdu3b2fZrt6cEHH8z194lFU2P36tXLnHjiibboeePGje0MMOG2nYjzzz/f5Fxk2kkEvvnmG3PQQQe5Zwqm70fOBZZ55JFHXAuQfTRbk6aazyQVcdf3P9toX5RzsZu2AtbRaAIHFaTPxunGNVOTjnGZnoTif//7n/0eZBvNurfLLruYvffe27Wkn84LmjRpYs9bso32Od27d3dLmaGp7t977z2zYsUK15IddO7z1FNPpa2AdSw6dmXjd/fzzz+3s2dmciIHTaakc2idi2cbfV/Gjx9vr+8ySdeF99xzj1sCUsCGq0qAsMfyuOOOsxkjqilVmF6IeDOqlM6v16kIeGRvaTIzqpYuXRrknCTZn6eso0TTj3NOTu17cw4WrqVwkplRpcK4YSaV0nILS+nY+hlKTc0rzKhSL16fPn3sY2UFRKNilXp+9OjRtliwHocZVUq7bdWqlW3TTVlX4TBL3U444YSodcG0PWi4Yfg6DacMh19qu9TfQ4+jZVQNGjTI1goL36vtMaxDVq1atYTrdGg9KXstFK6beDKq1Bul/1ufWcMHI7dzIBso7V/Zrz7Q/ijTvaOJuuiiizJSGygaZYZkaghOYSib5ayzznJLmZeNw2Bat25d4EQx6aAMbh1Ls6lWmuqnqsaRD5RNqnOxbPL888/bmw8uueQSb/bD8dL5dKy6uemkEjDZWGdOdYTff/99t5RZGvqf7bXS4K8SlVElffv2tdlUyiZSNP+MM84w999/v/nqq6/sFL3JsH79epsFJPXq1UtZb6mmpb311lvt46efftr2TLRt29Y+/uWXX2x7fpRJI8cdd5y9zzRN86wMH2VSXXzxxYWO0mv9f/TRR3a9K+soP8p+klgZUK+88orZeeedzWmnneZaNlMv/uuvv2722GMPO0W6MguWLl1qs7MOOOAA+ztEm3pZU+IqC2n77bc3b775plm2bJl975AhQ8ykSZNslkI0EyZMsFlM2k5vv/12+76ck00zb948+//MmDHDThmbSGbV6NGjTc5Bxi0lRr1RmlZfv8e3337rWoHscffdd5ubbrrJLWWW9iePP/54gZmYvlCmadmyZU316tVdS2ZdffXV5qGHHnJL/lMW8/XXX++WMu/GG2+034ds8dlnn9nj7G677eZaMkfZ6BdccIEZNGiQa/Ffv379zA033OCWMuuUU06x5+BLlixxLX7TOabODdu3b+9aMksZkXfccYdb8p8y6I455hiz4447upbMqVChgh3R8Pbbb7sW/+l78t1339nf2wc333yz6dOnj1sCkqvEBapOOOEEG1SoUqWKDYiMGzfO9OjRY9NOU8PjXnzxRXsgys/cuXPNzz//vOk2bdo0O3Rq8ODB5qSTTrKPRSd/qaQTDZ2clytXzixfvtwePC+55BJTo0YNs+eee5qLLrrIvP/+++7VuS1YsMDeK9CSaUOHDrVBtnCopf5Gixcvto8T9cUXX5hVq1aZ/fff35QvX961RletWjVz1FFH2eF/4TDI0Ndff21+++0307p16y2Gik6dOtUGnBQMGzVqlGnYsOGmgKQCfzoQ6//WsEDdIoXBxQEDBpgWLVrY92looz7/Y489Zp+LRsP9dBGrVFv9DA3HFAUoFeSqXbu2DVDq90qXcMiPUpCBbKJtVkN1fThZlm222cYGjbUPzwa9e/fO+JDJSOpM0D5bnQW+UweDAn06H/GFvgf6PmTLMBgFWnQs9IUCVeq4imf4fqapc+uPP/6wf29f6FxZf9NsoI7ozp07J1ySIlV0PaOOwx9//NG1+E3XLBru7ovLL7/cDh3Plk4idSj4EmSWI444wgbPtE8Bkq3EBark1FNPNdOnTzdvvfWWzVDZZ599bLvG/CqqrvpUugDPL0tEvbeq5xPeVO+oTp06todFGTUKPqjHVAGMVNPvoh2EDp4a769MK1Hw5bnnnrOfV5k2eQM/YWAlv9pU6aDglDKpNOZfUXn1kCoQqLpPhaGgoRx44IH2viBh1pMyuiIp+CP63fIaMWKEvde61Rj3vHTiEP5c1csK6URCfysFmcJsrkiqWVWpUiW3tJnWh7IAJdoBXn9LBSVF23W6aLuXcJ0D2eLhhx/26mRZdDxSVkYYsPeVOmL22msv2xniE2UoZcPFri401AvtG51LPPDAA27JX+oIUm3HaMfKTNExWPWKsqFWms6zlIXjE3UWK5s87ED1lTLW33nnHdOqVSvX4gdlBmdDVovOTxs1amQ7132hTiJ1GqvD3Hfz5883c+bMsd8Xn+h4lo210uC/EhmoEgVnFNRRIEdFt2fOnGmHzKkwnU44dOGtHtpZs2a5d+SmLCRlLUXelNGiHbBOAPR+ZWqli3pDlUmlg8Dff/9tg2waOqffSXRg1e+mYFAoLGJY2MylZFJPhta/DrZhRpAylQpTYHjhwoX2Xj1M8WjTpo29jxz+p3sFrnQxFhbGj6Qi65LfweLYY4+191OmTLH3ol50UcH+aAX9tV0efvjhbmmzcJimnlcmgwrw5r0pC03C3y0dwnUcrnMgG2g/qf27TyfLokkxFHB+9tlnXYuf7rrrLpvh6Rvtc3Wxq0lMfKWOCl2MqxfaN8oCPv30083w4cNdi580dF5BNd/onFJZ+uFENz7Sua6CLToH8Y0yNH0Ptmjimquuusot+UMdvBqGrSLlvtL1xxNPPGGvVXyj4+4LL7zgfSeRzv99CzJLmBgQT9kZIBElNlCVl+pVqS6SMmXUW6ydvlIZVb8qGh2sFIyKvGnYgQJCiirHm82TCkpHVpaP0uL1O2k4ooJvqgEQeQKqzyzx7li0A09VUEtZBFr/ooBa165d7WNdDOkzJCL8HTX2PB6axVC9s5HD/yZOnGizmJQVFWaeRQqHl+QXDAt7e1V/KhT+bmHWWzSqiZVXWLtBQ1I1PDDaLRxjn86hL+E6VnAUyAYKQiv7VDWhfKShxqpdt3btWtfilw8//NAGWaLtp3ygIUQ+X+zqd/NpyGRe+l7o++HrMBido/kYZA5dd911NlvTV7rQDcsP+KZWrVr2fClWB3Gm6XdTbbR0jJQoDJ3z+5xR+tJLL9lzatU29I06iTQiRskLvlInjILM+p74KBsCzcg+JSpQpR24TrAL2pEryBOO/w2HW/lImUDaYanIdn5UO0HTJ4vqN4UUEBIdeOPpAdTrNBW0CmgnM2AVHiAiKUCoIZUKzOhzRgZ7ChIeBFWzK17hML0w9ffll1+299GG/Ul4kpzfegunW46skxUGr/J7X7QLVE2BLRqmqmGr+d1UkD1dwnWs1GkgG+hkWcNufTxZFgXGlSGpwuo+0tCwa6+91i35R8P2dbxQprRvtH9WVoEysH2l74WOufqe+EbBMw2t8zXILCpwrIx2HwuDq7bmtttuu6mT0kcKoimY5iONUkjnSIlE6fxSWaUaGusb3wrQR6PrAGVb+9pJpCQIH4eMh/bee297jfj999+7FqDoSlSgSjsfDaEKgxD5CQvsZrp+U3403EonHvHUJIr2eXRCpQObDiDKECtIeOGkE+1U96YrMKMaUfp9laqeSKrw7rvvbu9VsDZeymIQFUPVrHq614xCKrQeTTjTVX7FK8PheirqHlLxdtEQwMhhmJGiZbiF79OwEX0+Lee97brrrjZglM6T0HDIn/5vwHfa12m/4vPJsjRu3Nh2QITBbl8oa1MzdMWbrZopGhrh48WuZubyOZsqpFqJClQlaybkZNGFriYc8DXIHFKtNM0w7Rvfs/lE50s679MkRT7RuY4CzZrJ22caluhjRp9vBeijUSeRguA+1pnTNYOuiyKvJ3ykJA+VBgCSpUQFqtRLqB2RAgj57ch1MfPUU0/Zx9HqE/lCs8SJxnwr2ykWDWELh/w1aNDA3otO9m6//Xb7WCf1eWe9i6T6TWGAL9UzGYaU2RYW51O9qPBvUpBw2GUiM1CEtag0/E8Zd6pxEq7faMJsNNXR0nvy0gVmOHvXGWecYe9Fs+wo0KSMtHCoXiQNz/z111/d0mbKYlNdNPUo9+/f37Xm1r17d5txpToZ6RKuY58zBICQ6uBpiLHPJ8shfZ8LU6MvVbIhmyWkwL1qAPp0satODQ0VV6+z75TlrItKfV98odIDmpG5sJOspJNqV+rYqMLHvlAJBZ3nhLVJfeZjoNm3mdZiUTDjzDPPjKsDO100XG306NHm7LPPdi3+0ugTzZTuWyeRgsyq4es7dVprNEx+15NAQnJOPkuEDRs22Puck2wVXrC3nAv64N133w2WLl1qn1uyZEkwfPjw4Nhjj7XP77zzzkHOiYZ9LqQ2Pffaa6+5lsT06tXLvr9hw4aupfDWrFkTHH744fbnbb311sHVV18dfPXVV8GqVavs5805UQqefPLJIOfE2L6mfv367p2b/fvvv8Fxxx1nny9btmyQsyMMfv/9d/dsEMyePTvIuWAKci7s7GuaNm3qntnsvffes8/pNRMmTMj3tmDBAveuze/LOSl2LVvKOTkNTjjhBPu6bbfdNpg0aZJ7Jra///47KFWqlL2Ff9tIp556qv15Dz30kGvZqH///rZd60H306ZNc89spO1F7TknUHa5QYMGdvnoo4+26zq0ePHiIOdEwT5Xq1Yt+3eKFP4/u+22W/DNN9+41iD47bffggMOOMA+p5vWV6TwfVoPb775pmvduG3nXEBuet/48ePdM4kL180rr7ziWvJ3yCGH2NfnnIRs+o4BPtJ+Meck1C1lh9atW9v9mQ+GDBkSPPPMM27Jf3Pnzg06dOjgljLv3HPPDf766y+3lB30fdH3xgdPPfVU3MclH0ydOjW44oor3FLmtWrVypt9STx69OgRfPfdd24ps+bMmePVvqQg69atC8466yxvzsn69u0bjBs3zi35T+feffr0cUuZ9/XXXwc9e/Z0S/77559/7PUSkAwlLlC1fv16e8AJL+rDm4IakcuVK1cOPv/8c/ueSD4FqmTevHlB7dq1c/3uuuX9PHXq1AkWLlzo3pXbihUrNgVWwlu5cuWCSpUq5WrTRdPq1avduzYLA07x3AYPHuzeFV+gSmbNmhVUrFjRvrZmzZrBypUr3TOx1a1b175eAZS8YgWqFJQM19sRRxzhWjfLG6hScOqggw6ybQpuKXB1yimnBOXLl7dt1apV2yLYJdoW27VrZ1+j4J4ChSeddJL9GTvuuOOm4GPeQJV07tzZPqdbjRo17Ha03377bWrr16+fe2XhJBKoUhBQ60vbirYhAlXwmb4b2XSyLL6coKpDo3HjxvY+m1x33XVeXOx+8sknwS233OKWssfYsWODe++91y1ljjp7fLrwjpeO1zNnznRLmfPhhx8Gd955p1vKDosWLbLnnD7o2rVr8PPPP7ul7PD8888HL774olvKHJ0ntmzZ0i1lD58Cu/oeqAM8m9x///02EQQoqjL/lyPnwrREyLmotkM+lH6q+kxKb1+2bJlNS1UtBhXIPuSQQ2wh2xdeeMEOH8hL6YxKnVZ6qGaLS5TqLanQq2ofaRrootp+++1tir7qKYlmfMs5qbP1j1SXSsPZlEat4WKRRb0jaQigCq7rs2td6GeEP0dDFTTDzkMPPWTTTjWcIi+9VkMsVBupoJtqr4RjrMP37bfffvmm82uGPH0+Temtz6C/YazaUaF169bZGRi1DvR/RtLQT31mrf/IKZpVd0Wp+vo/NLwl7/ThkydPtv+3arSoYO8OO+xgOnbsaLebefPm2Z87Z84c+/muueYa88wzz9hU+7y0HeYcuO3n1iweep/er/WsIY5a7+F2mjdNv1mzZubwww+39bc006RqlGnbPeGEE+yU3Z06dXKvLJxw3eRcFNjfLz8aTqohoSpMrZvoswG+0T5X+8B0DVtOlj333NMei44//viM1oXSvkxFenWMyCZ16tSxxy3VNcok1Y257777sm7SCZ0D3XvvvfYYmsnfXfUxdbzOtiHmOk9Q+YJ0DsePRtuf/o46tmcLnVepLo/OOatUqeJa0091qTQLtM71som2PRXeVskTnU9mirb/iy66KCuGPEfSebyGPuu8PJM++ugje12m4ZzZRKVbNPFArAmpgHiVUrTKPS7W9DHzu4hWYCObDuIFUZ2tohSCVz0IBbuK8jMyadWqVTaQqM+hGlLpOskuaDuLpjDvCenzKeCaCbpw0OwyCm7ppKgonwNIJZ2wN23a1AZbso0u1nShHs+EF6mgwLkCPSNHjnQt2UWziOkkX8G+TBgzZoydidXn2cLy8/nnn9t6ipmadlzHcl3s+FRzJxEKEl166aUZm1JeHXaqe3n11Ve7luyhWYU7dOhg3nzzTdeSfur8U7Al2wItokmB1Kmp7S8TVOtV2108E1j5SB34muU2nKApE9Rhrdp8vk9gEo3qCivRQMFSoLBKVDH1/BSnIJUUNcCk4Ee2BqlEvXG6MNAU0W+88YZrTb3CBGqKEtzJVJBKmWAKUuniX0EqwFearem3337LyiCV1KxZ085Yq+9cJjz22GOmW7dubin79OzZ09x///1uKf2Uyacs7Wyl7422vXCG13TTxDfZGGQJKaNdhbgzRUHubJgAIRqNGFC2uIK9maAAs2bGzsYglbRq1coGKtXZkAkKbmv7z1b63TM5g50K0Gv7z8YglSiTTkE2dagDhUWgKoM0ZGvlypUJ35QthYJdccUVduiMpolWdhiSRyfeCpKFs0YCvtKJZjafLIuGr2ViFixlNHz66aemYcOGriX76GL3uOOOM2PHjnUt6aOMBg3X3nbbbV1LdtKQ2UxcsKk8wDfffGNLNWSr3XbbzWZ3f/nll64lfVRKQBkZ2TbkNFLXrl1jznScajrPyYaZ1vJz+eWX286GdJs9e7a9XslUJmEyqJNIs//NmjXLtaSXgsz6+2UrXSO0a9fODBo0yLUAiSNQlUFDhw61kfJEb0pFRcG0rp599lk7LfjgwYNdK4pKtbFUs0ZTNWscOuArnSyrDmE2nyyL6vupdp6GAaaT6tp0797dLWUvZTSl+2JNvcg6/qhXOdupNpmCRqrBmE6q63X99de7peylrL577rnHLaWHtj9dIGZbbaW8FORVsFdB33T64osvbJ1OTbefzdTJoM4GdTqkk4ZLash9trvlllsyMux52LBhdrvP5iCzaNifRrWovA5QGCWmRpWPpkyZYms/JOqkk07K2mEsmaAaJTrBfu6551wLikLDaHQSp+BfYYfMKhVdAYRMjv3Pj+o66LOpYL6PVHxfJ9C+Ds+dMWNG1Mko0k21OXr16rVpAodspskkNJxZqfTpsHjxYpuV+sorr7iW7PbEE0/Y7BZlmKTD888/by8y2rZt61qym4bPKtgycOBA15JaGmqoIX9DhgxxLdmtX79+5phjjklbdpiCpOqsKw71YRR0U0H6ESNGpK0wuOryaR36eg6QCAWqVKpB58LpoEmSVFMxU5lwyaah7+rsSNdkDtreW7RoYevyZaq8RzJp+KkmJVC9vkzSebMmCPM1w1lD7NUp6auMndcrUAUA6TRp0qSgb9++bsk/AwYMCEaNGuWW/NOrV69g9uzZbsk/jRs3do8yZ9q0aUHOyaVbKh5uuOGG4Ouvv3ZLqdW9e/fghx9+cEvZb/369UGTJk2CnIsA15I6a9euDZo2bRps2LDBtRQP+j7pe5UO1157rT1OFBerVq0Kmjdv7pZSS9uftvXitP0NGTIkeP75591Sao0fP97r85PCOO+884JFixa5pdRq37598Oeff7ql7KfPos+ULs8995zd3ouTs88+O1i+fLlbygydN/t8TGnbtq175KdMndeTUQUg7VR35MEHHzQXXnhhxqZOVsaIZoSMNuW+ireqgLVSrzNFdRG0e47Ww6JZdA4++GBz+OGHu5b0++WXX2yPverA5aUhO+eee67ZZ599XEv6qTadhkkfeuihriX7aZtVvS319qeSMgo1bEg9ocWJsoGUhZjqXkvNUqZJJrp06eJaioc//vjDfq9SnZWmYYbKSCtMxrnPtF9UVt9ee+3lWlJDmRhHHHGEufjii11L9tOxUDMApnooo85HtI8dPny42WWXXVxr9vv444/NBx98YOrVq+daUkOZM8rgKm51ia677jpz4okn2nOeVNJ2rsy3999/P+trG0Z69913zbfffmvq1q3rWlJD5/Qa5nrggQe6ls103lylSpWUfwfyoxlY9XeNdm6smmSaoCqT580qlaP/f8cdd3QtmykrWPvfWCNhtO9UBmrt2rVdS3IQqAKQdjNnzrTDOlTkOFOpzRp+qJ2yhmPkNX/+fDvUJVNT2osuClXI86CDDnItmylFOJOFSjVTpWqVaWhTtIt+rVfVVMrU8D9tU1OnTrVFoKtXr+5as58m0tBwilRPqKHvhk4NbrvtNtdSPGibGDlypFtKHdVG04xb2VwEPBptdxrSo4lgUkn1TLT/uPbaa11L8fDdd9+ZcePGuaXU0fanqfV1fC1ONBRPQfRUUiBbF5OqSxTtYi1baei4ho2nemIhDdk94IADil2Q/sMPP7QlL1Jtq622st9fbX/aBxYX2v5eeOEFe16RSn///bct9RKtE1edv+rsO+qoo1xL+mnfooBOtHNjDZnV3z+T582a9EOTf0QL0n/11Vdmjz32iDkLqvaXmiW1devWriU5CFQBAAAAAADAC8z6BwAAAAAAAC8QqAIAAAAAAIAXCFQBAAAAAADACwSqAAAAAAAA4AUCVQAAAAAAAPACgSoAAAAAAAB4gUAVAAAAAAAAvECgCgAAAAAAAF4gUAUAAAAAAAAvEKgCAAAAAACAFwhUAQAAAAAAwAsEqgAAAAAAAOAFAlUAAAAAAADwAoEqAAAAAAAAeIFAFQAAAAAAALxAoAoAAAAAAABeIFAFAAAAAAAALxCoAgAAAAAAgBcIVAEAAAAAAMALBKoAAAAAAADgBQJVAAAAAAAA8AKBKgAAAAAAAHiBQBUAAAAAAAC8QKAKAAAAAAAAXiBQBQAAAAAAAC8QqAIAAAAAAIAXCFQBAAAAAADACwSqAAAAAAAA4IUSE6gKgsA9ApAKfMcAAAAAAEVVKufiskRcXepjlipVyi0BSLZEvmMff/yxadGihTn88MNN6dKZiZdvu+225ttvvzUHH3ywa9nsr7/+MvPnzzeHHXaYa0m/FStWmMWLF5uqVau6ls3mzJlj1q9fb/bff3/Xkl76O+t32GqrrUzlypVd62bTpk0z22+/vdlrr71cS3rp9/rpp5/MSy+9ZOrXr+9as9/q1atNkyZNUn4s22abbczff/9tPvvsM9dSPLz55pumf//+KV9/ixYtMhdeeKG59tprXUvxoO3vrLPOSvk+u0KFCmbt2rVm9OjRrqV4ePHFF83zzz+f8u1v4cKF5sorrzSXXHKJaykezj33XHtMTKWKFSua77//3kyYMMHss88+rjX7TZ482Vx11VUp/+7+999/Zueddzavvfaaayke7r33XjNmzBi3lDpadz/88IP55JNP7OPiYtKkSXb7K1OmjGtJDW1/M2fONNWrV3ctm+mcdeXKleaggw5yLemn6wr9jtHOjWfMmGGvSzJ13qy/zZQpU+w5faVKlVzrZvob7r777ma33XZzLblVq1bN7LDDDva7klQKVJUEGzZscI8ApEIi37GcHV7Qt29ft+SfAQMGBKNGjXJL/unVq1cwe/Zst+Sfxo0bu0eZc8cddwTjxo1zS8XDF198Edxyyy1uKXXWrl0bnHHGGcG///7rWoqHq6++Ovjpp5/cUuq8//77afk7pdvYsWODnJNQt5Q64faXc0LvWoqHzp07BzkXUW4pdYrj9vfXX38Fbdu2dUupdckllwRTp051S8XD008/Hbz22mtuKXUWLVoUNG/e3C0VHy1btgyWLVvmllLr7LPPttt7cXL//fcH7777rlvKDJ0369rDV+navxVWps7rqVEFIO3UY77vvvu6Jf/svffeZpdddnFL/jnwwANtz4uvjjjiCPcoc5TN8sADD7il4uGee+4xPXr0cEupU7ZsWXP++eebQYMGuZbsN3v2bJulmI7e1JNPPtlmMCizpThRNpoydVJN25+yZ5SBVFwow7NcuXJpOe5p+1Pvd6qzj9LprrvuMjfffLNbSq1bbrnF9O7d2y1lP2UnDh8+3LRq1cq1pI6ygGrXrm3ee+8915L99FmOO+44my2SDjfeeKPp27evW8p+y5cvtxliDRs2dC2ZofNmXXv4KpMjOOKRqfP6Ej3077fffjMfffSR+fPPP+1zSndr0KCBTV+L5YsvvjD//vuvW8pNwyW0k65SpUrM9MZZs2aZP/74w6bV1apVy7UWnT7f119/bW8adlC+fHmbtnzKKacklD6qdfHhhx/adaOhRUrzO/bYY/PdQJctW2ZPyqVevXr2Ph6JvE9DicKTLu1sdt11V/s4HhruMX36dNOzZ0+7rP9T/7fstNNOpmbNmvZxfpSSqZRN0d83lSnh3333nVm1apU59NBD03Zg1PpRuqyGa2m71H0sQ4cONXPnzjXXXXeda9ko2ncMyKSHHnrIXhhqmGm2e//99+3+/frrr3ctqbVhwwbTqFEj8/bbb9vAQba79NJLzQ033GD2228/15JaX331lXnllVfM/fff71qy2+uvv26Hg6ZrOJmGRzRu3NiMHDnSbL311q41e7Vr184GzmMNm0i2L7/80rz66qvmvvvucy3ZS+fMt956q3n22WddS+pdc801pkOHDuaoo45yLdnr4YcftufN2p+ngzoEFGgeNWqUa8luzZs3t+e96ewcbNu2rf3uZmoYWDLpu6t9ua4lgYQpUFUSRA5LmjJlSnDiiScqQBf1dvzxxwfffvute3VuO++8c9T3RN522GGHoGPHjsG8efPcuzZT6qFe07BhQ9dSdDkXEsH++++/xe+hW+nSpYP27dsHCxYscK+OTunoTZo0ifozdMs5WNthJ9G899579jVlypRxLfGJ9305J8jBVlttZV/btGnTYM2aNe6Zgv3www9BzkVW0K9fP9cSBKeeeuqmz7XHHnvENWRNnz98T+/evV1ratSqVcv+PxMmTHAtqZNzMhsceeSRmz6bbttss03QpUuXmGnOEydOtK978sknXctGDK+Fb7SvKC5DiDScYtWqVW4pPTRUJOcixy1lr2nTpgVXXnmlW0qf8847L5gzZ45byl4aAqq0//Xr17uW9HjllVeCxx9/3C1lL5073XDDDW4pfdq0aRPMnTvXLWWvSy+9NJgxY4ZbSg+dM2u4V7Zbvny5HUqWbg888EDw5ptvuqXspc+gUhDpNnnyZLvdZzsNYTz33HPdEpC4Eheo+uWXX4KddtrJXmjvuuuuNqB0++23BzfeeKM9qSxXrpx9rnz58sFXX31l3xMpDFRVr149qFu37qbbMcccYy/499xzT/u8blWrVrXjtSMlO1ClC4lSpUrZn3nQQQfZk/E777wzuO6664Izzzwz13N///23e1duGjdcqVIl+7ptt902OP/88219F9WiUE2F7bff3j6ngM/IkSPduzZLZaBKn0/P63XnnHNOsG7dOvdMwXRxWqdOnWCfffbJFdyKDFTppsBLfrTNRL6+uASq9LkUVNX/deyxx9rtRtvn3nvvbdu07lavXu1enZtOfLRd/Pnnn66FQBX89MwzzwSDBg1yS9lp+PDhQf/+/d1SejVq1ChYsWKFW8pOHTp0yMgFu+rcKOif7Z5//vlgyJAhbil9dEzRuVKs41C2aN26dbBkyRK3lD662L3sssvcUnbSeUrXrl3dUnrddNNNwUcffeSWspPOVz/88EO3lD5hJ1E2nxfqdz/rrLMSuu5IJl2fTp8+3S1lp+7du9uEAaCwSlygSj1MughXcEk9DXktXLhwU/ZM7dq1XetmYaAqv6KEb731ls1K0euuuOIK17pRMgNV2nnutdde9ucpQBXtgPDdd98FFStWtK/RDiMv7QQVlNPzylaKVsBPAS79vnqNghN5T/hTFagaNmzYpiBVu3btEi7sq+KReu8TTzzhWjYKA1W77LKLvb/qqqvcM9EpgKPXKYin++ISqDrppJPs/3PhhRfm2naUSVWtWjX73KOPPupac1NWYvjeUDafkKD40n7j9NNPz9jJZlHpe6Vs10z9/urI6NOnj1vKPjoG9uzZ0y2lny42fv31V7eUfVTYXNtfpvbvI0aMSEsB91RRYfO7777bLaWfgrTpzkZKJp1jZCorTMFFbfvZSufuuubJFGXdv/jii24p++h3z+Tvr++tvr/ZStnEOv4BRVHiAlVhBsn48ePtcjThRbhueWcIiidQJT169LCv22233VzLRskMVOkEXD9r6623zndIyGOPPRb1d5F69erZ5xo0aJDvhZCCF5UrV7avzTuEIhWBqsgglbK6Eh26o89SpUoVG6TLu27CQJXSanVf0PC/mjVrBhUqVLC9Q3p9cQhU6cRP2Xa6RQtOaoYO/Q7KpojltNNOs0NL1eMpBKrgq6FDh2YsI6modKKsjJZMUidGrIxc3ymbJW9mczppWL06WrKVhn4qWJRJGnb4zz//uKXsou/OypUr3VL66WI3skMpm+gcV6MDMklBxtGjR7ul7KIA/ddff+2W0i+bO4n0O2u/k+myAcom9HmmuvwomzibO2nghxI161/O5zWrV6+2j7faait7H83BBx9siyh27NjRFvQsjPr169v7v/76y6xZs8Y+Trackx97X7p06ZjF2yXnRMm0bNnSNGvWzOTsfF3rxmKbmolB7r333nwLlqqot4qR63NVrVrVtabGsGHDzHnnnWfXvWYYevLJJ+1nTMQbb7xhZ3nSz9luu+1ca24qoq5ZFlRA/tNPP3WtuanwumbrOfvss2P+nLFjx5qcE0FTt25dc/TRR9sikq+99prd3vLzwQcf2AKrep9m6XnwwQdz/X1i+f33302vXr3MiSeeaI488khbpPDRRx/dtG3HY8cddzQTJkwwL730UtTC9GEx9fy2XX0/NmzYYB555BHXAvipTZs2tih4It8RH2jiDhXkbt++vWvJjJtuusnkXLC5peyh49shhxyS0IQiyaZi/po85YcffnAt2UPnGOPHj7fnEJnUvXt3e3zMNppprWHDhna2v0zZf//9bRHoKVOmuJbsoZnPtO/JpKuuuspOypFtNPmPzm01A1+m6Lqkc+fO5qmnnnIt2eOZZ56xv3ui1x7J9r///c/ceeedbil7/PLLL/bvX716ddcCFJINV5UAYbbHcccdZzNFVFOqMEVO482o0nAzvU5FwCMzTZKZUbV06dJgu+22sz9PWUeJ9trl7ADte3NOpF1L4SQzo0qZD1pWe1GGa6g+l37GqFGjXMtmYUZVzsmHHdKix926dXPP5qYaBXpePWoqZqzHYUaVxuC3atXKtummrKtwmKVuJ5xwQtQsBG0PGm4Yvk7DKcPhl9ou9ffQ42gZVaq1o1ph4Xu1PYZ1yDRcLxm9F+oF0++un6lhj7EsXrzY/t/6zHoPGVXwmfYFORc+bik7qIhrQceadFGNwMiadNlA+2wfMnG03rT+so2Oj6kegh4v/S11zMkWOh5msr5NJGVQZ1tBY9UOveWWW9xSZqkEgrL8s4nKjqhGXqbpe6DrnXRPBFIU+l19GvKpsi2xJrPyVabqQqL4KVEZVaIeGmVTKZtIPZ1nnHGGnT5aU0mr9zoZ1q9fb7OApF69eimbsr9ixYp22k95+umnTeXKle2UpnqsaHZBwh7e4447zt5nmqZSPv/8820m1cUXX2zuuece90xitP4/+ugju96VdZQfZT9JrAwoZTOoN/60005zLZtddtlldsruPfbYw7z77rsm54LILF261GZnHXDAAfZ3UEZXXs8//7zNQlLW0ptvvmmWLVtm3ztkyBAzadIkmzEVjTKglMWk7fT222+371u0aJGZN2+e/X9mzJhhck6MC5U1onU2ffp0+3m0zep3V0+cpmiOZaeddjKHHnqo/T2+/fZb1wr4SZmHORc/9juaDZTNqOm9W7Vq5VoyK+eiMat6dseMGWMaNGiwKTs0k3Rsrlat2qYM5mywZMkSu18v6BiaLjfccENWZfUpW7l169b5Zqqny5577mmnudd5b7bQ1PzK4vdBly5dbFZQYUdYpJvOIXX80KiBTNN5uLLSsinz/rHHHjPdunVzS5l34403mrvuusst+e/77783u+yyi93vAEW2MV5V/EVmeyiTR/WL9PEjb8qIUT2BF154IWYvWJhRpboNmvI6vKmWlcaCq57I8ccfv+lnqhBtpGRmVIWUGRTOVhh5U+2lTp06xazHpewdva6oNQCSkVGlaahV7yj83VUkvrB1RT7++GP7M5RhFE1kRpWExfP1vkia9VHt4aw5kRlVYR0zZRTlnMzb5yPNmjVrU5ZUzgWTa90onFVv8ODBrmWzZ5991j6nW96e7PDvpW0oL23fKv6v5wsznXe4zsLbgQceGMybN889G5tqr+j1quNARhV8pxmclCWZDVRAOu/xI9Pat29vay5lA2Wz+DRbnAoz6/wiW2S6vk00qjeWDVl9vtS3iaSJgjRbbzbQfs+3Avo6N8t0rcB4XXTRRd7tp7U/Vq1b3+l3bNGihVvyx6233monZsgGma4LieKlxGVUyamnnmqzR9566y2bobLPPvvY9hUrVtg6JqpPpdpF+WWJXH311eaggw7adFPPRZ06dWwtEWXUqBdBdZ9UnyDV9Lv88ccfNourefPmNtNKND79ueees59XmTaLFy+27aEw0yvTPX7qpVIm1YYNG0yfPn3MbrvtZubOnWvrPhXGtGnT7P2BBx5o7wsSZj0poyuSMpxEv1teI0aMsPdat6oTlVeVKlU2/VzVywr9+OOP9m+lml9hNlck1axSPZO8tD7C3tBoWU76W+acnNjH2q4Tpfdfd9119mcfccQRNiNPWWHKSshP2GMXrnPAZ8qw0baq2oE+W758uc3+SsfxIxHK4FU2p++UIau6SqrN4wvt14899tgC96k+0LmDjlOZrG8Tjeq19O7d2y35S9k3Oh5nur5NJGU4qF6bMrN9p5qbqk/qE10X6JxQ2ec+U01V1VPViBGfXH/99aZfv35uyV+6bvMlky9Sjx49bJah7z7++GN7TZzJupAoXkpkoEoUnFFQR4EcFd2eOXOmHTKnk1tdtOtiRsO9Zs2a5d6Rm4Z71ahRI9dNJ3WNGjWyJ1N6v3Ys6aLi2JdccokNUvz99982yKahc+GJ5jvvvGN/NwWDQhqOIHkDWJkQBIFd/yqcqaFxomEvhSmgunDhQnuvoWnxUKFliRz+p3sFrpQuHxbGj6Qi63LMMcfY+2h0USKRRUx1EiEq2B+toL+2y8MPP9wtbRYO09TzOlHXSVzem4YfSvi7JULD/TQEVutb246KtauQrorwh+szmnAd5/cawCfZMITN15NlFUbdZpttvC7MrI4PHdc1fNw36gjIhqLg6jDS98Q36kDUUPNYw+N9oKH3o0eP9mbIbiSdk2rf4jOVH2jSpIlXQWYpU6aM3aeEZT18pfNDXYP45oQTTvC+k0jnsb/++qs5/vjjXYs/NIRdky4pmcJnuo7w8dwF2avEBqryUu+DDkLKlPnmm29sVo9qNOhLF416fLTTjbx9/fXXNiCki6B4s3lSQb14yvLRzkK/0+DBg23wTXW4NAtNKOxxiaeelegCIFVBrUGDBm26sFBArWvXrvaxAib6DIkIf8cKFSrY+4JoFkPNvKde5LCGiLIZlMWkrKgw8yxSWOcmv2BYmBml+lOh8HcLs96iidYToW1R1Jun8fPRbuEBrKg1ePR5daGii9JVq1bZWhuxhOtYwVEgGyhjUN8ndVD4SHXnFNBW8NhHCmD4nNXywgsv2FqN+c3smyma/U3ZzboY99Vvv/3mTX2baHzf/lSLRzV5fKRMbl3sjhw50rX4RR2p6rD0Mcgsvs8eq3N8da6GndC+ufnmm72utaTfTbXwfKUOaZ3rhx3qvtH1rwKSPtSFRPFRogJVSjvVRUpB6acK8oQ7K5+LT+qgWatWrQJTuS+44ALbQyVffPGFvRcFhOSzzz6z2TMF0euUPq4C2skMWKmnKu/06woQKn1UgRl9zshgT0HKli1r7zV8Jl7hML2hQ4fa+5dfftneRxv2J+F00/mtNw0llfLly9t7CYNX+b1v7dq17tFmSuUWDVPVsNX8birIXlT6myh4J/kFMsN1rCwLIFvoYveOO+5wS35RwWid0PtKF0IqkurjsXHdunU2M1bHPF9deumlNivD18LM+l74mJERUiegOlN+/vln1+IPdRLpPOn00093Lf654oorTP/+/b282H3xxRftd9eHAvSx+FwYXNc2Krztq6OOOspmLfnYSaShzupw1TWir5Rl2KJFCzvJk2+0P9F+5fLLL3ctQHKUqECVAgAaQhUGIfKjoXTi8wFTO/ypU6fGVZMo2udRz5oCJwoGKUOsII8//ri9V69XqscfKzCjegD6fTUsU8Ma47X77rvbe2UmxEuz84h6ujWrnu5Vo0kH1miUbSSqORVLOFxv//33t/eimZ9EGRORwzAjRQsMhe/TwVSfT8t5b7vuuqsNGMVTm0DDGvfbbz8762Us6lWXMEgWTTjkT/83kC00VFuZp8qE9YmyOBcsWOD1ybJoiLaPM7A98cQT9lgRLQvWF+pIUQeIMr98o2Hjyrrxrb5NXr4O31W5BZ8zMkTHc5W90DmAT3QeqgvwWJ2DvtDssarDk0jnaTqow1plI8JzfV+pzqGP311laeq45rvOnTvboe2+dXRof3L22Wd7N2QX2a9EBaqUmaMTWAUQHn74Yde6JR0wVQxTotUn8oWGN4hOztWLF4sufsIhfyomHNIJc1gYVzvp/KbOVi91GOBLV4+NMtvCA5p2guHfpCDhsEsFdeIV1qLS8D/1Smkcfbh+owmz0VRHS+/JS9lUYa9HZDDo6KOPtoEmZaRFG2uu1G2Nkc9LWWyqixb2WkTTvXt3m3Glk9CC6POqzsf7778ftXdLAaixY8faxwpoxhKuY134A9lEWSO+nTBrP+xjbaC81FGhfdIHH3zgWjJPw5S1z1KPs+80aYaOD8oA84m2P5+zqUKarEQX5JoG3Rc6Z9CwybA2pc90sfvMM894dbGrLMMuXbp4VYA+Fh8Lgz/wwAPm2muvdUv+0rmizmN9yojUSAR1HGfDeayGtKuw/7PPPutaMk/7EdUWDid0ApIqZ4dRIuTshOz9ZZddZqfT1y3ngt5Og7t06VL7nKaPHj58eJBzomGfzzkZD+bPn2+fC6lNz7322muuJTG9evWy72/YsKFrKbw1a9YEhx9+uP15W2+9dXD11VcHX331VZBzwm4/7x9//BHkHPyDvffe276mfv367p2b/fvvv8Fxxx1nny9btqyduv333393zwbB7Nmzg+7duwc5Jw/2NdGm137vvffsc3rNhAkT8r0tWLDAvWvz+8qUKeNatpSzAwxOOOEE+7ptt902mDRpknsmtr///jsoVaqUvYV/20innnqq/XkPPfSQa9mof//+tl3rQffTpk1zz2yk7UXtOSfzdrlBgwZ2+eijj7brOrR48eLgzDPPtM/VqlXL/p0ihf/PbrvtFnzzzTeuNQhyTnKDAw44wD6nm9ZXpPB9Wg9vvvmma924bQ8cOHDT+8aPH++eyd8xxxxjX6+/f+R2Pm/evE3fgTp16uQ7xfYhhxxiXzd69OhN3zEgW2if6csU/L/++mtw8cUXuyX//fPPP3YKfl/06dMnGDdunFvyn84hHn74YbeUeZ999pk9P8kWOmadc845binzunXrFvzwww9uyX8vvPBC8PTTT7ulzFq5cqVX+5J4tGzZMvjrr7/cUmaNGDEieOCBB9yS/2bNmhWcf/75binz2rdvb3+nbKFz7TPOOGOLa4tM0XXmkCFD3BKQXCUuULV+/fqgQ4cOmy7qw5uCGpHLlStXDj7//HP7nkg+BapEQYXatWvn+t11y/t5FHBYuHChe1duK1as2BRYCW/lypULKlWqlKutdevWwerVq927NgsDTvHcBg8e7N4VX6BKdACpWLGifW3NmjXtSU1B6tata1+vAEpesQJVOvEN19sRRxzhWjfLG6hScOqggw6ybQpuKXB1yimnBOXLl7dt1apV2yLYJdoW27VrZ1+j4J4CRSeddJL9GTvuuOOm4GPeQJV07tzZPqdbjRo17Ha03377bWrr16+fe2XBFBjbZ5997PsqVKhgfwfdttlmG9umzxYZgMtLQUCtL20r2oYIVCHb6EJDFxw+uPDCC3N1EmSD++67z14kZZo6mVq0aOGWsoeOu/Ecz9JBxzetx2xy/fXXB59++qlbypyZM2fa7282UQeULxe7ffv2DcaMGeOWsoM6ONTRkWk672rUqJE3QYt4KbD73XffuaXMUXD5qquuckvZQ53VPgQndU2o7Y/zf6RKmf/LkXNRWiLkXFTbtGKNo9VwJhWM1lTHmsFDdYlUIPuQQw6xMyuofoTq/uSl4XGaUUPFyTVbXKJUb0lj21X7KBkFNzW7gtK4VU9JVMwz54Bl01iVGq/hbErl13CxyKLekTQEUAUs9dm1LvQzwp+jWe1OO+0089BDD9nx29FmUtJrlcaruhYF3TS+P6zZFL5PtZJyTvJsWzSaIU+fT7Vb9Bn0N4xVOyqkIRWagULrQP9nJA391GfW+j/44INd68YZ7ObPn2//j8suu2yLOjGq36H/+5RTTrHTZKuWR8eOHe12M2/ePPtz58yZYz+fpiFXar2G2OWl7TDn4th+bg2/0/v0fq1nDXHUeg+307yztzRr1szWIVD9LdXXUY0ybbuaaUMFPjt16uReWTCtG613vT/8PTQMUPW3VDBUqcUqnh+LhpNqSOi5555rb6LPBmQLfddVZ0618AqzP08W/Q5TpkzJd7ixj7Qfvu666+xQtkx+93Uao+Pg3nvv7Vqyg2r75Vxw5BqSnwnjxo2zfz+fi4BHU6dOHdOjR4+Mf2807F4TIOQ3C7Bv9PfW/k/Dd8OJUzJB54E6P/V5AoloNKGErhO07nQumCkaQqxrlWOOOca1ZIfatWvbIZThuWOmdOvWzfTt2zfm9ZGvNNmUhmqr1IeuZzJF1x0NGzak/AdSppSiVe5xsaaPmd+JtAIbmfyyJ5vqbBWlELzGHCvYVZSfkUmqV6ILT30O1ZBK16x0BW1n0RTmPSF9PgVck0EBKwXIdIuHLmree+89G+BS4K4onwPIFHUc6EJX9eYyRSfrOuELJ4LIJqodqALNClZlgmoDqXPJt+LQ8VLnw6BBgzJaBPmss84yw4YN2zSbbTZRnbnjjjvOdvRkgiZG0Xd3wIABriW7qCNPf/tMXairA1Qdv8cff7xryR7626sTV3ViM0Hnf/r7qVM2WeeB6aTgpIIc6mjNBNX2HTFihJcTg8RD59+ff/55xuoKatZvTX4Qrd4ukCwlqph6fopTkEqKGmDSQS9bg1SiE271tC5ZssS88cYbrjX1ChOoKUpwJ5knJ8qWizdIpQwsHSSbNm1qg1RAtlJv+IknnmhP9jNBJ5rKrszGIJWogKoyCxTozoRsKQAei2aJy2RhZs1wq4vdbAxSiQpIP/jgg24p/RQoy4YJEGK5+uqr851cKJUUZFYh62wMUknNmjVtJ7c+QyYo611Z/dkYpBJlVN17771uKf203+3Vq5dbyj4Kzn/55Zf2OicT9Lfr2bOnWwJSg0BVBunEfuXKlQnflC2Fgl1xxRU2PVtpvcoOQ/KoB0onR+GskUA2U/q/siIykWCs71I2nyxrP6Ahx08//bRrSZ9Zs2bZk/RsDpbrIn3GjBl22Hm6KSNDs61dcsklriX7aMj+qaeeajMj0k0XiZqNV+cZ2UoZLQqWawheuinIrIyqbHbbbbeZO+64wy2lz9q1a23phfPOO8+1ZB+V9VB5kkx0EmmGWA2XrFSpkmvJTvr+ZCIjTDODqxxKprLhUHIQqMqgoUOH2pOsRG+ahhYF07pSj5PqvwwePNi1oqhUG0v1t5QJcOSRR7pWIHtp6FqLFi3sPjmdlJWoGieZHPaVDLpYeuutt2x9vXRSNosuFLOdMnJ00Z5uOi5q6Ea2Z5Rffvnl5vHHH097oFkZGdkeaBEFytWhl06qh6ngWN5aoNlGtVdVK1bnmemk7V1DnrO93ILqoaqTKN2URahastnu2GOPtbWP093Rof1FttWVQ3YqMTWqfKTiuYUZ23vSSSfZnRPio4uAP/74wzz33HOuBUVx33332Z5kXeQUtyGzKLmUqapaPaNHj07bUAr9f2GHRbbTsUyTY2jIdTooYK5OG2UEFQft27e3gTdd+KaDhiypPpayGeId8u2zgQMH2gyNdBVWVxHyjz/+2Nx6662uJbudc845Nvix2267uZbUUhaf9hXFoQizggQKuKSrTt6KFStsXcNM1lVMpscee8xOLNGmTRvXkloqB6JrAv3NigMFSXUc1KQE6aB1p+D2Sy+95FqA1CFQBQBADgVfNfNpOoZCKQNJQ9dUI6a4UODt5ZdfTsssWJqpVhkt2TbTXyyqc9OnT5+0dagoi0Gz0rZq1cq1ZDeVUlCtrXQFmrWta8Y1ZdMUB99//73NlH700UddS+oooH3//fcXmyCzqFaPvkvp6ERWQLtevXp2BuriIJ2dRCoDov2EhgoXp47WdHZ0dOnSxdYGVI02INUIVAEAkEOHQw0BTHVPq4ZrqEdy/PjxGZ3aPNnGjBljhzOeeeaZriU1FODT/zNkyBDXUjyoML0mqEj1NqELQw2Z/PTTT9OWPZgOCnxoOJmmvk8lrbdly5bZ7OLiREN4VZw71RPp3HXXXeaee+5J+d8pnVQr79JLL7W3VNKM1hp29cknn7iW4kFZVaq7dfjhh7uW1NBxQzNcZvMEHNFohI5moEx1zTJlU6k2GjP9IV0IVAEA4Cidfe7cuW4pNTTDpgpo62ItU9PCp4Iu1pSVkerJK1QLS9lAF198sWspHjRduoaTpZqG+mkb1/aXzbP75jVnzhyb0Zdq8+bNMw0aNCg22WghFZhWZlUqKTA6depUc+ONN5rq1au71uJBgQINqU0ldXJotsRMzpaXCjoeagbSVPvzzz/N6aefbrOqihNNtPXEE0+kfPbd5cuX2yxSzdgIpAOBKgAAAAAAAHiBWf8AAAAAAADgBQJVAAAAAAAA8AKBKgAAAAAAAHiBQBUAAAAAAAC8QKAKAAAAAAAAXiBQBQAAAAAAAC8QqAIAAAAAAIAXCFQBAAAAAADACwSqAAAAAAAA4AUCVQAAAAAAAPACgSoAAAAAAAB4gUAVAAAAAAAAvECgCgAAAAAAAF4gUAUAAAAAAAAvEKgCAAAAAACAFwhUAQAAAAAAwAsEqgAAAAAAAOAFAlUAAAAAAADwAoEqAAAAAAAAeIFAFQAAAAAAALxAoAoAAAAAAABeIFAFAAAAAAAALxCoAgAAAAAAgBcIVAEAAAAAAMALBKoAAAAAAADgBQJVAAAAAAAA8AKBKgAAAAAAAHihVJDDPQa8wWaZnUqVKuUeAQAAAACQOAJV8JI2S4Ie2SVZf7OVK1eaIUOGuCWg6NavX2++//57U6tWLbPddtu5VsSrTJky5vzzz0943S1YsMAMHz7cLZVsJ598sjnggAPcUnz+++8/89JLL5k1a9a4FkiFChXs9pioyZMnm08//dQtlVxHHnmkOfroo91S/PRd1ne6pNt9991N8+bN3VL8Pv/8c/Pjjz+6pZKjZs2apkGDBm4pfmxvGzVr1sxUrlzZLcXnn3/+Ma+++qrZsGGDa0Ei5s+fb/bYYw+3hFDZsmXtttiwYUPXknoEquAlAlXZJ1l/s7Vr15p33nnHXqQByXLrrbea2267zZQuzYj3RP35559m6dKldh0m4sILLzSnnHKKKVeunGspuRRweuutt9xSfJ5//nkzY8YMc9hhh7kWiC7469evb84++2zXUjBdsCm40KFDB9dScj355JNmxIgRCQWev/76a9O/f39z1llnuZaSa9SoUebKK680derUcS0FW7FihWnbtm2J3P5efPFF89xzz5mdd97ZtRSM7W0jdbK9++675oUXXnAt8enevbs58MADzU477eRaEK9169aZvn372vNF5KZOoh133NHUrVvXtaQegSp4iUBV9uFvBp/pZFnbZ7t27VwLEnHeeeeZxx57LO6LDWUODBw40Dz++OOupWTTuttrr71MixYtXEv+dLLcqlUrm1VAcDU3XbxpPb799ttxr5tBgwbZzEC+/8aMHDnSTJo0ydx4442upWCtW7e2AS5dpJR0S5YsMV26dDHDhg1zLQW7/fbbbdC+MJlF2U7ZzDr+3n///a6lYOeee64ZMGAAgZYcPXv2NBdccIE54ogjXEv+/vjjD/O///3PdnQgcTpn2XvvvW0mGzKPsx+gmCETCdiSTvSGDh1q/v33X9eCRFx//fWmX79+bqlgd955p7nlllvcEi655BLz9NNP24B+PBQU6Ny5M0GqKLbeemt7IRvvEHEFtl577bVCDRcsjpo0aWKHQCpLMh4fffSRvUgmSLWR1oPWh9ZLPBTYmjp1aokMUonW1eLFi828efNcS/4+/vhjO0yfINVGvXr1shk+8brrrrvMzTff7JaQCA2zHz16NEEqj3AGBO8pZV9pr40bNza77babPXHffvvtzcEHH2yuvvpq8/PPP7tX5vb777+b0047Lert9NNPN02bNrW9Ys8884xZtmyZe1du3bp1s69/5ZVXXEvhqT5G5O+g1OaCRH6GM844w7XmNmXKFPt71qhRw6byb7XVVqZSpUq2904XOxpKl5/Crl9J5voBUknbtbIplFmBxB111FF2CGA8FxufffaZ2W+//ajxEEG1HZSVMnjwYNcS26pVq8yYMWMKVQenpNB3+eWXX7ZBqII88cQT5qKLLiLoF0FZGvfee69byp8yYXQugM20PuLNEFLgQOu7JFP2Xu/evd1S/h588EFzzTXXuCXssssupnr16nHV15s+fbo9p0+0HiI20jVT165d3RK8oKF/gG9ydrT2funSpUHdunXVBb3plnOymWt5q622Ch555BH7+kiTJ0/O9br8bpUqVQpyLgzcOzcL/+++ffu6lsKbOHFirv/zqquucs/Edvfdd296fZkyZVzrRv/++2+QczAPSpUqtek1W2+9dbDDDjtsWtatWrVqwaRJk9y7civK+pXI9RP+zQBfaRtt2rRpsHbtWteCRPz0009BzkmcW4pN63jx4sVuCSHtsxs3bhysX7/etUSXc2EbjBs3zi0hltdeey14/PHH3VJ0q1atstsjx6cttWzZMliwYIFbiu7tt98OHnzwQbeESFovWj/5+fPPP4MLLrjALZVsl1xySTBjxgy3FN3o0aODfv36uSWEdK7evHlztxTbhRdeGMyePdstIRErV64MmjVr5pbgC7qX4DUNl/jiiy9sz7yydpQ+rKFtmtFC7SqmqqE8V111lS04GIuG/Oj58KbUzjfffNP2KKpuiFLgVQ9kzpw57h2pp/oGOd9BtxSdeoyj0fs09OGhhx6yj9Vb/O2339rsKWWHKdX82WefNdWqVbPFeI899ljzySefuHdvlqz1C2QD1ajSd0VZlEjcQQcdZDNYfvvtN9eyJe0nVGiTYRtbUo2kjh072iGAsehYpGxbZaoify1btrQTb6xevdq1bEnHSGX+Uj9xSxoedMcdd7ilLencQnXmLrvsMteCSFovWj/5ncdpCHQitcCKs4K2N1EtPxWqR24VK1a0x9Vx48a5li2pLqRGU+yzzz6uBYlQ8X4dK+CZnB0s4B31fqonKswW+uKLL9wzW1IEXK+pV6+ea9koMqNq0aJFrnVLs2bNCsqXL29fd9NNN7nWjVKRUZVzwAlq1aplH6stlqlTp9rX1KhRw95HZlQ98MADm9reeust17qlJUuWBCeccIJ97b777hssX77cPbOxp68o61fIqEI2atKkSZBzceuWkIjffvst6Nixo1va0plnnhmsWLHCLSEv7SeVVRVr+7vhhhuCTz/91C2hIO+8807MDAxlIdBDnr927doFv//+u1vKbciQIcETTzzhlhCN1s/LL7/slnLTvrJTp05uCXLllVfGzPB/4403YmbvI7DHVWWHxtKmTZtg/vz5bgmJ+Oeff2yGKfxDRhW89csvv9ieKtVLOuaYY1zrlsLaCcoAiqdeRV5VqlSxPbOiaa/TQTNoiTK9YgnrPuUtAKv6JeFYf/VO5VfHRL0rr776qr1XvasHHnjAPZO+9Qv45oorrrA94Uicak+VL1/e1sbLSwWrzzzzTPs8olNmj7a/Rx991LVs9tdff5mZM2ea4447zrWgII0aNbK1W5QFnJeK/6sQMWKLleWizGrVrlQGKmLT+lHdw2iT2DChxJY0G53WS146F33qqads3VhEp+Oqas+OGDHCtWymupAaQbH77ru7FiTikUceoQ6fpwhUwVu77rqrvV++fLn55ptv7ONoNJOKplqeNWuWLSReGArkyMqVK+19qmnYnujCTgfoaBSoUrqvLvwiacji33//bcqVKxdXmqoOXOHrIgv5pnP9Aj7Rd+rDDz9M2/e9uNHFbd6LDV2o6UKDYUIF08QVmtkqb3BF6/SGG25wS4hXjx49tpiRUkE/FRY+/vjjXQui0XBeDUn96aefXMtGKh2ggvUc8/On9aP1pPUVSYH8bbfd1gb2sZnOR/fdd18bWImkGTzVYbzNNtu4FkQTa7ipZgUs6QX7C0vlUr777jtzwgknuBb4hEAVvFWzZk1Tu3Zt+1iz9CmLSFlAeWmq6kMOOcTsueeeha5DEWZSqUciHTQjh6bs1Sxa0Wby+P777+1nVd2svAfuCRMm2Hv1uisbKh6qNSW//vrrpln80rl+Ad8oeKt6GEicatqpDoayLEPPP/+8adu2LRcacbruuutyzbo2e/Zse8Ks4wISU79+fXtcW7hwoWvZONMaQb/4KOvn9ttvd0vG1rp844037PcZBdN60vqKnGG5T58+NqCPLSnL8Z577nFLm7P3VL8P+VPwU6MoImfaVt0qjYrYcccdXQsSodk71dkBPxGogtc0NE4XRCoOrpOpGjVqmL333tueGGgaUZ3cF4UOkDpB++qrr+xyOk/M8hv+FxZRzzvsT8JAk4JH8apVq5Z7tPGCKJTq9Qv4Sin0CrREGzKEgqlA8N13320fr1u3zg4xbt++vV1GwU466SSbxRIGVzT8SsNiUDjaHhUcEB23Fi1aZI466ii7jPzpHEDB5zCz+vHHHzeXXnqpKV2aS4R4aD1pfWm9yZdffmk79jRRD7akiTb03XzvvffssiY30bGD7L34aLipOobC4aYPPvigueaaa+xjJEajU3RNpQmn4CeOQvCaMpwmT55se0Z14Je5c+fa3gSdGFStWtUOTYvs2Y+mc+fONjAU3tq0aWPOOOMMU7lyZfN///d/9jVKO27SpIl9nA76HSTa8D99PqVIn3zyya5lM+1YJZHek7Jly9phhDJv3jx7L8lav0A2UlaLZgVD4nSxceSRR5oPPvjADBgwwO5jNYQI8VNmgYZs6ERZ6+7AAw90zyBRyg5WcOqPP/6wASuCfokJA30rVqww77//fr61L7ElrS+tN60/fafJ5sufAisPP/ywzUJTOYtonbKITqMctL4UrNK6a9iwIXUhC0lZzddff71bgo8IVMF7O+ywg+251wmohsSpIHjTpk1tu0ycONFGw5977jm7HM1bb71ls4fC27Bhw2y6rE5sdcGlk9rIVNp0UO2Co48+2g7/++STT1zrxqKI6hFWICtaj6aCTrJhwwZ7Hy9lPUjen5mM9Qtko3r16tlaIsooROKuvfZau+8YM2aMOeecc1wr4qX9vzoONETopptucq0oLAVbFHz+999/be0lxG+33Xazmdf6Tl911VUM80+Q1pfWm25aj7vssot7BtGobIU6YrW+1MlB9l5iVBdN1zLqJFKnMhKnOoa61gpLoMBP7BmQNXQicPjhh9sTKc16sXjxYjNy5Ehz2GGH2ecvueQSW/A7Gg1jUyAqvGmYyrvvvmsvUjX0QkVs1UuRbmFRdf0+ofyG/YmG5sn8+fPtfTyWLl1qVq9ebR+HmVN5FWX9AtlKtQkiawUhfgpma79x1llncWFbSC1atLBZsspeRdEoQDBt2jRq3RSSAgaqmamalUic1puyz7UeUTB9Tz/66CO7D0RilIGrEREqAaK6VUiczvvIfPQfgSp4SydMGhanqHc0Gs+uCyS9TrOIaLx2ZMAnkob1KSgU3lq3bm3TZQ8++OCM9uTkHf6nLClle+nzxBozXadOHXsfrQh7LOFr9Vk1XEeSuX6BbKWslt9//z1XIWbER/W9FKBSQDvW7KXIn4owawZWbYMoGnU86cIt7wxsiI9m7TzxxBNtJx4Sp/Wmwv5ajyiYvqennnqqHb6GxOh8fMaMGXaft2bNGteKeGkki659Dj30UNcCXxGogre6dOliA0pvv/22a4lOY7N1sJPI+kvZQEVMNXtfOPxPvUvKlAoLrUcTFnxXbalwtsKCKKNMVMBXQx2lJKxfIB7qVcs7vT0K9uijj5ru3bubM8880wwfPty1Il6aEltFrDWhB9tf0Wkd6qZsg+nTp7tWxENZfSrur9nY+vfv71qRCK03zSDGcPKCrVq1ytY31PpSMXU6OhKjkSHq6NZIB60/JEZ15DRUHP4jUAVv1a1b195rJhXVnMiPTrBk//33t/fZJAxKKVtJY84lv8KSBxxwgK0hJQo2hUP6YlFvVXgRGVkHpaSsX6AgGt6qjCoFjBEfZVNpmIuGu6hGhoLhXGwkRkEVnSyrnpL24wytLjwFBypUqGA7f1Tz66677nLPIB733XefDTprHSorSHXnEL8wm0rrT+tRARjEpvPOyy+/3GyzzTY2c5+sqvhp5MWLL75oLrzwQlsbUhnNKkqP+KgeryY9oI5hdiBQBW+pKKqGlXz77bc282fBggXumc0UYFF9KQ1P0zjtsOZTNtFn0+fUgVrDQDQcsaB0VF0Uata/SZMm2Wn2Z86c6Z7ZTBeNKoAeBsKuuOKKTZlRUlLWLxAPBQxUGBzxUTaVCuGK9g2NGze2k1YgPmE2lWZ3FW1/6uVF4SjoF3bEaKISDXMnqyo+qkepmSePP/54u9ytWzf7/Ub8lE2l9SYKWE2dOpWsqhjCbCoFqERZQRouSUdHfNSp3apVq011dVUT7emnn7aPUTB1YpBNlT0IVMFbKowanizpAkjFZnVg05TeGiqhnbMyfG699Vb7Gs1+oZlrso0uVho0aGCj/BozHc80vZUrVzbjx4+3hdU1/E89A6rDpbT9xx57zK4j1eq46KKL7Gx/+pnqMY1UUtYvEA99h1auXGnmzJnjWhDL8uXLbTbVaaed5lq42EiUAiuRhVxr1KhBVlUhKSigTJZwohEhqyp+eado13B/sqrip/Wk9aX1FlJHIFlV0elcUtlUIWVVqaOD4eMFUzbVoEGDck0YoaAVWVXxUae+6ntVr17dtcB7OSeVgHdydsbuURCMGDEiqFatmq5+ot6qVq1qX5PX5MmTN71m0aJFrjUxdevWte/v27evaym8iRMn2p9VsWJF17LZ448/vul3nT59umvd6Pvvv7ftZcqUcS2bzZ8/P2jbtm1QunTpTe+PvO21117B008/7V4dXWHXr0Sun8i/GZCN9N3r2rWrW0IsvXv3DsaPH++WNtN+7NVXX3VLiOXbb78Nci5k3dJmP//8M9tfIXTo0CH4448/3NJmXbp0CX799Ve3hGj++uuvoE2bNm5psxUrVgTNmjVzS8iP1pPWV16tWrUK/v77b7cEWblyZdCkSRO3tNnq1auDs846i/PIAgwdOjQYOHCgW9rsjTfeCB599FG3hFh0TJg5c6ZbQjYopX9yLjQBr2izzDvduYa5ffbZZ2bRokU280FZRbVr17bFyPO+VpRe/NVXX9nH9erVs7PYJUrDM1SLRZlFqn1RFPo5+nn6PfT7RNJ46W+++cam8obp9yF91q+//tp+xhNOOMG15qZMLGVY5ZyU2155zSKl2QH1/6iwbDwSXb8SuX7Umx3rdUC26Nq1q+nZs6fdprElZVO1a9cuau/3+vXrTfPmzW3vbiZnU/WdJsR4+OGHo2aoqqf8jjvuMFWqVHEtyI+yqZRFrFtemkmxd+/eDIvJhzKpVJQ5nE04koaiHnXUUeaMM85wLchL2VQ6D4o2zb0myNHz+j5jI2WZ1axZ02ZQ5aV9oo67YQ1W5KbrIo160LE3HPYXSetUJUSUoYYt6frooYceinqsgL8IVMFL0QJV8Bt/MxQHs2fPthcWXNxG16dPHxu8Vm28aJ544glbP08Xv9iSLmoHDx4cc1jQL7/8Yk+mVWwYBVNBYQ3x22uvvVxLbir0r8AzQz22pA4u1ZnTDGLRqMNKZQMYkhWbAvNDhgzJNewvkopda0i09oklnTqPVef07RgzTa9Zs8YOYxs1apRrQaTXXnvNTvqizrRoFKSaO3euufLKK10LIl188cX23C7WsQJ+ossTAABHmSzbbbedLS6M3JRNpezOWEEqUV081dBQLQ1sSbUCVQcwlgMPPNBmxSpgivxpNtoddtgh3wsPFc1VPTBsSTUtI2tT5aXgizK8x44d61oQSetF6ydWkEpUq+qBBx5wSyWbalNpUp9YNCmHZpFVRi5yU0ewJkdS7dhYzj77bDv7JLWqtqRZYfU9JUiVfciogpd8zM7R7HjqOUuUUnVPPvlkt1R8kVGF4mLevHm2GLNODLGZMlc0nPjEE090LdE9++yzNtinIW7YTNlUOoaoeHV+NERBw2A0kxhi0zBJbZN77rmna4lOGQg9evQw1apVcy3QLL8Korz00kuuJTplwVxwwQU2WwO5tWjRwn6fy5Ur51qiU3apZmquVKmSayl5tB1pBuoRI0a4luiUVaX1VdDrShp9/+bPnx8zmyqk9aYJYfILCJZEyrxVYD6cZRfZg0AVvOTjZvnyyy/bbIFE3XnnnfYkuSQgUIXionv37vbk5rDDDnMtJZuyqTp06BDXBatm1VGdEWpV5aYL/gcffDCu2VM7depkZ1+lVlV0yqbS8Mhw5tr8qFaVhqxqCBY2UpBK29ihhx7qWmJTRtqRRx5JraoIyqZS4Dm/7MjQp59+akaPHm3PBUsqDXXWTNNnnnmma4ktkdeWBLoeatasmXn99ddN2bJlXWtsTZo0sa+lVtVGP/zwgx1uX1AHEfzEGSS8pICHbzfValBvT6I31ceI9vOK4w0oLlQclyFDmym755prrnFL+dMEDuoVj1X7piT6/vvvbeZPPEEquemmm2wPMKLTd1PD+uKx77772klMZsyY4VpKNmVmqNZNPEEq6datmx22hc20PrRe4qHhgRpKvnTpUtdSsmgo84cffhh34EnZQGxvm6mmV6NGjeIKUkmXLl2osRmhoCHO8BuBKgAA8tDMmVWrVrU1mUo6ZVNpBtWChvxFat++vR1WpOwqbKxNlcjJ8gEHHGA7OqhVtaWwNlVBQ/4iEXjeTOshnkygkIa2Uatqs7A2VUFD/iKV5FpVynxMZCiaalVphmvNmFjSKZtKQaf8alPlpewrrTtqVRl7/qbzOJ3PITsx9A8AgCiWLFlia8wlckFSHGn2LwVaVJ8qEa+++qqttaR6VSWdLrxuvfVWtxSf6dOnm3bt2pkKFSq4Foi2xzfeeMPsscceriU+ym7WcK2SrkaNGglP0a6smIYNG8ad1VGcrV+/3hatTnS/pqHkmpWtpNGMh8OGDXNL8WF720jbmmrxaZhuIrR9aoa7kn7uotpomkWSWTezF4EqAAAAAAAAeIGhfwAAAAAAAPACgSoAAAAAAAB4gUAVAAAAAAAAvECgCgAAAAAAAF4gUAUAAAAAAAAvEKgCAAAAAACAFwhUAQAAAAAAwAsEqgAAAAAAAOAFAlUAAAAAAADwAoEqAAAAAAAAeIFAFQAAAAAAALxAoAoAAAAAAABeIFAFAAAAAAAALxCoAgAAAAAAgBcIVAEAAAAAAMALBKoAAAAAAADgBQJVAAAAAAAA8AKBKgAAAAAAAHiBQBUAAAAAAAC8QKAKAAAAAAAAXiBQBQAAAAAAAC8QqAIAAAAAAIAXCFQBAAAAAADACwSqAAAAAAAA4AUCVQAAAAAAAPACgSoAAAAAAAB4gUAVAAAAAAAAvECgCgAAAAAAAF4oFeRwjwFvsFlmp1KlSrlHAAAAAAAkjkAVvKTNkqBHduFvBh8MHz7cLFiwwC3FduaZZ5oqVaq4pfisW7fODBkyxN6XJGXKlDHnn3++2W677VxLfBYvXmxef/11t1SynXzyyeaAAw5wS/H577//zEsvvWTWrFnjWkqmrbfe2rRr187eJ+L33383Y8eOdUslx0477WTOOecctxS/b7/91nz99dduCbHsvvvupnnz5m4pfp9//rn58ccf3VLJUbNmTdOgQQO3FL94j+XFDceK5CnsvhD+IFAFLxH0yD78zZBpU6ZMMbfffrtp3bq1a4lOJ3NDhw41I0eOdC3xefjhh83cuXPN0Ucf7VpKhlmzZplVq1aZW2+91bXE55JLLjHHHnus2WGHHVxLyaR946BBg8yoUaNcS3yef/55M3Xq1BK3veWldVCpUiVz9dVXu5b4tGzZ0u4LttpqK9dSMowePdoG9k455RTXUjAF38866yzTpUsX14JY3nzzTXPdddeZOnXquJaCrVixwrRq1cp07tzZtZQczzzzjA2i7Lzzzq6lYN988425//77zdlnn+1aSgaOFcmlc7xLL73UHH/88a4F2YZAFbxE0CP78DdDpnXs2NHccccdcWVK6aJXF7Innniia8mfAjXKwnr//fdL3IWvtGjRwjz33HNmxx13dC35+/nnn829995rnn76addSsumiS73kzZo1cy35W79+vWnatKk90S6J21skHVsaN25ss/PKlSvnWvP34YcfmvHjx9v9QUnzzz//mHPPPdcGrOKlIPxee+1F9kEc/vrrL9O1a9eEskV79+5tjjnmGHPGGWe4lpJDmWRaVzoexEvH5oEDB5rddtvNtZQcHCuSZ9GiRebyyy83r776qmtBtqGYOoAC6UJhw4YNbgnwz8yZM+0QtXiH8918882mT58+bqlgDzzwgLnqqqtK7Ilgr169zF133eWWCqYAwS233OKWcMUVV5jHHnvM7kvj8cQTT5hOnTpx4ZFDHSAKLOs7GK977rnH9OjRwy2VLMpgPOmkk8yIESNcS/6U7aOgljJ+UDAFTw466CDz0UcfuZb8LVmyxHz55ZclMkglyqqdPXu2mTdvnmvJ3yeffGJq1KhRIoNUwrEieXbZZRez5557mkmTJrkWZBsCVfCeAiQvvPCC7VHVgat06dJm++23NwcffLA9eVXPfTSqT3HaaadFvZ1++um2B0Jp7kpLXrZsmXtXbt26dbOvf+WVV1xL4U2ePDnX7xBPLYjIzxB5kpPf77V8+XJz991325MDZT9ofWmctpZ1Ya6Tpni8++67ti7N3nvvbWuDKAigHb56XBNNSwZS7b777jM9e/Z0SwXTvkTfiXi25aVLl9oMjZJ8IXfcccfZi4358+e7lti+++47s+uuu5qqVau6Fmy77bY2SyCeY8nq1avNO++8Y9q0aeNaoGxGHTP1XSyIvtPKlCzJQ051jhDvxe5DDz1kz6XIiI7f9ddfH3eGUL9+/cwNN9zglkomdVrE2zGkILPWb0nFsSK5unfvbrPUkKVyDmKAdzZs2GDvc05Kg7p16+pMa9OtdOnSuZa32mqr4JFHHrGvjzR58uRcr8vvVqlSpWDMmDHunZuF/3ffvn1dS+FNnDgx1/951VVXuWdiu/vuuze9vkyZMq419u/1/fffBzkX4Jveo1ve9bXzzjsHH3/8sXvHlhYtWhScdtppud5Tvnz5IOfgmautYcOGwZIlS9y7Nv/NgHT7888/g/PPP98txW/ZsmXBqaee6pZiu/HGG6PuH0qaH3/8MbjyyivdUmznnHNOsGDBAreE0Pr164Mzzjgj+Pfff11LdNqvjxo1yi0hpGOovosFadSoUbBq1Sq3VHLpvCjnYtctRff3338HTZo0cUtIhL6no0ePdkvRaT/YunVrt1SydezYMZg5c6Zbim7cuHFB79693VLJxbEiuTp37hzMmDHDLSGbkFEFr6kY7xdffGH22GMP27ugWaQ0u4VqMKhdhRZzduR2SI4ygGJR4WQ9H96U5q6CmOoRU10G9dIqW2LOnDnuHak3bNiwAns7X375ZfeoYGvXrjU5J5y2foIyRSZMmGDr6mh9LVy40A4DOPzww+061OuizaaSc9Jq3/vee++ZChUqmDvvvNMWUtbQAPXcKKNCQ3qU0ZZz4W4LN2oMOJBJGhKk4raJUsaFMjW1f4hF3yeljZfUYRuRDj30ULvvVaZnLBoOo1meSuqwjfxoaEaHDh1sFm8sWr8a+qLtErnVq1fPTJ8+3X4nY9F3Wce3RGeoLI5URPipp56y5wCxaDhvSc5eKQplrT3yyCNuKTrVprrpppvcUsn2v//9r8CacaqVluikCcURx4rk0j5OmXrIQhvjVYBflJ2jLIlSpUrZ7J0vvvjCPbOlZs2a2dfknMS6lo0iM6qUJRTLrFmzbMaQXpdzQuFaN0pFRlXFihWDWrVq2cdqi2Xq1Kn2NTVq1LD3BWVU5Zyg27bdd9/dZopEo97TKlWq2NfdfPPNrnWzpk2b2uf22muvYNq0aa51S1q3e+65p32tsieEjCpkgrIuw22wMFavXm0zCGP1XCrz8bPPPnNLmD59enDxxRe7pS1pHxJr/4Mg+O+//4KcC4tgzZo1riW3W265Jd+M15Luu+++C3IuZN1SbvoOa92uW7fOteDpp58Oci523VJu8+bNC1q2bOmWUBj9+/cPXnvtNbeUm84tlUWEzbp27WrPbaMZMWJEcP/997slcKxIrnbt2tnrSmQXMqrgrV9++cVmHCl7R7OlxBL2vijDSrNfJErFlzUeXDQ7STqcd9559j6/TI5wfLrqRMVj2rRp9l7rKlZtDtWsUi+NqCcmkj7722+/bR/r91Ixy1hq1aplZwCTnJO0uIuKAsmWc6Fge7YLS/UgNEOW6uDl9ccff9iaTMoyxEbVqlWzvb3RagNSG6hgqhmo2ogDBgxwLZsp2/Wnn34y9evXdy3I64gjjrCZv/pu5qXvsL7LqqmIjS688ELz0ksvmXXr1rmWzZQxrSwXFJ6y/pX1olqqeZFNtaX8JjHRPlEztGEjjhXJpax7alVlHwJV8JaK8YqKg3/zzTf2cTQNGjSwQ3M0RK2ws15UqlTJ3q9cudLep5pOpkVBHgXjolGgqmLFiraIbDzC9aWCs0oJjuXaa6+1Bzj935HCaeS1PjXEoiAaCqXXyuDBg+09kE4ajqrZlE444QTXUjgdO3a037e8gW5dyN12221uCaFohXG1H9MJtWYsQv6aN29uPvjggy2ONxqGdeONN7olxKLtT0GASPru6pjWrl071wLROVHnzp3tzGCRfvvtN3uecOSRR7oWFEbZsmVtx+OLL77oWjZSR6smoDnggANcC0SlNjQpT95z+ldffdU0a9bMdhxhM44VyaN9na4T45mQA/4gUAVvqc5J7dq17WPN0qcTUx3881Lv6SGHHGIPfoWdtSbMpFK2QDro5EU9w3/++af59NNPXetm33//vf2sqpu1zTbbuNb86bWqy6GfqQwQBZ5UmyovzQCoqZV33nln17KRZjWThg0b2vt4qEaYxDsNNpBMqr+iOixFFe1iTrVwVNtFs4siN11sqAaVZvcLKdCn/QEXGvFRJvCDDz7oloydul3766OOOsq1IJbw4l/f0ZC+u/oOKwsBualjTNnSqlkZ+r//+z8b8EPRKTiqQEtkR4cC+coewpZ69epl+vbt65Y2zuw9aNAgc/HFF7sWROJYkTyqZ1xQXTn4hSM6vKYhaPvss49ZsmSJPanScLS9997btG3b1jz55JO2uHdR6EL09ttvN1999ZVd1s9Nl/yG/4VF1OMd9ie6cNTFooJVyphSSrraNEyva9eutnj7smXL3Ktz03oIT/oV9ItX+FoVZo82tABIFV0UqOh/o0aNXEvRnHPOOXaSBWVpibKpuJCLTdOthxcb2n8MGTLEDjNCfE455RTzww8/bOrdVQ85w4TiFzmESN/ZcePGmRYtWthl5Kbg3ZVXXmkLVcuUKVNsB1h+w/sRP61fBVnUcSI//vij7QjUuSq2pHWjiTk+/vhju6yhqQzZjY1jRfJoqKQSASKD9vAbgSp4TRlOkydPthdFypiSuXPn2oCMMimqVq1qh5+pPlV+1NOqwFB4a9OmjR26VrlyZduzKKpTpdmC0kW/g0Qb/qfPt/vuu5uTTz7ZtcRHqdM6SVIdKs3aJ1OnTjUDBw60/98uu+xie/+0DiNFpsKGwyDjETmzlzK5gHTRcFMFcgubRZmXfo56LtXbpqHEquem/Qui075EmZmqdacaLdrnFHbodUnVo0cPOxPRzJkzbaBf6xPxUQeWjlX6ruo7q0BMsvYFxZHODZQ1rc4qsqmST9mk6uhYs2YNw7LioBIUqhekWbt1vsuQ3fxxrEgedeIr0QHZgUAVvKfCvHfffbctnqpIuKaib9q06aaCvRMnTrRD3cLi3tG89dZbNnMpvCm7SD2wixYtskPhVFBUB8t02m+//czRRx9tAzyRhc0/++wzmymmwFJhhjFUr17dplGr2KLGtuuEVME8XUTqpEC9V8qy0roMqc5CKFbNrGgis6gYcoF00Tb6+uuvbwr2JouC18qupAhufLp3725PnlVEXRlpSEzdunXtvv7WW29lmFAhKBigzEd9Z1UeAPnT9/Waa66xnX6aRAbJoyCphhX17NnTDk0Na4YiOk2SpNqS119/venUqRPnjwXgWJE8ysJ///33CzX5FtKvVM4Jf/xXpUCaaLMsqHdUQZcxY8bYC0plEalw5YwZMzZlQSi9PRyapuh55ExUOihqWb2y6pmIdZBUAEzZWhrionH1RaFglNJOVSA9zGBSj5J6SjRrWThuWic7jz76qA1Y6f9Xyq/qWenz6TNLYX4vFaVXkEpBOQWxDjzwQDtEMPzsWh96jYYdhsMSCzJ8+HA73EI/Q8UeC1ufpnHjxgwdRNyU7aQ6SQ899JBrSR59D5V5oEAYCnbWWWfZbI1k1Aorid544w2b8Tp27FjXgkToYlcF/MMJSpA/1dxTFje191JDQ9reffdde3xC/pTdp05UdZoSqCoYx4rk0TWXrrESGUGC/GkElK4j7733XteSJApUAb7ZsGFD8MknnwTDhg0LFixY4FqjW7FiRbDvvvsq4Brcc889rjUIJk+ebNt0W7RokWtNTN26de37+/bt61oKb+LEifZnVaxY0bUEwezZs23bHnvsYT/zf//9F1SuXNl+nlDOQdy+pkyZMq5ly99r1apVwXvvvRe88sordjk/P/74Y5BzUmDf/+WXX7rWIDjppJNs25VXXulaCtajRw/7nsMPP9z+/kA6aFtr0qRJSra5M888M2jVqlXw999/uxbEsnLlSvt3aNGihWtBojp27Bi0bds2mDt3rmtBvPQdbdmyZdCmTRvXgvx8/PHHdlvTcRvJ9+GHHwZdunQJevfu7VqQn0cffTS4/PLLg7ffftu1ID8cK5JH5yzr1q1zS/AZIWx4K+eAb1q3bm1nq8lP+fLlzamnnmofazaMbKKMruOOO27T8L+PPvrIzJ8/P+6MppAKA5522mn2fcoqy496/DTsUCLrSoWF25V1lXcq3GjWrl27aUpmhv0gnZRtqWF66rlOJvVU1qlTxw7fuO+++1wrYhkwYIDtmVSmqLJbkRhltKoHUsOzNYQSidFMWBo6pOzggupUwtiebmWMTps2LeqMwCgaFatXlvy3335rs9MRm84fVX5DpTyoF1QwjhXJo2stzShP8f7sQKAK3tKYbHn88cc3DXmLRTtx2X///e19NgmDUpreOJwBMJHZ/kSzqISfPRxCGIvSrcOAXhiwEv0eSlfXDIsqKl0QXSBotj8Nw2LYD9JNBTFVxDuZdOGrOi7a92gWzL///ts9g7wUHNesTQoYauiVglZIjC44NFFIzZo17X6ZCSnip+PUL7/8Yr+r+s6mYhhwcaKLMwX0NAmCAvFJH55RwqmTURe/msRG508q34DYNEOiJjnS7JOqL6c6h4iNY0Xy6LupmdCRHQhUwVvXXXedzZxQ75QyqxQUyUsBLBVT/fTTT219pGysU6HPps/55ptv2jHoqh2hrKdE6eRTFKi6/fbbbY9VXqqN1b59ezudt06qIv8fFbd89tln7WMFABQIiNYrqAtU1dEKA2LqDaNwKNJN33dNr679QzKE2VRhzQLNSkRWVWwKTF1++eX2sf4WmqH0nXfescsoWNhDvscee9hl7b/79etnH6NgCirrOyr6zqo+BllVsSnTJ6xnqbpemg2YrKrkUTaVzotE6/frr78mqyqGMJtKkyKJzjUVuEJ0HCuSRx2Qul5R5z6yA4EqeEsz04W9Upq1T0XSVbhXJ1sKxKg3RllEmgVDdOG022672cfZRAcfFZTUrIZ//fVXwtlUIWU1Keglmn5aM/tccMEFNlVYBdQ1Q5rWoYZSRgalIik7QsP51Mv19NNP2/Wrkwj1VutE7LLLLrNt+ruouLtOfhn2h0xRz7W2y2TQNq7MjJAmLNBJjSYeQG4KdIfZVCHtfxjCEb+whzykDgp6yuOjDpcwmyqkSUnIqopORYM1G7CyqULKiCarKjm0LwyzqUKaXZGsqujUEarz95A6Ok466SSGj8fAsSJ51Pmo7yayiKtVBXglskjyiBEjgmrVqtmi3dFuVatWta/JKxuKqYcef/zxTb9rzsWxa90onmLqofXr1wc5O+Jghx122PTz8t7q169v101+vvrqq+D444+P+n7dck7K7OeJRDF1ZMKll14azJo1yy0VTs4JcnDzzTe7pc1yLvCCXr16uSWEtI9599133dJmORdmFMaNw9SpU4Nu3bq5pc2mTJkSXH311W4Jsdxyyy32u5mXvsOff/65W0JIk0P89ddfbmmzs846K2o7EqP1+88//7ilzc4+++yo7SXZmjVrgqZNm7qlzVavXs2kHFFwrEiehQsXMvFGFiqlf3IuPAGvaLPUcLhIkyZNsj2DixYtssW+K1eubHuxVIw872tFQ9S++uor+7hevXpmq622so8T8d1335mcEw2bRaTC50Whn6Ofp99Dv0+kFStWmG+++cYW9zv++ONd60b6rEoj12dUSrkU9HutX7/e1qTIOZjZ9bVhwwZbf0q9VqpTES8VXVXthTlz5tifof9L2V/Kdssr2t8MSDVto8rkUVHWwmrcuLEZMmRI1KmKlTGobE2Gt26kbKq2bdvaLNe8NKRDmZt6jn1BbJ06dTJ33XXXpqEckTp27Gj69u1rj2/YkrKplNn7yiuvuJbN8nuupPryyy/NsGHDomZPffjhh2b06NF2e0PhKJtKt5tuusm1bKb1q7IUN954o2uBas7qPDIc9hdJGfqHHXaYrVmFjThWJM9tt91mJ53SNQyyB4EqeImgR/bhb4ZM0RDXxx57LGqgqSCqTaVgbO/evV1Lbqp78/rrrzPTjqOLiUMOOcQ0bNjQteSW34UINtYbUeAz1qQXqh2kwCvD2KLTUH8FljU0NxoNc9e2FzkssCRT4Fj7xliB9iZNmpjnnnuOQHwhqSND60/lFKJp2bKlGTRoUMznSxJ1ZKg8xYgRI1xLbupc1rFc9VrBsSKZ1MGmbW/kyJGuBdmCGlUAgKymOmpPPPGEW0qMijKrvk0suuBVrSrVjyvpdLI3ceLEmEEqUe0RnTzTBxadMlvyy7BQ/RFlBs2fP9+1IKT18vPPP8cMUom+y/pOw9iM8n333TffIJQKMyv4jMRpX3jEEUfkG4RSHcX+/fu7pZItb22qvMqVK2e/2+PHj3ctJRvHiuRRsPjCCy90S8gmZFTBSz5m52h2MQ0PSpQKwGtGrOKOjCpk0tlnn22GDh1qypYt61oKVlA2VUhZVa+++mqJv6ArKJsqpF5gDVVo0aKFa4EU1EMeUk+5JrMoynDW4qigbKqQsqqaNWtmjjnmGNdSMp133nm2oHdB2VI6R9GFXGSxdRSsoGyqkLKqXnjhhVzF1kuagrKpQip1oZmpNQN2ScaxInlUtkRD/jTTpCaBQnYhUAUv+bhZvvzyy+aiiy5yS/HTRXDkbGLFGYEqZIrqsCjjp0OHDq6lYI0aNbLf63iGDCoQNnDgQLP77ru7lpJF61YzksYzLEM18lq1amWGDx/OPiGCjh99+vSJWm8kL/X+agpy6o9spMwBzSypYHRBlixZYi6//HL73S6p1LGmWl3xDFmeMGGCeffdd6lVlQBlU2m9KShaEGpVbRwSvvfee9sAckG0Har27IknnuhaSh6OFcmj85BZs2aZq666yrUgmzD0D17SxY1vN12krVmzJuGbhiJE+3nF8QZkinqtX3vttbiD3Opd02QM8da10vTQOhksqdS7q0LV8dCkEMrSoNbIZir6r4yKeC48pFevXtRFi6DhfNdee61byt+OO+5oqlWrZguJl1TKftSwvnhokpXJkyfbiVcQH9UF0rC+eCjgomGYmjSnJFq3bp0NhMYTpJIrr7zSZgKWVBwrkksdjBdffLFbQrYhUAUAyHpK6dZsQWPGjHEt+dOFbyKZjqpVNWPGjBJZD0LZVBoiWdCQv0jqEdawGJK2N1KQU8HOeKn+yOLFi6k/kkPZVBoKU9CQv0j6bpfUWlXff/+9vchNpEC6OtTuu+8+t4T8xFObKi8FtUpq8EVD0/KrTZWXgjRHHXWUnU2xJOJYkTyaKV7rp3z58q4F2YahfwCAYkH1LZQdULFiRdcSnXp4FdS65ZZbXEt8VKtKw49KWi0XBQo0HEN1HhLx/PPP28LqKpJb0h155JG2OG4ipkyZYuu17LTTTq6lZNJQPg0dSnQmvzvuuMMOzypdumT1yWp9KYMl0Zn8VFOupGb9JOKff/6xBb8TnclPWb96b0mjDNvRo0e7pfgsX77cnHLKKQUey4sjjhXJowCe6qJpJmJkJwJVAAAAAAAA8AJD/wAAAAAAAOAFAlUAAAAAAADwAoEqAAAAAAAAeIFAFQAAAAAAALxAoAoAAAAAAABeIFAFAAAAAAAALxCoAgAAAAAAgBcIVAEAAAAAAMALBKoAAAAAAADgBQJVAAAAAAAA8AKBKgAAAAAAAHiBQBUAAAAAAAC8QKAKAAAAAAAAXiBQBQAAAAAAAC8QqAIAAAAAAIAXCFQBAAAAAADACwSqAAAAAAAA4AUCVQAAAAAAAPACgSoAAAAAAAB4gUAVAAAAAAAAvECgCgAAAAAAAF4gUAUAAAAAAAAvEKgCAAAAAACAFwhUAQAAAAAAwAsEqgAAAAAAAOAFAlUAAAAAAADwAoEqAAAAAAAAeIFAFQAAAAAAALxQKsjhHgMlDpt/cpUqVco9AgAAAAAgcQSqACSFdiXJCFStXbvWTJw40S2hOFi/fr1ZunSpad26tSlTpoxrBQAAAIqPWbNmmenTp7ulkqF06dJmhx12MLVr13YtyUGgCkBSJCtQtXLlSjNw4EDz33//uRZku2222cY8//zz5ssvvzRbb721awUAAACKj3vuucf8888/NnBTUuy4446mUqVKtkM6mQhUAUiKZAWqUDz16dPHnHDCCaZBgwauBQAAACge1qxZY84991wzfPhw14KiIFAFICkIVCE/K1asMB06dDBvvPGGawEAAACKh/vuu88cccQR5rTTTnMtKAoCVYCzfPly079/fxsF//nnn82yZctsGuOBBx5omjZtai6//HKb2piXXv/oo4+6pdxUj6dcuXKmatWq5sQTTzTNmjXbokaP6vc0atTIPtbPqVmzpn1cVIX9PKFE30+gCgV58MEHzcEHH2waNmzoWgAAAIDspuF+HTt2pEM2iQhUATl++OEHc8YZZ5i//vrLtWwsDLdhwwa3ZMzOO+9s3nrrLVO/fn3XstFjjz1mrrzySreUPwWh3nnnHbPvvvu6lo3Fw7fddlv7+PPPPzd169a1j4uiKJ9HCvN+AlUoiFKizznnHDNy5EjXAgAAAGS3//3vf6ZJkybm2GOPdS0oqtLuHiixFCjSjkVBGe1cJkyYYFatWmWLeS9cuNCMGDHCHH744Wbx4sX2dQsWLHDvzK1KlSrm3XffzXUbNWqUGTZsmOnZs6cNRv3000+mVatWuQI+yVbUz5Os9QHkpe+Asgpff/111wIAAABkL10fzZw5kyBVkpFRhRLv1VdftYXvdt99d/PLL79EnaVhyZIldszx7Nmzzc0332x69+7tntmcUVWrVi0zefJk17qlN99807Rs2dI+Hjdu3Kbxy8nOqCrq5yns+8moQjz+/fdf06JFCxvwVJYeAAAAkK2uvfZac9FFF5lDDz3UtSAZuEpAiTdt2jR7f8wxx8ScSlS1mFQIWj755BN7n6izzz7b7LPPPvaxAlKpUtTPk671gZJpq622Muedd54ZPHiwawEAAACyjzrtly5dSpAqBQhUocTbdddd7f3XX39tC+HFomi5hu699tprriVxKkYumgEtVYr6edK5PlAyXXDBBWbo0KF2IgEAAAAgG/Xp08fccsstbgnJRKAKJZ5qRm233Xbmzz//tGOLn376aTvWOK+ddtrJHHTQQbaIeGFouJxmz5Pq1avb+1Qo6udJ1/pAyaUhop07dzZPPfWUawEAAACyh67rNJv7/vvv71qQTASqUOLttttu5pVXXrHBGWUIXXLJJbZNNae6du1qi6EvW7bMvbpw9P727dubdevW2f9HBaVTpaifJx3rA9BQ2NGjR5vVq1e7FgAAACA7qEavZvtDalBMHXCmT59u7rzzTvPGG29sMTRPdXVUYLxfv35mr732cq0bhcXUVc+pUaNGrnUjFY7W7HkaRhdekD/yyCOmW7du9rEku5h6qLCfJ5To+ymmjkSNGTPGTJo0yfTo0cO1AAAAAH775ptvbMf+vffe61qQbASqgDyU9fTpp5+a999/30yYMMF89tlnNuAkFStWtG2a8S4UBqoKcsABB5j/+7//M+eff75r2ShVgapQop8nr3jfT6AKhdG8eXNbWH377bd3LQAAAIC/2rRpYwYMGEAJlBQiUAUUYPny5eall16yqZ2LFy82Bx54oB0SF06tHwaqlFl0//3327aQMo8UzKlRo8amGf/ySnWgKq+CPk9BYr1fQSoCVUjUxIkTzdixY80dd9zhWgAAAAA/ffTRR+bDDz+kiHqKEahCiabheMoWWrRokR3Klh8NUVLm0IYNG8yXX35pjj76aNseBqpUw2ny5Mm2LRHJDFQV9fMU5f116tQhUIVCad26tRk4cCC9UgAAAPBa06ZNzcsvv2wqVKjgWpAKFFNHibZq1Spz2mmnmfPOO8/MmDHDtUZ36KGHmv32288+1ox4Pirq5ylu6wPZ4cYbbzR33323WwIAAAD88/bbb5tTTjmFIFUaEKhCiaYMjnBKURU5z49mups3b559HAZofFPUz1Pc1geyw1FHHWWDneH2BAAAAPhEA9GeeOIJc/nll7sWpBKBKpR4PXv2tPcKzNx+++12KF5eS5cuNe3bt7dD42rXrm2ziXxV1M9T3NYHsoNqnmmaXwAAAMA3muVPkwBts802rgWpRI0qlHj6Cqge07Bhw+zyTjvtZM4880ybWaTnfvnlFzuN/j///GNnJlPx58MOO8y+VnyqUSVF/TyFfb+eo0YViuKiiy6yAaswqw8AAADINM143qRJEzNq1ChTpkwZ14pUIlAF5NDO5+GHH7YzjykAE039+vVtwWcFpCL5FqiSonweKcz7CVShqGbOnGnuvPNO8+yzz7oWAAAAILM05K9SpUoFTjaF5CFQBURYv369+eSTT8yUKVPszHea0W6vvfYyJ510kjnwwAPdq3JTXZ1ff/3VlC9f3s58lyh9BTXNqahWj7KUkqUwnydSIu8nUIVk6Nq1q+nWrZs5+OCDXQsAAACQGWvWrDEtW7a02VRc66QPgSoASUGgCsmgwG+PHj3MkCFDXAsAAACQGffdd5/tQG3cuLFrQTpQTB0A4I0999zT7LHHHuabb75xLQAAAED6qQTKhAkTCFJlABlVgGf69u1rh9klYquttrLvyyQyqpAs2v4vvfRS8/rrr7sWAAAAIL00yc8ZZ5xhTjjhBNeCdCFQhRLNx81fxcl/++03txSfsmXLmmXLlrmlzCFQhWThxAAAAACZsnDhQnP55Zdvmgkd6UWgCgDgHaVaX3DBBebtt992LQAAAEB6XHPNNaZDhw52siukHzWqAADe2WGHHUz9+vXN6NGjXQsAAACQerNnz7YZVQSpMoeMKgCAl+bMmWNat25tKlSo4FoAAACA1Fq6dKk55ZRTzD333ONakG4EqgAAAAAAAHJs2LDBlC7N4LNMIlAFAAAAAAAALxAmBAAAAAAAgBcIVAEAAAAAAMALBKoAAAAAAADgBQJVAAAAAAAA8AKBKgAAAAAAAHiBQBUAAAAAAAC8QKAKAAAAAAAAXiBQBQAAAAAAAC8QqAIAAAAAAIAXCFQBAAAAAADACwSqAAAAAAAA4AUCVQAAAAAAAPACgSoAAAAAAAB4gUAVAAAAAAAAvECgCgAAAAAAAF4gUAUAAAAAAAAvEKgCAAAAAACAFwhUAQAAAAAAwAsEqgAAAAAAAOAFAlUAAAAAAADwAoEqAAAAAAAAeIFAFQAAAAAAALxAoAoAAAAAAABeIFAFAAAAAAAALxCoAgAAAAAAgBcIVAEAAAAAAMALBKoAAAAAAADgBQJVAJIiCAL3CAAAAACAwimVc3HJ1SWAItOupFSpUm4JQGFceumlZsaMGW4put9++83cfvvtpn379q4Foeeee868+OKLpnTp6P1wZcqUMbNmzTLjxo0z++yzj2tFqF27dmb+/PluaUvr1q0ze++9txkyZIhrQWj69Ommc+fOZquttnItuen4OGfOHNOnTx/TqlUr14rQo48+at58882Y390KFSrYdfzhhx+anXfe2bUi9N1335lrr7025vanfd/vv/9uHnnkEdOwYUPXitDdd99txo8f75a2VL58eXvs+P77710LIp100kkxtz1ZsGCBufDCC02PHj1cC1AwAlUAkoJAFVB0559/foFBgLPOOsuMGjXKLSFSv3797Po55JBDXEtuChQ89thjpm/fvq4FkQratgpavyXZ5MmTzeDBg/PdtuL5fpdUN9xwgw2Uxtq2tH61bfbq1cu1INInn3xiJk2aZC677DLXsiW2v9i6du1q92877LCDa8ktnvVbkhV07GDbQ2Ew9A8AAAAAAABeSHqgas2aNWbMmDE2tfSOO+6wqbxaVntxp94eRdwXLlzoWlIj/H90++mnn1xr/jSUJHyPepSjWb16tRk9erR58MEHzf/+9z/bszBy5EizcuVK94qCaUjK888/b1No1auoxwUNY1EqrX6vKVOmuJYtffXVV/Z3yu9nJWu9xPP7JGs7//XXX80zzzxjevfubW677Tbz1FNP5fv/psK0adPs5/3zzz9dCwAAAAAAGaKhf8nw33//Bffcc0+w/fbbayjhFrfy5csHd955Z7Bu3Tr3juLn1FNPtZ918ODBriU1wv9Htz322CPYsGGDeya2o446atN7evfu7Vo3Wr58eXDjjTcG5cqV2/SayJvae/ToEaxevdq9Y0tTpkwJTjzxxKjv1+34448Pvv32W/fq3Hr16mVf07BhQ9eypU6dOgWlS5cOFi9e7Fq2lKz1kt/vk6zt/KOPPgqOOeaYqD9Dt9q1awcff/yxe3VqtWrVyv6f/fv3dy2FE8/6BpC/tm3bukexNW7c2D1CXn379g0mTZrklrY0e/Zsu49HdAVtWwWt35JM66WgbSue73dJpXWX37al57T9IbqJEycGAwYMcEvRsf3FdtlllwXLli1zS1uKZ/2WZAUdO9j2UBhJy6i65pprzPXXX2+WL19uTjzxRNOzZ0+Tc8FuLr/8cnPkkUfarJxbbrmF4q9JpiyYTz/91C1Fp6ydb7/91i3lNnfuXFOvXj2bAbVq1Spz7LHHmptvvtk8/PDDtg6AltV+3333mfr165s//vjDvXMz/fwGDRrYApe77rqr6dixoy30e+ONN5rzzjvPlCtXzv6Oes3XX3/t3pUYZSsdffTRZqeddnIt+SvqeoklGdu5srD03i+//NJUqlTJri+tX2WgderUyY6P/+abb2xhwv79+7t3AQAAAABQ/CUlUDV16lQ79EmGDh1qJkyYYO655x47VEtFSxUM0Ew84fMUgU2OXXbZxd6/+uqr9j4WrXPZdttt7X1o7dq1pmnTpubHH380e+yxh53t4rPPPrPD0K666iobONHyBx98YANQCp7o9evXr3c/YSP9nf/++29Tt25dO/RPf+tbb73V3HXXXebll1+2Q+mOOuooG8QpTBFCDembN2+eadSokWvJX1HXSyzJ2M6HDRtmrr76alt4/JJLLrHrRu/p3r27DQw+++yzNhiogNV///1nunXrZl5//XX37tTQUE+t47Zt27oWAAAAAAAyIymBqrFjx9p7Zdy0adPGPs5LWSPnnHOOffzCCy/YexRNOL2xgh8KfMSiWRY0re8JJ5zgWja699577XS2FStWNB999JE55ZRT3DO5KbNn4sSJZrvttrPTsir7KtK7775r7xWY0v+TlwJHmi5cFOxSTaREhD8/3ul0i7peYinqdq4srC5dutjHysB68skno84usv3229uA1cUXX2yXNV394sWL7eNU0BTttWrVijtbDQAAAACAVElKoCostr3VVlvZ+1iUJaILfA2RimbcuHF2elAFDo444gg7JK1z587m/fffd6/ITYW6e/ToYbNtfvnlF3vxr6FqCiRoSFZY1FxFwhWUOfnkk21mjzJHvvjiC/tcNOHPnT17ts2S6dChgx12dtppp9lMocIWS1fBamXRHHfccaZOnTrm3HPPNW+88YZ7NnE1a9Y0hx12WL7D3JQpo8LiZ599tg00hdatW2eHoImG6FWvXt0+juXAAw+0mUOi4WjK9hEFgrR+Jb+//8EHH2zXowI54XvjpUDVjjvuaP8G8SjKeslPUbdzFU1funSp/SzaHgty//332yCfglTxTOmqv4+mdxZlYSn7rXbt2vZeQTFl0EWjgJq2d22fkfTzwr+5ntNwRv0Njj/+eDsEcubMmfY5AAAAAACSJSmBqmOOOcbeayjU008/bTZs2GCX82rcuLEdEhVeTIc0U5oups844wwzcOBAO8ObhkQpyKCL+1NPPdXOrJbXW2+9ZS/mdRGvwNaAAQNsAEoX1ar5owtqDaNS8Ep1hfT7KYPolVdesUEwLUcT/lwN59JwNg1fUzbM559/busRKRCSSK0lrY8rrrjCBtC0fvReDZHT0DRl/2i9hEGQRCnYJeEwtrz0u8v5559v70Nax2HATQGkeCgAI3qfhglKqVKlbNBNFByMVsMqNGjQIDvMTdk78dJ6+fjjj22QsEyZMq61YIVdL/kp6nauGRSldevWtm5XQZTp1rJlS/s4nkCVAogPPfSQ/Tsoq0s1w7T+NJOjsrK0zS9atMi9erMRI0bY7V3ZcpH083R74IEH7LY7ePBgu+1qOKhqmB1yyCGFrjkGAAAAAEA0SQlUnX766TbIJMoY2nfffW1g5rXXXjN//fWXbc9Pv3797EV8lSpVbKBJGTpLliwx8+fPNxdeeKF9jQJVsYY/qbaPsrA0rb+yRlRTSVkr06dPN4cffrgNMikrR0XBFSDSBbuyelSLKT+qP6QLdGVWabiaAjSqsaTfo1mzZmbFihXulfnr06ePefzxx+3QKgXJFDxQTScFzRRgUyBBmWSFEQZktK6jDXPT/7fzzjvbQE8kBd1Ew75Unyoeep0yoySyCLlqWSnLSMXB9bfXtqDAh4Jh//77r3tV4SgopOyveOtThQq7XvJT1O08XOcKnMZL/6doW4mHtn8FaVUHS7+TtlsFfRW01bDLcDhhvP755x9bP0vvU9ai/hb6Ox900EH2+6TvHgAAAAAAyZKUQJVoCJuG6cmcOXNsYEaZI7vvvrsNbiij6eeff7bP56WsKdF7wqwV0XufeuopW8dHgSUVs45mr732MsOHD7f/T9myZW1NpYsuusg+p4DQO++8Y+sbaYjXfvvtZwNQokBKfvbcc0+bbRIGcvR+/Y666NewMg2nKoj+/7Cm00svvWQDKPodJQxSKbtGNZxifb78VKtWzQ5n1O+Td+hWmLmlv0Pe4WoKAorWXSK0TkSzBYYUJFQgUIFG/Z00hFNDyfS3VMBQQT19vrxF2OOh9SNhgChehV0vBSnsdq6gTpg1l8g6D9e3AlDaluLRpEkTm1kVFokPvx/6Hml7TmSmQwX5tM0qg+yAAw4wW2+9tR3+p88tqm0WK7MMAAAAAIBEJS1QVb58eRtUmjFjhi2qreBFGJBRLSDV5NGQLw1Lynthq0wNBWnOPPNM17KZLozDC3sNEYxGgZBtttnGLW2kjA/R8KTwcUiZMKJskfwoi0SFrSNpqFtYEFsX/wVRoEUZYqrxFO3zVa5c2Q4VEwURCuO8886z9xpKGCkcLhZteFuYDaa/WyLC9aGMt0ganqkMNg2bVB0qZWqJ/p+3337bDi9U3ahEgiQyZswY+zdMNKAmhVkvBSnsdh6ZfZfIOo/c/vKu81iuu+4692gz1bpSPS6JZ7uNFG09KQgoypiLN7MQAAAAAICCJC1QFdp///1tcW7Vx1m2bJkthK7hQXvvvbfNttGwJF3ER1Lmh+o+6aJX2S6qH6RheSp6rqCSAgASK3NDWVJ5hQWyFQjKK29QK5ZYQ7QUcJF4Zq8L6/5oyNSVV14Z9absHpk0aZK9T1Q4A13kMDfdK0CjAI+GL+YVrpeCgnV5hcES1U/KS0HF5s2b2zpUGi6pYtvKxFH9MQX4tL401E5D0eKh9aLgV7QAXzwKs17ileh2rmGGYY2tRNZ5ZHAq2jqPRnXVotEwWEl01sUwsBspMthWmEw5AAAAAACiSXqgKpICUJppTzWMlIGiej6i2eYWLFhgH4syjlR4erfddrPDipTBccstt2yqI1SpUiX3yujyy1BJpAB3Xvq/o9EQKoknwyV8ze+//26Ls0e7hVlGmhGuMKpWrWqDE5HD3CZOnGiH5ymrSEGivMLgg4apJTJ0S7PliQKLBdH/oaw0ZYqpPpL+vlofql8VDw0nlMIGqgqzXgojnu1c26GCWBIGXuMRrm/VN1NWVEEUhI1VqD2R7TZStMBustYdAAAAAACRihyoUq0jZaZoeJ0CTrFoeJTq5uiCW5lTkTOMaUiSCqorM0PDxjR7n2rfKHCjAIfq/+QnVRfNsYYaqji76LMUJMzs0ixsyg7K76bso8IKh7mFs9wVNKudipMreKLsHs2qFw8Vug9njTvllFPsvf5uqrWl+/wceeSRm2bBUzHueGjYpNZfUTKfEl0vsSRjO1dmmSQyxDN8bbi+C6LMvViBx0S2WwAAAAAAMqHIgSpleSjwoMycsWPHutboVLi6QoUK9rGGiYmCH6pDpKCJsl00bEwz6zVo0GDTUKdwRrVEMn+SIdYQqTDLRXWnClK9enV7r4wqFfiOdlNGmD5rvLPvRaOC3vL666/bAInuVfw6rCWUl7KbVGBe/u///m/T0Lj83H777fZeQyLD2f9U5PuHH37YFADKjwqrS/i3z48CLpq9UZlK8Q7VjCbR9RJLUbdzCWew1HBBzWZYEM0SqO+GaJbBeOjv+Ouvv7ql3MKhpfFstwAAAAAAZEKRA1W6KG/VqpV9rJo8CxcutI+j0ex7ql2kLBll2IgKqYuGRUULHuiiPhyqpEBDOmmWvmgUTBPVYypIGAxS7a1PP/3UPo6k4JtmKdx1113NAw884FoTF9Zc0jA3ZTcpuKcaX/l58MEH7bA1BU1UgDu/YNX//vc/m+Gkv3f//v1d68Y6UMpoU7Dq4Ycfdq1bUracipBLPBlSGqqnWfKU+VUUhVkv0RR1O5c6depsmo1Sv0N+QwA1hFCz7YkyDhOZ9TDadqs6Wm+++aZ9HM92CwAAAABAJiSlRpUybVT/RpkcmvFMNYg0lE2BJd10QX7rrbduutDv3r37puyasBC6LuzzDkFTBku7du3cktk0vX+66Pe5+eabN2Vy6V4BGxXOVjHyeLJcNFQs/Nzt27e3sxuGNISsc+fONktH669Tp07umcIJh7ndcccd9r6g4W3KrHn88cdN6dKl7XA1DS9TFlMYEFRRcK0D1Yjq06ePbVMdptq1a9vHos936aWX2sfXXHONadGihc0CUmBENHxTw9c0O54Cdar7pdcVREExCQN9RZHoeomlKNt5SMFBFePXUELVz9L6nDdvnnvW2JpWClgqqKXvhOpshQG+eCkgFzm8UH8LBb0U8FXgL/LvBwAAAACAT5ISqFLAY+TIkTZ4o0yTHj162OFVGvakm4aJ3XnnnbbmkzJKwiFkUq9ePZtRpGwe3Z9++unmggsusEXVdSGvIXFhbZ9wyF26aGa3u+66ywbTFKzRvQI2+p1U8ygsTl0QBRr0eTSL3aGHHmqOOeYYO/vdPvvsY7OzNLRNgYW8QY1EqQ6Wsps0bE51o2rUqOGeiU3BsVGjRtmC9cqsUrBKWVbK8NK9AkwKPGkomz6zgi95Pfroo6ZDhw728fDhw+260s9TAEyfSRk8Gsam7UP/V0E1x0SF1FWMXdtRURVmvURTlO08pG1GATsFs1QzSjMHKutL25TWmX621rECfFqPKrQfq6h/LMpO1DrXZ1UmVpUqVezfUMG1otRBAwAAAAAg1ZISqBLVlFJm0D333GODG7q4VnBAN118a6jT+PHjzTPPPGMDGCE9r6FSusBXvSYN9Xvttdfsc5o1TcXUNSztxBNPzJV5Iocccoht33PPPV3LZgqG6Dllr+SloIKe0y0/GuL15JNP2oCN6hKpHpMCEAoe6DPmpen/9TPzBmIUrFFmkjJl9Joff/zRrgvV5VJ2jz5jQb9LpPD/CWeRC+n/VXaTnrv66qtd62bh+lKWTiQFRDTUrHfv3jbbRr+Xiqbrb6Ngh7KElDmkYX7RaFjcoEGDbKBLs/wpwKd1puCjZqDT8Df9bNX8UvAxL/3d9XuFfysN01M9Jf1eiUjWesn7+0Qq7HYeSTXJtI2PGzfOrlO9T0Xtlfmk2mEKYikgpqyywhQ+HzZsmLn++uvtetTvovpaCpp99tlnUb8rCmDp8ypgFklDJtUebRZBfV49p5u+TwAAAAAAJEWQQv/991/w77//uqX4bNiwwT3KnObNm6tYUzBw4EDXkvzfK9H1km5r1qxxjwpv7dq17lFitN2sWLEiWLdunWvxW2G287z0/vXr17ulwqlYsaLdbqdNm+Za0vt98uG7C2S7tm3bukexNW7c2D1CXn379g0mTZrklrY0e/bsoFevXm4JeRW0bRW0fksyrZeCtq14vt8lldZdftuWntP2h+gmTpwYDBgwwC1Fx/YX22WXXRYsW7bMLW0pnvVbkhV07GDbQ2EkLaMqGmWUKDsnEcrU8FGyf69E10u6FWWmvVDZsmXdo8Rou1HWUbZk6hRmO89L71dmWrL5+n0CAAAAACCalAaqAAAAAAAAgHgRqAIAAAAAAIAXCFRFoRns7r777qiFvwFf3XbbbXa71YyNmcAwQwAAAABAURGoiqJly5bmhhtusDPeAdni2muvtdttYWYKBAAAAADAB6VUUd09BoC0WLlypfn888/dEoDQXXfdZR5//HFTo0YN17KlTp06mXbt2rklRHr11VdN/fr1Tfv27V1Lbn/88Yd56KGHTKNGjVwLIt18881m6NChpmrVqq4lt/79+5sdd9zRVK5c2bUgNHv2bDN27Fjz/PPPx5yQ5vLLLzetWrVyS4j07LPPmubNm5s2bdq4ltymTp1qhgwZYk4++WTXgkg//fST+fXXX80DDzwQc4Kfyy67zLRu3dotIdKjjz5qevbsaerVq+dactM56/jx482xxx7rWhBJx47hw4eb3Xff3bXkds0115imTZu6JRQ3mlhshx12MLVr13YtyUGgCkDaLVmyxDzzzDNmw4YNrgWA/Pnnn/Zi7aSTTnItW3rppZfM3Llz3RIirV271lSqVMl069bNteSmIPnAgQPNf//951oQ0vDtOXPmmI4dO5qjjjrKteb27bffmvfee88tIZJm7tX66927t525OJrBgwebefPmuSVEWrFihdl///3t9hcN5w35U3BqwYIFpk+fPjFnzVYwcNGiRW4JkZYuXWrq1KljR9VEo3X74osvsv1FoX3fzz//bAN91atXd625jRkzxvzwww9uCcWNOrB07pXsQDiBKgAAAAAAAHiBGlUAAAAAAADwAoEqAAAAAAAAeIFAFQAAAAAAALxAoAoAAAAAAABeIFAFAAAAAAAALxCoAgAAAAAAgBcIVAEAAAAAAMALBKoAAAAAAADgBQJVAAAAAAAA8AKBKgAAAAAAAHiBQBUAAAAAAAC8QKAKAAAAAAAAXiBQBQAAAAAAAC8QqAIAAAAAAIAXCFQBAAAAAADACwSqAAAAAAAA4AUCVQAAAAAAAPACgSoAAAAAAAB4gUAVAAAAAAAAvECgCgAAAAAAAF4gUAUAAAAAAAAvEKgCAAAAAACAFwhUAQAAAAAAwAsEqgAAAAAAAOAFAlUAAAAAAADwAoEqAAAAAAAAeIFAFQAAAAAAALxAoAoAAAAAAABeIFAFAAAAAAAALxCoAgAAAAAAgBcIVAEAAAAAAMALBKoAAAAAAADgBQJVAAAAAAAA8AKBKgAAAAAAAHiBQBUAAAAAAAC8QKAKAAAAAAAAXiBQBQAAAAAAAC8QqAIAAAAAAIAXCFQBAAAAAADACwSqAAAAAAAA4AUCVQAAAAAAAPACgSoAAAAAAAB4gUAVAAAAAAAAvECgCgAAAAAAAF4gUAUAAAAAAAAvEKgCAAAAAACAFwhUAQAAAAAAwAsEqgAAAAAAAOAFAlUAAAAAAADwAoEqAAAAAAAAeIFAFQAAAAAAALxAoAoAAAAAAABeIFAFAAAAAAAALxCoAgAAAAAAgBcIVAEAAAAAAMALBKoAAAAAAADgBQJVAAAAAAAA8AKBKgAAAAAAAHihVJDDPQYAAACQJJxmF06pUqXcIwBASUSgCgAAAIAXdGlCoAoASjaG/gEAAAAAAMALBKoAAAAAAADgBYb+AQAAACmycuVKs2jRIre0mYa3bbPNNmaXXXYxZcqUca2bX1+pUiVTsWJF11o8LVmyxMyfP9/UrFnTtTD0DwBARhUAAACQMq+99prZd999t7hVrVrVVK5c2Wy33XbmpJNOMh988IF9/VtvvWWff+ihh+xycfXff/+ZZs2amUaNGrkWAAA2IlAFAAAApFiVKlXMueeeu+nWpk0b07RpU7PXXnuZDz/80Jx++ulm3Lhx7tXFm4JUF154oZk4caJrAQBgMwJVAAAAQIo1aNDAvPLKK5tuQ4cONSNGjDAzZsww3bp1s8Gba6+91r26+Jo7d6455ZRTzEsvveRaAADIjUAVAAAAkCGlS5c2d999t9l6663NlClTbN2mSKtXrzaTJ082M2fOtPWb8rNgwQLz448/mmnTptn35efff/+1QbKpU6eaFStWuNb8rVq1yv6Ov/zyiw2sJWrAgAHmwAMPNB999JG59NJL7WcHACAvjg4AAABABpUvX95sv/329nEYYFq3bp25/vrrzc4772wOPfRQs//++5v99tvPvPPOO/b5SE899ZQ54IADbM2rww8/3BYnVyH28847b4vA1/r1681ll11mKlSoYKpXr25q1aplC7c3adLE/P777+5VuS1cuNC0a9fO7LjjjuaQQw4xNWrUMLvuuqvp06eP2bBhg3tVwUaNGmX22Wcf+xkGDhxI0XQAQFTM+gcAAACkyKBBg0zHjh3NBRdcYAYPHuxac/v555/NQQcdZLOqFMC5+OKLTbly5exsgBdddJGpVq2a+fjjj82wYcPsTIHKmFLBdenXr5+54YYbbKBKWUoKVs2ZM8f+nFmzZtl6WBpqGNJrnnzySRuYatGihdlqq61s4OjVV1+1P0MZVmoLLV261Bx99NFm+vTptvB58+bNbftzzz1nvvjiC/vZ9DgeyvZSYCyc5VD/z957750rQMasfwAAAlUAAABAiuQXqNLwOwV7unbtaiZNmmTOP/9807hxY5u9VLZsWfP111/bbKqQ2lXb6ZFHHrF1rZQdtcsuu9if89tvv5ndd9/dvdKYP//80xZwV/BLQ/ZE2U/bbrutbf/1119zBYTOOussM3bsWPPpp5/awFRI/0///v3NNddcYx588EHXuvF3VwH4CRMmmPfee8+ceuqp7pn4EagCAETD0D8AAAAgxVQ8XUPswtsOO+xgs6Pq169vg1QHH3ywefjhh92rjc14igxSiYJYoowpUVDnjTfesLfIIJXssccedpidhhIqoCUKACk49Mcff9igVCRlVK1ZsyZXkEqBrRdffNG+R8P8IqmtV69e9rGCcQAAJAuBKgAAACDFFJRS9lN4U2DpiCOOMK1atTJPPPGEzZ5Se0jD8PLaaaed7H2YIaWsK2UyNWzY0MyfP9+MHz/e/ixlPx1//PGbMpXCOlIKVF155ZVm7dq15swzzzRVq1Y1Xbp0MW+++aZ9LhySF1IB92XLltn6WXfccYcdYhh5Gz58uH3dDz/8YO8BAEgGhv4BAAAAKRJPjapIGtqnIX7/93//Z2677TbXutGYMWNsgOmKK66ww/FE9a00PG/cuHF2WVScvUGDBnZYoYqpK1NKgTJR0ErF1x977DGbyRXabrvt7M/RDIThbHzffPONqVOnjn2cHw0lVD2sRDH0DwAQDRlVAAAAQBZatGiROe2002yQqn379jYzSkXP//nnHzN69Gg7819eCkKpoLoKmyu49Oyzz5pzzjnH1py65557ctWhUsBLateubQNIsW6FCVIBABALgSoAAAAgCykwpXpTGj74wgsv2Fn8NEOgglHKolJBdQmH/i1YsMAODRw5cqRdViZUp06d7GyCyuSSyNpV+lnKtFLm1fLly13rZrNnzzb33nuvLaYOAECyEKgCAAAAstB///1n76NlTt133322FpWsW7fO3itgpRkGr7vuOltkPVJYn2rXXXe196IZAxUE0/uvv/5617qRMql69Ohh2zXEEACAZCFQBQAAAGSh008/3daeUh2su+66y3z88cdmxIgR5txzzzW33nrrpuLsixcvtveaCbBDhw7m119/tbMNPvnkkzYrSzP6XXzxxbY4uwqxR+rXr5+pXLmyGThwoK2P9dxzz5khQ4bYGQiViVWrVi1boB0AgGQhUAUAAABkIQ3Ne/XVV+0MgjfffLM54YQTTPPmzW1x8gkTJpju3bvb17399tv2XjT0T0GpyZMn21pVLVu2NP/73/9sUfN33313i+Lpe+65p/n8889NkyZN7LDAiy66yBaG12PVxdKwv2gZXQAAFBaz/gEAAABZTIXQVdB84cKFtu6UgksFWbVqlZ0xULWs9tprL/u+gmgGwRkzZtjMq/33399UqFDBPZM8ujRh1j8AKNkIVAEAAADwAoEqAABD/wAAAAAAAOAFMqoAAACAFOA0u3DIqAKAko1AFQAAAAAAALzA0D8AAAAAAAB4gUAVAAAAAAAAvECgCgAAAAAAAF4gUAUAAAAAAAAvEKgCAAAAAACAFwhUAQAAAAAAwAsEqgAAAAAAAOAFAlUAAAAAAADwAoEqAAAAAAAAeIFAFQAAAAAAALxAoAoAAAAAAABeIFAFAAAAAAAALxCoAgAAAAAAgBcIVAEAAAAAAMALBKoAAAAAAADgBQJVAAAAAAAA8AKBKgAAAAAAAHiBQBUAAAAAAAC8QKAKAAAAAAAAXiBQBQAAAAAAAC8QqAIAAAAAAIAXCFQBAAAAAADACwSqAAAAAAAA4AUCVQAAAAAAAPACgSoAAAAAAAB4gUAVAAAAAAAAvECgCgAAAAAAAF4gUAUAAAAAAAAvEKgCAAAAAACAFwhUAQAAAAAAwAsEqgAAAAAAAOAFAlUAAAAAAADwAoEqAAAAAAAAeIFAFQAAAAAAALxAoAoAAAAAAABeIFAFAAAAAAAALxCoAgAAAAAAgBcIVAEAAAAAAMALBKoAAAAAAADgBQJVAAAAAAAA8AKBKgAAAAAAAHiBQBUAAAAAAAC8QKAKAAAAAAAAXiBQBQAAAAAAAC8QqAIAAAAAAIAXCFQBAAAAAADACwSqAAAAAAAA4AUCVQAAAAAAAPACgSoAAAAAAAB4gUAVAAAAAAAAvECgCgAAAAAAAF4gUAUAAAAAAAAvEKgCAAAAAACAFwhUAQAAAAAAwAsEqgAAAAAAAOAFAlUAAAAAAADwAoEqAAAAAAAAeIFAFQAAAAAAALxAoAoAAAAAAABeIFAFAAAAAAAALxCoAgAAAAAAgBcIVOH/27sTqKumN47jO8M/8zwks0zJFGWekyjzPJNUCCEzsagMJaUiZVjGrJCoFipjhkypzDOFkhQyj+d/v/vufdv3vHd6zzvd1/v7rHWWe++589n3ZD/v8zxbRERERERERKQsKFAlIiIiIiIiIiJlQYEqEREREREREREpCwpUiYiIiIiIiIhIWVCgSkREREREREREyoICVSIiIiIiIiIiUhYUqBIRERGRCv79918zc+ZM89VXX5koitytIiIiIjVLgSoREZFaMHHiRHPyySebjh07mueff97d2rD9/fffZu7cueann35yt9Rff/75p/n222/Nr7/+6m6p//bff3+z7rrrmrXXXtscf/zx7lapLXVxzvj555/NpZdeao499ljTs2dP8/vvv7s9/006L4uIlKdGkf5EJiIiUrJOnTqZ6dOnu2u5tWrVytx6663uWtpKK61kvv/+e3t5/fXXN5999pm93NAQ0OG7ufPOO7O+x6ZNm9pgCJPjZZZZxt2aHMGvk046ybz//vt2sv2///3PbLzxxmbUqFH2cnX4448/zE033WTuuece895772WyjgjsdOjQwZx//vmmWbNm9jZMmzbNnH322RWCWbyfJk2amK233toccsghZosttnB7FhoxYoTp1auXfc111lnHTrAXX3xxtze/qrzmLrvsYl566SV7mc8zbtw4e7kh+Ouvv0zv3r3NHXfcYQOqK6ywgnn33XfNoosu6u6R3yeffGKOOeaYSmWh8bxjxowxq6++urulbs4ZgwcPtuPFu/fee8sySMm45PfFcQoxrldccUWz5pprmp133tm0b9/erLrqqm5vRTovi4iUKQJVIiIiUtxPP/3EzLPo1qRJE/eItH///TdKTUQz+1OTUbenYfnhhx+i1q1bZ31X8W3bbbeNfv31V/eI5C644IKczz9v3jx3j6qZO3du1KJFi5yv4bfUxNfdO61Hjx457xffunTpEv3xxx/uUWndu3fPus+PP/7o9hRWlddMTfQz+zt06OBu/e+bPHly1Lx586zvhy3+/eQzevToCo8tZXvmmWfcM9TdOaNXr15Z72nYsGFuT3k599xzs95nvq1x48bRGWecEf3yyy/ukQvpvCwiUr5U+iciIlIievaUYuWVV3aX0ho1amTOO+88s9pqq9nMoYsuusjtaVg6d+5sXn/9dXfN2Mygtm3b2u/FmzJlis2UqIovvvjCZjrVJD4LGTYemRm77rqr2XLLLTOZTt999539r0dmTimGDx9uDjvsMHetauriNesrMu/IJtppp51sJl5SZPQkEZ436uqcwRhgDPMZtt9+e3PAAQe4PeWl1HMxGYi33HKLad26tZk3b567NU3nZRGR8qVAlYiISELHHXecDVbEt6efftrdY6G+ffuaOXPmmK+//tqce+657taG44MPPjAPPfSQu2bMEUccYctsJkyYYL788kuz2267uT3G3HXXXVXqW0WgixJDMOmubrNmzTKPPvqou2bMHnvsYRuOT5o0yZYzcpz79etndthhB3eP3H755RdbHsYE+vbbbzdLLbWU22Nsmd3kyZPdtepTF69ZX1DmR+kb388iiyxi1lhjDbencnbffXcb6ArPCTfccIPbmzZs2LCs/R9++GGFsVoX54zmzZvbMTx//nzzyiuvJP4OahvfE/21+O8bb7xhrrjiCrPsssu6vcaW5h566KHu2kIN/bwsIlKu1KNKRESkRAsWLDDLL7+8u2ZM9+7dzcCBA921wsiueeutt+wEmL5A9LyJI3hAQ18mTWTl0N8ozLLwjwWBESa3iy22mL0tfF/gvU6dOtVm1Gy00UY2e8njn34mofQtojcRGQU838iRI+2+o446yvZZChFUeu6552yQZokllrDP2aZNm5L7SQ0aNMh+Xx59fML+TePHjzf77ruvu2Zsv54k2Rz0rqG3EjbbbDPTrVs3u3l8x2Q/VQXBtXbt2rlr6QDHKaec4q7ld84552RlehE0CgNF/fv3z8omu/zyy21fKsQf++OPP5rlllvOXcuvKq+Zq0cV43js2LF2jDJuOGbh2Ir75ptvzAsvvGBXD2RM8t1vvvnmNpjD2M2FIAnf8eeff24zZ3j+Pffc06y11lruHtkISj777LM24MPnoycR753XqQx+ywQraCJPoHHIkCHm5ptvdnvT2TlJ+5s9+OCD9nflMd732Wcfdy23QucMvn+CvwRjtttuO3vb7Nmz7bHhcfx+DzrooKwxQrP/xx57zAZm6OHE72uVVVZxexciq5G+TXyPW221lbs193kDnLNee+01u59gG1mShXp5cV8+F8/D+Y1zSTgWeG9hr65cio1rcM4iAM535Y0ePdocfPDB7lpp5+UkYxiV+Zzx48l3ybF6++23TYsWLbKCbJV5P7mOGbc99dRT5s0337TncjLn4kH1Z555xma/chx5P+EfEkREakXqZCUiIiIloC8Q/3T6jb5BpUr9j37mcakJpLs1jV4pF110UZSaBGc9f67t1VdftY8Je+h07tzZ3hY666yzMvtTEyR3a1pqUp/Zd8ghh9jeOMsss0zmNh7rpSZy9j5+X7ilJsHRrbfe6u5ZWGpimXkcfWHi6F8VPnefPn3cnspp1apV5jkmTpxoe+yEzzuvGnpUPf7441nPecIJJ7g9hcX7TKUm125PWmrimLX/1FNPdXuS96iqymuGParat28fDRkyJFpqqaWy7p+aGEeDBg1yj1ho6tSp0R577JF133Cjj1tqsuzuvVD//v1tX6Fcjxk8eLC710IPPPBAlJp857z/nnvuGX399dfunsV99dVXmd8XunXrlvV8pfaoymXkyJFZzzV+/Hi3J79C54xdd901s++tt96yvxeOhb+Nbdlll40mTJhg79+3b98K5xd+82PHjrX7veeeey7rPtOnT3d7Kp43Pvroo6zfm9+22mqraPbs2e5RC02bNi3afPPNK9w/vrVr1849Ir9i49p74oknsu7Xtm1btyet0HecdAwn+Zzh8eQ3yXsJ7zt//vxE7yd+zD744INo6623znoc24EHHhj9/vvv9pjm6iO47777Rr/99pt7VhGRmqfSPxERkVrwzz//uEsV+waxHPz111+fKVcr9Fd6sjoQ9mjJ1a+l0P7w+qeffmpXfaNsxvNL0nMb/XrIQvDC98Zf80877bQKKxzmEn5+LvvP6pERFmZE0Geqsu677z5b9gOyYvbee297ubqR4RBiZTSyZShhrIoffvjBXUorJWOqqkp9TcpZzzzzTJuZEWIs09fJZ155Xbt2tRl4+ZAVkpoc2ywg7/777zc9evTIjHF6CIUrG1JaGbrtttvs6npkCnlhJg9ZVvQNI9umFGS4+OykclDonBH+hskYvOyyyyrch/LZI4880pxwwgnmwgsvrPCb4/fNuOVYeOFrInzO8DXJ5txxxx0zv7cQpYOURYd4DbLi3nnnHXdL/vOcP/7VgYw/VvPzXnzxxazPVOg7TjKGk37O8Lslq49sqhD3TfJ+wuclY4vzOSuBxpHB2rFjR7s/7CPoPfnkk/bfKRGR2qJAlYiISEJM/Ji4x7fKoISL8iuPMjICRUy+99prL3ersWU6TMyL9T2qLEpTeA/YdtttzXrrrWeaNGlir19yySXmo48+spcpESJYwYTJT4g8JsHFPne8bIvSkxDLzIdBiTBwVorffvst0wyZieGAAQPs5ZpAKdrRRx/trqVR2kUp48knn2wn8UmEfa8Qll3VlFJf00+qWfKfBtTxYF1YIgcmyJTJnXjiibYcjR5BTN4vuOACdw9jx8yIESPctXR5qMf3S4CJ39jHH39sSxLDHk6UoBIg8/jeKePifTLJX3rppe3tlH/V5FgoB5SBgfMFJXHhb41AJAFcUL7F/rCsl2PwwAMPuGul43hSRkupGsHqk046KStISOkYx8278cYbbTkhOM9QasyxHTVqlA1IgvFCjzCC9tWJgJrHeYLzVymSjOHq+JyUUoJzLud7gseUJCZ5PyH6plFWS6N8gs78gSLEOOA3xB8NCH7Ge3rdeeedtmxQRKRWpBOrREREpJh46V++rV+/fu4RC+Vb6j8szaAkIzRp0qTMvm222cbdmrbJJptk9nXq1MndulBYttSsWTN3a9rTTz+d2ce2+OKLR2PGjHF7037++eesMq/hw4e7PWmU0KUmTZn9LMlfyCuvvJK5L1tqshRde+210d133x1deumlUWrynLU/NUlyjyzNVVddlXnseeed526NaqT0D3Pnzo1atmyZ9dx+W2SRRaLTTz+9QqlYvnKlBQsWRKlJa9ZS+ZRtUe7jVXfpXymvGY5Ztp49e7o9UZSaEEdNmzbN7IuXl7777rvRnDlz3LVsjEf/uLBsktIlf/vQoUPdrbnxXvx9GTt//fWX25PGGPD7t9hiC3dr5dR16V++cwbix6Z3795uTxR9+umnUaNGjbL2X3bZZW5vFM2YMSPruIflnvFzw5QpU9yeivvWXXfd6LPPPnN7I1sCGu4fMWKE25Nd2hY/14TlbOPGjXO3FlZq6R969OiRdV9K87xC33GSMZz0c8aPZ5s2bew5OJTk/cSP2XrrrRfNnDnT7Y2iE088MWs/v6XwmPJvS7h/1qxZbo+ISM1SRpWIiEg1C0svivGZKqCxbSj177S7lC7jqSlXX311hcblvgGvFzY6Bw18UxNVd81klbrkQsPe1ETNXTM264CMLTIxrrnmmgplc2GT9okTJ9rSlPjmM5f4vq+77jp7mSyEK6+80l6uSbwO5W5kF5HlECLzYejQoTbDJV5KFSKzgceSMUE2WHhfsuzYX92SvmZqIm3HibfkkkvaZt0e2TUhGtn7ZttxYSkW5aNemOlDCSDvx2f7xZHd59HUP15e1bp1a3fJ2Cbr/2UcG0r/vA022CAr443fXu/evd21dEZgy5Yt3bV0I+8kyLAJjyVlmCGyc7y6PM+Fz48wc7OQJGO4Oj4nDdYffvjhTFagl+T9xJGxG/7OwsbyYCXQ8LkOO+wwdykt6VgREaksBapEREQSohxjk002qbBVps8NKzH5kpBXX33VloiAEg2WWPdYkaqm5Fp9zJf8eZtuuqkNHoUbK/d5vN9iHnnkkaySwRDfWbjilr9M6Rbvj6BIfOvSpYu9T8+ePW1JDwh61UZvJxCsIZhCPy3KH+MTSwJZhcrOKAmi5DHEczBZ7Ny5s7uleiV9zVyroYUrxoUTdI+ys2HDhtl+RfS+Yawzjl5++WV3j2xhDxyCpKxGyKT9+OOPzyojQzg+KW2Lj01KAT0Ch5UtJa1Pch0bVuzziu1nTCQRf95wPCAcZ+H5q0+fPpnzBf3vfKkbauI8F/YwQ2VW/azsGK6Oz9mqVaucxwyVfT9x8ecNxwGK7U86VkREKkuBKhERkYTIBqJBbXwLl6EvpmnTprZ5LviL++GHH24DByxn7ic29H4hEFKb4n/xJ3BAz6BwCzMEfF+rQsjWoX/QjBkzzEMPPWSGDx9u+6mQGUWQzjdxBxMwxIMqIR8cIQAGlphnyXX6r/gt3q+Ffi5sBC+qyxprrGH7zRCwigf9CADlwwSTZeXJiKEnE1lYZCx06tTJ3aP6Vedr5msSDXpfkblD/yKOweTJk23WHcc6zNQLkd1Blg59jzyOMU3W6Z01btw4d2v2+KQJdnxshoEzfk8EFRsSfguFFNtf3chy9MeV8xrnNxZPCPsgEcRmfFa3sDk4Qcx8WUlxScZwTX7OJO+nmHIbJyIins4+IiIidYhgT7w0KZx0MKkiuMNf2fMpVF6WVDw7iGbh48ePz7nROJlSrVIx2SIgRwYP5UIbb7yxzZwKA1U+42CjjTYy1157rS1tim++xM83Lyb4xAqENPb2W5jFAAIhN9xwQ4UMnepARgnBFLKAvJkzZ7pLFU2ZMsW8/fbbdiUyGhkzAaWRcU2qjdfkMxME88EkSonILiHziYzBQk3iO3bsaB/fr18/W8LmkTFHE2lfChiOT1Z4zDUu/caCAWGjb6l9rC4aD6b4LEgcccQRFYLK1YEglS8RBqtAlhJ8STqGa+pzVuU3JSJSHylQJSIiUoeYtDCZBkED+jExSaek7PHHH7e9mzp06GD3h8L+J7n6hsRL9yor7D8FJkZkC+XaWI69qoEAylk8Vh70gTkmlRdffLHtsRPf9ttvP3uffGUyhTRu3NhdSstVupZPvOdNiP43YelhTQeeyhGBVf99knVFthxlfZQrkVlSLPuO40nZH6WlvXr1cremA5J+hbtwfBKozTUu/RYGvKRuEIDkOPF7njp1ql3BlAA0PZMIGhMIjwfHq4pyz3g5a1gSWkjSMVxTn7OqvykRkfpGgSoREZE69Nprr7lL6YBT8+bNbckaTboJxMQbdXuUm3lkNE2fPt1epofIqaeeagNeVcGS7mHwiclWPvRNKQUlWbmQEUBgzuvatau7VJqnnnrKTuRybfHnuvfee21gkGAYRo4caSeOBP5YTj7M6sqHMkwaVOf6jvksYbYWJXYNzdy5c92ldKAu7HPDGPj888/dtWxM7MMgIL3bzj77bHctzWcP7rbbbva/4HhOmzbNXcvG8axMEFKqH1lwZBp5c+bMseXRlOCecsopZsMNN3R7qgcZTPz2+Y368yLIOiKjqRRJxnBNfs6kvykRkfpKgSoREZE6FJZsjB071qy11lq2nw6TdHqbELhicjVp0iR3r7Tdd9/dXUpP3nfYYQe7qh6ZT/z1vqrorUKpiUcfqF122cUMGjTIXqb30jnnnGPfXzz7Kh/6svD+KOGiATqr/vE5KAP0AQjKAs866yx7uVQEmOj7kmvbZptt3L3S2rdvb7NsPEoBfakO/a3eeOMNe7kQJqAEGHmeNddc0wYU+UxMjPksITKDGhpKOT1WAySw995775knnnjCNoDOl+3HGGZlMzIKCT6ysh/fa8hn2p1++umZQColnzwvAQEyFClppLyTnlf0RaMctBSUifH8fiOIGeL9+X3x36PkR2DFrzTHsWIFUbIOyQxio7yZcwulvEmb3tN3rVmzZjaAT48ojj1jzvMl1H7himKSjOGa/JxJf1MiIvWVAlUiIiJ1iFKRXKV9IDOA5uwsVU5A5+6773Z7jC1pCVevInOEfkyzZs2y18844wz736oYPHhw1gSJVey6d+9ulyzn9W+66Sb7/mhmXQreIw3HyWqidO+6667LmvAzyXzyyServQSokHiz9kJlfR59szy+b94znynMjsPAgQNtcKOhIVjXokULd83YwBPXCRLSLypfM2vKpRhPTMLbtm1r9t57bxtc8AiMEhgEq2sy/jx+KwSnKIU69thjbdCKxzLmSh2f9O8Kt++++87tSSPjy++j9EpKR8lbrvJgAtRkC3Fuufrqq+3vJUljcDKK6HP3zTffZILeHuOIjLtSA+pIOoZr6nMmfT8iIvWVAlUiIiIlogwvDA6F5XfFhEu3h2UblO1NmDDBXiaTiklM37597X9ZVTDsRUXDcr9aHRlPZJ2Q0RQiI4mMp2uuuSbz2Phy7Pzl30+m+ExhT6UQ2ShkmVB+Fa7EFmJ1vgEDBrhrhZEpxapbcbwfXoMVrOKfp6rCz85niPemIujmUQ4Yz8DKhd4wfOYwiBdq06aNDcAR1AuFfWR4X/SzKhWrQ3ocl3wloXFVec18Y9ZjDHrhfsbdmDFjKgTpGHMEZinV8w2tOfYeze99ICrEJJzS0Pg469atm80oad26tbslG8eb0qsjjzzS3VJYZQIZvnS0VHxX4W8u/pvMpdD3X+zYFNsfvn5430LnhlLOG7mel3PWFVdckQkgETjieHKOIijpF04AC0uUkhFKFhFZSnFkoXJepmk65dMEFSnRzXeuzvc9JRnDVfmcxY5X0t9UsWPmM74Q768Hztf+nMH9ch1zEZGa0Cgq5U+HIiIikrFgwQIb8IgHPYrhcUwmwmANpXBkGWHo0KG2oXqIyTkTLo+MgXBVORDgob8VE5yWLVtmylv8sv1MLuIlL2QSsY/3kmvCF8ckjFITXp/LTLwJ1OQLYOXDe+J5Zs+ebV+XQArlXqWW5CRBjyIya3ivfjIXmj9/vu0vQ9lOKd9FiO+DbA76dDEppASp0GSO98KWZMKX9LFVec1cYzZEJhN90cLJcYiMM5qi87+bW265pQ2ygePBlqsRPn1+ZsyYYccogSvGR67jFqIcimwsjiPHmcAepWDlhAAGJV98lz54UEyh77/YsfErxOX7jebbX+jcUOy8wXHmGBBY8YHye+65xwbdwW+M8RAGWnlOzgP8DtGlS5esxRVqWrHvsdQxXNXPWex9eJX9TRU7ZsX2c85m3JLpWplAt4hIVShQJSIiUke+/fbbrKATpUr0VQqRaUQJHgiMMZkJJz8iIuWM4LsPyJBVRAlliGAvGWoEU0E2KT3s6puG8jlFRGqDAlUiIiJ1hEwU/vpNVgrIUuKv7DQd56/YlHPQ88SjL9Tw4cPdNRGR8tenTx9z+eWXu2vGtGvXzgbkycKbOXOmzST98ssv7T6ysN5///1Kl1aWg4byOUVEaoMCVSIiInVoyJAhJa1yxwpSo0aNsj1YRETqC0rddtxxx6Ir01F6dv/991fIKq0vGsrnFBGpDQpUiYiI1DEallMy8vLLL9t+VWRYUeZHA+DtttvOLtGfb2VAEZFyxwp3NA8fPXq0bSROTzF63dE3jQUU9ttvP9O1a9cK/ffqm4byOUVEapoCVSIiIiIiIiIiUhYKL6EiIiIiIiIiIiJSSxSoEhERERERERGRsqBAlYiIiIiIiIiIlAUFqkREREREREREpCwoUCUiIiIiIiIiImVBgSoRERERERERESkDxvwfbWqVwtL6xrsAAAAASUVORK5CYII=;" parent="1" vertex="1">
          <mxGeometry x="-800" y="609" width="1194" height="567" as="geometry" />
        </mxCell>
        <mxCell id="RIw_eJGzd-aFv94rjKLd-3" value="&lt;h1&gt;SPI模式&lt;/h1&gt;&lt;div&gt;&lt;br&gt;&lt;/div&gt;" style="text;html=1;strokeColor=none;fillColor=none;spacing=5;spacingTop=-20;whiteSpace=wrap;overflow=hidden;rounded=0;" parent="1" vertex="1">
          <mxGeometry x="420" y="50" width="380" height="60" as="geometry" />
        </mxCell>
        <mxCell id="RIw_eJGzd-aFv94rjKLd-6" value="" style="line;strokeWidth=2;html=1;rotation=90;" parent="1" vertex="1">
          <mxGeometry x="-492.5" y="262.5" width="345" height="10" as="geometry" />
        </mxCell>
        <mxCell id="RIw_eJGzd-aFv94rjKLd-7" value="" style="line;strokeWidth=2;html=1;rotation=90;" parent="1" vertex="1">
          <mxGeometry x="-450" y="262.5" width="345" height="10" as="geometry" />
        </mxCell>
        <mxCell id="RIw_eJGzd-aFv94rjKLd-8" value="" style="line;strokeWidth=2;html=1;rotation=90;" parent="1" vertex="1">
          <mxGeometry x="-410" y="262.5" width="345" height="10" as="geometry" />
        </mxCell>
        <mxCell id="RIw_eJGzd-aFv94rjKLd-9" value="" style="line;strokeWidth=2;html=1;rotation=90;" parent="1" vertex="1">
          <mxGeometry x="-370" y="262.5" width="345" height="10" as="geometry" />
        </mxCell>
        <mxCell id="RIw_eJGzd-aFv94rjKLd-10" value="" style="line;strokeWidth=2;html=1;rotation=90;" parent="1" vertex="1">
          <mxGeometry x="-330" y="262.5" width="345" height="10" as="geometry" />
        </mxCell>
        <mxCell id="RIw_eJGzd-aFv94rjKLd-11" value="" style="line;strokeWidth=2;html=1;rotation=90;" parent="1" vertex="1">
          <mxGeometry x="-290" y="262.5" width="345" height="10" as="geometry" />
        </mxCell>
        <mxCell id="RIw_eJGzd-aFv94rjKLd-12" value="" style="line;strokeWidth=2;html=1;rotation=90;" parent="1" vertex="1">
          <mxGeometry x="-250" y="262.5" width="345" height="10" as="geometry" />
        </mxCell>
        <mxCell id="RIw_eJGzd-aFv94rjKLd-13" value="" style="line;strokeWidth=2;html=1;rotation=90;" parent="1" vertex="1">
          <mxGeometry x="-210" y="262.5" width="345" height="10" as="geometry" />
        </mxCell>
        <mxCell id="RIw_eJGzd-aFv94rjKLd-14" value="" style="line;strokeWidth=2;html=1;rotation=90;" parent="1" vertex="1">
          <mxGeometry x="-170" y="262.5" width="345" height="10" as="geometry" />
        </mxCell>
        <mxCell id="RIw_eJGzd-aFv94rjKLd-15" value="" style="line;strokeWidth=2;html=1;rotation=90;" parent="1" vertex="1">
          <mxGeometry x="-130" y="262.5" width="345" height="10" as="geometry" />
        </mxCell>
        <mxCell id="RIw_eJGzd-aFv94rjKLd-16" value="" style="line;strokeWidth=2;html=1;rotation=90;" parent="1" vertex="1">
          <mxGeometry x="-90" y="262.5" width="345" height="10" as="geometry" />
        </mxCell>
        <mxCell id="RIw_eJGzd-aFv94rjKLd-17" value="" style="line;strokeWidth=2;html=1;rotation=90;" parent="1" vertex="1">
          <mxGeometry x="-50" y="262.5" width="345" height="10" as="geometry" />
        </mxCell>
        <mxCell id="RIw_eJGzd-aFv94rjKLd-18" value="" style="line;strokeWidth=2;html=1;rotation=90;" parent="1" vertex="1">
          <mxGeometry x="-10" y="262.5" width="345" height="10" as="geometry" />
        </mxCell>
        <mxCell id="RIw_eJGzd-aFv94rjKLd-19" value="" style="line;strokeWidth=2;html=1;rotation=90;" parent="1" vertex="1">
          <mxGeometry x="30" y="262.5" width="345" height="10" as="geometry" />
        </mxCell>
        <mxCell id="RIw_eJGzd-aFv94rjKLd-20" value="" style="line;strokeWidth=2;html=1;rotation=90;" parent="1" vertex="1">
          <mxGeometry x="68.5" y="262.5" width="345" height="10" as="geometry" />
        </mxCell>
        <mxCell id="RIw_eJGzd-aFv94rjKLd-21" value="" style="line;strokeWidth=2;html=1;rotation=90;" parent="1" vertex="1">
          <mxGeometry x="-530" y="262.5" width="345" height="10" as="geometry" />
        </mxCell>
        <mxCell id="RIw_eJGzd-aFv94rjKLd-22" value="" style="shape=waypoint;sketch=0;fillStyle=solid;size=6;pointerEvents=1;points=[];fillColor=#e51400;resizable=0;rotatable=0;perimeter=centerPerimeter;snapToPoint=1;strokeColor=#B20000;fontColor=#ffffff;" parent="1" vertex="1">
          <mxGeometry x="-377.5" y="380" width="40" height="40" as="geometry" />
        </mxCell>
        <mxCell id="RIw_eJGzd-aFv94rjKLd-23" value="" style="shape=waypoint;sketch=0;fillStyle=solid;size=6;pointerEvents=1;points=[];fillColor=#e51400;resizable=0;rotatable=0;perimeter=centerPerimeter;snapToPoint=1;strokeColor=#B20000;fontColor=#ffffff;" parent="1" vertex="1">
          <mxGeometry x="-297.5" y="380" width="40" height="40" as="geometry" />
        </mxCell>
        <mxCell id="RIw_eJGzd-aFv94rjKLd-24" value="" style="shape=waypoint;sketch=0;fillStyle=solid;size=6;pointerEvents=1;points=[];fillColor=#e51400;resizable=0;rotatable=0;perimeter=centerPerimeter;snapToPoint=1;strokeColor=#B20000;fontColor=#ffffff;" parent="1" vertex="1">
          <mxGeometry x="-217.5" y="380" width="40" height="40" as="geometry" />
        </mxCell>
        <mxCell id="RIw_eJGzd-aFv94rjKLd-25" value="" style="shape=waypoint;sketch=0;fillStyle=solid;size=6;pointerEvents=1;points=[];fillColor=#e51400;resizable=0;rotatable=0;perimeter=centerPerimeter;snapToPoint=1;strokeColor=#B20000;fontColor=#ffffff;" parent="1" vertex="1">
          <mxGeometry x="-137.5" y="380" width="40" height="40" as="geometry" />
        </mxCell>
        <mxCell id="RIw_eJGzd-aFv94rjKLd-26" value="" style="shape=waypoint;sketch=0;fillStyle=solid;size=6;pointerEvents=1;points=[];fillColor=#e51400;resizable=0;rotatable=0;perimeter=centerPerimeter;snapToPoint=1;strokeColor=#B20000;fontColor=#ffffff;" parent="1" vertex="1">
          <mxGeometry x="-57.5" y="380" width="40" height="40" as="geometry" />
        </mxCell>
        <mxCell id="RIw_eJGzd-aFv94rjKLd-27" value="" style="shape=waypoint;sketch=0;fillStyle=solid;size=6;pointerEvents=1;points=[];fillColor=#e51400;resizable=0;rotatable=0;perimeter=centerPerimeter;snapToPoint=1;strokeColor=#B20000;fontColor=#ffffff;" parent="1" vertex="1">
          <mxGeometry x="22.5" y="380" width="40" height="40" as="geometry" />
        </mxCell>
        <mxCell id="RIw_eJGzd-aFv94rjKLd-28" value="" style="shape=waypoint;sketch=0;fillStyle=solid;size=6;pointerEvents=1;points=[];fillColor=#e51400;resizable=0;rotatable=0;perimeter=centerPerimeter;snapToPoint=1;strokeColor=#B20000;fontColor=#ffffff;" parent="1" vertex="1">
          <mxGeometry x="102.5" y="380" width="40" height="40" as="geometry" />
        </mxCell>
        <mxCell id="RIw_eJGzd-aFv94rjKLd-29" value="" style="shape=waypoint;sketch=0;fillStyle=solid;size=6;pointerEvents=1;points=[];fillColor=#e51400;resizable=0;rotatable=0;perimeter=centerPerimeter;snapToPoint=1;strokeColor=#B20000;fontColor=#ffffff;" parent="1" vertex="1">
          <mxGeometry x="182.5" y="380" width="40" height="40" as="geometry" />
        </mxCell>
        <mxCell id="RIw_eJGzd-aFv94rjKLd-30" value="" style="line;strokeWidth=2;html=1;rotation=90;" parent="1" vertex="1">
          <mxGeometry x="-522.5" y="830" width="345" height="10" as="geometry" />
        </mxCell>
        <mxCell id="RIw_eJGzd-aFv94rjKLd-31" value="" style="line;strokeWidth=2;html=1;rotation=90;" parent="1" vertex="1">
          <mxGeometry x="-482.5" y="830" width="345" height="10" as="geometry" />
        </mxCell>
        <mxCell id="RIw_eJGzd-aFv94rjKLd-32" value="" style="line;strokeWidth=2;html=1;rotation=90;" parent="1" vertex="1">
          <mxGeometry x="-442.5" y="830" width="345" height="10" as="geometry" />
        </mxCell>
        <mxCell id="RIw_eJGzd-aFv94rjKLd-33" value="" style="line;strokeWidth=2;html=1;rotation=90;" parent="1" vertex="1">
          <mxGeometry x="-402.5" y="830" width="345" height="10" as="geometry" />
        </mxCell>
        <mxCell id="RIw_eJGzd-aFv94rjKLd-34" value="" style="line;strokeWidth=2;html=1;rotation=90;" parent="1" vertex="1">
          <mxGeometry x="-362.5" y="830" width="345" height="10" as="geometry" />
        </mxCell>
        <mxCell id="RIw_eJGzd-aFv94rjKLd-35" value="" style="line;strokeWidth=2;html=1;rotation=90;" parent="1" vertex="1">
          <mxGeometry x="-322.5" y="830" width="345" height="10" as="geometry" />
        </mxCell>
        <mxCell id="RIw_eJGzd-aFv94rjKLd-36" value="" style="line;strokeWidth=2;html=1;rotation=90;" parent="1" vertex="1">
          <mxGeometry x="-282.5" y="830" width="345" height="10" as="geometry" />
        </mxCell>
        <mxCell id="RIw_eJGzd-aFv94rjKLd-37" value="" style="line;strokeWidth=2;html=1;rotation=90;" parent="1" vertex="1">
          <mxGeometry x="-242.5" y="830" width="345" height="10" as="geometry" />
        </mxCell>
        <mxCell id="RIw_eJGzd-aFv94rjKLd-38" value="" style="line;strokeWidth=2;html=1;rotation=90;" parent="1" vertex="1">
          <mxGeometry x="-202.5" y="830" width="345" height="10" as="geometry" />
        </mxCell>
        <mxCell id="RIw_eJGzd-aFv94rjKLd-39" value="" style="line;strokeWidth=2;html=1;rotation=90;" parent="1" vertex="1">
          <mxGeometry x="-162.5" y="830" width="345" height="10" as="geometry" />
        </mxCell>
        <mxCell id="RIw_eJGzd-aFv94rjKLd-40" value="" style="line;strokeWidth=2;html=1;rotation=90;" parent="1" vertex="1">
          <mxGeometry x="-122.5" y="830" width="345" height="10" as="geometry" />
        </mxCell>
        <mxCell id="RIw_eJGzd-aFv94rjKLd-41" value="" style="line;strokeWidth=2;html=1;rotation=90;" parent="1" vertex="1">
          <mxGeometry x="-90" y="830" width="345" height="10" as="geometry" />
        </mxCell>
        <mxCell id="RIw_eJGzd-aFv94rjKLd-42" value="" style="line;strokeWidth=2;html=1;rotation=90;" parent="1" vertex="1">
          <mxGeometry x="-40" y="830" width="345" height="10" as="geometry" />
        </mxCell>
        <mxCell id="RIw_eJGzd-aFv94rjKLd-43" value="" style="line;strokeWidth=2;html=1;rotation=90;" parent="1" vertex="1">
          <mxGeometry x="-10" y="830" width="345" height="10" as="geometry" />
        </mxCell>
        <mxCell id="RIw_eJGzd-aFv94rjKLd-44" value="" style="line;strokeWidth=2;html=1;rotation=90;" parent="1" vertex="1">
          <mxGeometry x="37" y="830" width="345" height="10" as="geometry" />
        </mxCell>
        <mxCell id="RIw_eJGzd-aFv94rjKLd-45" value="" style="line;strokeWidth=2;html=1;rotation=90;" parent="1" vertex="1">
          <mxGeometry x="75" y="830" width="345" height="10" as="geometry" />
        </mxCell>
        <mxCell id="RIw_eJGzd-aFv94rjKLd-47" value="" style="shape=waypoint;sketch=0;fillStyle=solid;size=6;pointerEvents=1;points=[];fillColor=#e51400;resizable=0;rotatable=0;perimeter=centerPerimeter;snapToPoint=1;strokeColor=#B20000;fontColor=#ffffff;" parent="1" vertex="1">
          <mxGeometry x="-330" y="940" width="40" height="40" as="geometry" />
        </mxCell>
        <mxCell id="RIw_eJGzd-aFv94rjKLd-48" value="" style="shape=waypoint;sketch=0;fillStyle=solid;size=6;pointerEvents=1;points=[];fillColor=#e51400;resizable=0;rotatable=0;perimeter=centerPerimeter;snapToPoint=1;strokeColor=#B20000;fontColor=#ffffff;" parent="1" vertex="1">
          <mxGeometry x="-250" y="940" width="40" height="40" as="geometry" />
        </mxCell>
        <mxCell id="RIw_eJGzd-aFv94rjKLd-49" value="" style="shape=waypoint;sketch=0;fillStyle=solid;size=6;pointerEvents=1;points=[];fillColor=#e51400;resizable=0;rotatable=0;perimeter=centerPerimeter;snapToPoint=1;strokeColor=#B20000;fontColor=#ffffff;" parent="1" vertex="1">
          <mxGeometry x="-170" y="940" width="40" height="40" as="geometry" />
        </mxCell>
        <mxCell id="RIw_eJGzd-aFv94rjKLd-50" value="" style="shape=waypoint;sketch=0;fillStyle=solid;size=6;pointerEvents=1;points=[];fillColor=#e51400;resizable=0;rotatable=0;perimeter=centerPerimeter;snapToPoint=1;strokeColor=#B20000;fontColor=#ffffff;" parent="1" vertex="1">
          <mxGeometry x="-90" y="940" width="40" height="40" as="geometry" />
        </mxCell>
        <mxCell id="RIw_eJGzd-aFv94rjKLd-51" value="" style="shape=waypoint;sketch=0;fillStyle=solid;size=6;pointerEvents=1;points=[];fillColor=#e51400;resizable=0;rotatable=0;perimeter=centerPerimeter;snapToPoint=1;strokeColor=#B20000;fontColor=#ffffff;" parent="1" vertex="1">
          <mxGeometry x="-10" y="940" width="40" height="40" as="geometry" />
        </mxCell>
        <mxCell id="RIw_eJGzd-aFv94rjKLd-52" value="" style="shape=waypoint;sketch=0;fillStyle=solid;size=6;pointerEvents=1;points=[];fillColor=#e51400;resizable=0;rotatable=0;perimeter=centerPerimeter;snapToPoint=1;strokeColor=#B20000;fontColor=#ffffff;" parent="1" vertex="1">
          <mxGeometry x="68.5" y="940" width="40" height="40" as="geometry" />
        </mxCell>
        <mxCell id="RIw_eJGzd-aFv94rjKLd-53" value="" style="shape=waypoint;sketch=0;fillStyle=solid;size=6;pointerEvents=1;points=[];fillColor=#e51400;resizable=0;rotatable=0;perimeter=centerPerimeter;snapToPoint=1;strokeColor=#B20000;fontColor=#ffffff;" parent="1" vertex="1">
          <mxGeometry x="142.5" y="940" width="40" height="40" as="geometry" />
        </mxCell>
        <mxCell id="RIw_eJGzd-aFv94rjKLd-54" value="" style="shape=waypoint;sketch=0;fillStyle=solid;size=6;pointerEvents=1;points=[];fillColor=#e51400;resizable=0;rotatable=0;perimeter=centerPerimeter;snapToPoint=1;strokeColor=#B20000;fontColor=#ffffff;" parent="1" vertex="1">
          <mxGeometry x="227.5" y="940" width="40" height="40" as="geometry" />
        </mxCell>
        <mxCell id="RIw_eJGzd-aFv94rjKLd-68" value="&lt;table border=&quot;1&quot; width=&quot;100%&quot; cellpadding=&quot;4&quot; style=&quot;width: 100% ; height: 100% ; border-collapse: collapse&quot;&gt;&lt;tbody&gt;&lt;tr style=&quot;background-color: #a7c942 ; color: #ffffff ; border: 1px solid #98bf21&quot;&gt;&lt;th align=&quot;left&quot;&gt;模式&lt;/th&gt;&lt;td&gt;CPOL(Clock POLarity)&lt;/td&gt;&lt;td&gt;CPHA(Clock PHAse)&lt;/td&gt;&lt;th align=&quot;left&quot;&gt;&lt;br&gt;&lt;/th&gt;&lt;th align=&quot;left&quot;&gt;&lt;br&gt;&lt;/th&gt;&lt;/tr&gt;&lt;tr style=&quot;border: 1px solid #98bf21&quot;&gt;&lt;td&gt;模式0&lt;/td&gt;&lt;td style=&quot;text-align: center&quot;&gt;0&lt;/td&gt;&lt;td style=&quot;text-align: center&quot;&gt;0&lt;/td&gt;&lt;td&gt;上升沿采样&lt;/td&gt;&lt;td&gt;下降沿改变数据&lt;/td&gt;&lt;/tr&gt;&lt;tr style=&quot;background-color: #eaf2d3 ; border: 1px solid #98bf21&quot;&gt;&lt;td&gt;模式1&lt;/td&gt;&lt;td style=&quot;text-align: center&quot;&gt;0&lt;/td&gt;&lt;td style=&quot;text-align: center&quot;&gt;1&lt;/td&gt;&lt;td&gt;上升沿改变数据&lt;/td&gt;&lt;td&gt;下降沿采样&lt;/td&gt;&lt;/tr&gt;&lt;tr style=&quot;border: 1px solid #98bf21&quot;&gt;&lt;td&gt;模式2&lt;/td&gt;&lt;td style=&quot;text-align: center&quot;&gt;1&lt;/td&gt;&lt;td style=&quot;text-align: center&quot;&gt;0&lt;/td&gt;&lt;td&gt;下降沿采样&lt;/td&gt;&lt;td&gt;上升沿改变数据&lt;/td&gt;&lt;/tr&gt;&lt;tr style=&quot;background-color: #eaf2d3 ; border: 1px solid #98bf21&quot;&gt;&lt;td&gt;模式3&lt;/td&gt;&lt;td style=&quot;text-align: center&quot;&gt;1&lt;/td&gt;&lt;td style=&quot;text-align: center&quot;&gt;1&lt;/td&gt;&lt;td&gt;下降沿改变数据&lt;/td&gt;&lt;td&gt;上升沿采样&lt;/td&gt;&lt;/tr&gt;&lt;/tbody&gt;&lt;/table&gt;" style="text;html=1;strokeColor=#c0c0c0;fillColor=#ffffff;overflow=fill;rounded=0;fontSize=24;" parent="1" vertex="1">
          <mxGeometry x="420" y="120" width="930" height="310" as="geometry" />
        </mxCell>
        <mxCell id="t1I6wANs5CQ7CfoET4EL-1" value="&lt;h1&gt;CPOL&lt;/h1&gt;&lt;div&gt;&lt;font style=&quot;font-size: 24px&quot;&gt;SPI空闲时的时钟信号电平：1-高电平 0-低电平&lt;/font&gt;&lt;/div&gt;" style="text;html=1;strokeColor=none;fillColor=none;spacing=5;spacingTop=-20;whiteSpace=wrap;overflow=hidden;rounded=0;" vertex="1" parent="1">
          <mxGeometry x="420" y="460" width="930" height="100" as="geometry" />
        </mxCell>
        <mxCell id="t1I6wANs5CQ7CfoET4EL-2" value="&lt;h1&gt;CPHA&lt;/h1&gt;&lt;div&gt;&lt;font style=&quot;font-size: 24px&quot;&gt;SPI第几个边沿采样：1-第二个边沿开始，0：第一个边沿开始&lt;/font&gt;&lt;/div&gt;" style="text;html=1;strokeColor=none;fillColor=none;spacing=5;spacingTop=-20;whiteSpace=wrap;overflow=hidden;rounded=0;" vertex="1" parent="1">
          <mxGeometry x="413.5" y="580" width="930" height="100" as="geometry" />
        </mxCell>
        <mxCell id="t1I6wANs5CQ7CfoET4EL-3" value="&lt;b&gt;&lt;font color=&quot;#ff0000&quot;&gt;MODE0&lt;/font&gt;&lt;/b&gt;和&lt;b&gt;&lt;font color=&quot;#ff0000&quot;&gt;MODE3&lt;/font&gt;&lt;/b&gt;最常用" style="text;html=1;strokeColor=none;fillColor=none;align=center;verticalAlign=middle;whiteSpace=wrap;rounded=0;fontSize=24;" vertex="1" parent="1">
          <mxGeometry x="420" y="700" width="280" height="30" as="geometry" />
        </mxCell>
      </root>
    </mxGraphModel>
  </diagram>
</mxfile>
